<?xml version="1.0" encoding="utf-8"?>
<!-- Generator: Adobe Illustrator 16.0.0, SVG Export Plug-In . SVG Version: 6.00 Build 0)  -->
<!DOCTYPE svg PUBLIC "-//W3C//DTD SVG 1.1//EN" "http://www.w3.org/Graphics/SVG/1.1/DTD/svg11.dtd">
<svg version="1.1" id="Layer_1" xmlns="http://www.w3.org/2000/svg" xmlns:xlink="http://www.w3.org/1999/xlink" x="0px" y="0px"
	 width="1000px" height="689px" viewBox="0 0 1000 689" enable-background="new 0 0 1000 689" xml:space="preserve">
<rect fill="#C8DFD6" width="1000" height="689"/>
<g id="Body_5_">
	<g>
		<path opacity="0.1" d="M593.205,420.546c-0.457,8.346-7.66,14.782-16.003,14.327l-171.813-9.485
			c-8.342-0.457-14.797-7.655-14.335-15.989l12.927-234.267c0.461-8.338,7.664-14.784,16.009-14.324l171.81,9.481
			c8.348,0.463,14.805,7.66,14.339,15.998L593.205,420.546z"/>
	</g>
</g>
<path opacity="0.05" enable-background="new    " d="M501.121,550.091c55.715,0,100.879,4.717,100.879,10.531
	c0,5.82-45.164,10.536-100.879,10.536c-55.713,0-100.877-4.716-100.877-10.536C400.244,554.808,445.408,550.091,501.121,550.091z"/>
<g>
	<g>
		<g>
			<path fill="#9DD685" d="M593.642,267.555c2.524,3.377,3.265-4.314,5.343-1.786c3.259-5.141,7.866-6.125,11.976-9.643
				c5.312-4.546,12.088-7.314,17.706-11.511c5.12-3.824,10.425-7.329,12.45-13.62c0.563-1.751,0.12-2.889,1.982-2.698
				c1.118,0.114,2.201-0.373,3.166-0.868c1.855-0.952,4.17-2.59,6.16-0.971c0.578-1.922,0.97-4.31,3.559-3.986
				c2.752,0.344,7.019-0.423,8.512-3.116c0.797-1.439,0.713-5.026,2.29-5.85c1.497-0.767,1.094,3.169,2.583,2.405
				c-5.161,19.824-13.372,37.135-27.934,51.712c-7.563,7.571-15.795,14.435-24.178,21.073c-7.373,5.838-15.101,11.211-24.834,11.593
				c0.419-0.913,0.781-1.848,1.087-2.804c-1.541,1.062-4.597,2.85-6.506,1.849c-1.643-0.861-0.837-3.63-0.83-5.021
				c0.386-1.57-1.633-2.447-0.859-4.066c-0.847,0.551-1.695,1.098-2.546,1.643c-0.502-0.647,2.247-1.322,2.261-1.98
				c0.016-0.723-3.321,0.989-3.629,1.178c-0.332-1.419,3.435-2.408,2.45-3.675c-0.948,0.07-1.849,3.478-3.014,1.944
				c0.266-0.584,0.695-0.995,1.291-1.234c-2.156,0.854-6.01,0.928-4.045-2.432c-1.08,0.686-1.757,1.977-3.062,2.325
				c0.508-0.492,1.037-0.96,1.588-1.403c-0.519,0.388-1.069,0.725-1.65,1.01c0.416-1.388-0.932-0.673,1.031-1.87
				c-2.482,1.526-0.743-2.253-0.164-3.394c0.799-1.575,2.088-2.813,3.442-3.911C583.931,274.667,588.854,271.174,593.642,267.555
				c0.423,0.564-2.205,1.689-2.328,1.913C591.674,268.814,593.171,267.91,593.642,267.555
				C596.299,271.109,588.197,271.67,593.642,267.555z"/>
		</g>
	</g>
</g>
<path fill="#9DD685" d="M413.288,280.754c-0.027-1.387-1.917-2.743-2.793-3.533c1.015,0.03,2.027,0.11,3.035,0.238
	c-2.057-8.27-6.287-13.587-12.183-19.552c-6.58-6.656-12.464-14.184-17.613-21.986c-9.331-14.141-16.609-30.193-21.102-46.532
	c-1.896,2.023-4.729-3.813-2.743,2.392c0.575,1.794-0.929,3.95-1.955,5.333c-1.325,1.785-4.797,2.733-5.712,4.367
	c-2.501-3.734-5.002-7.468-7.503-11.202c0.479,4.411,1.503,8.752,2.853,12.974c1.21,3.785,3.137,7.387-0.588,10.55
	c-1.593,1.353-0.666,1.633,0.395,3.532c1.093,1.959,2.431,3.818,3.187,5.947c1.376,4.888,1.639,9.852,3.244,14.793
	c1.44,4.434,3.01,8.825,4.728,13.159c0.999,2.521,4.478,7.745,4.135,9.648c0.667,1.08,4.861,4.403,3.092,5.354
	c2.84,4.68,5.475,7.842,10.123,10.664c-2.677,2.774,6.367,2.597,2.861,5.932c6.083,6.406,15.9,19.162,25.835,16.931
	c-0.411-0.315-0.761-0.779-1.209-1.034c0.827,0.702,1.47,1.049,2.497,0.632c-0.601-0.481-1.169-1.199-1.842-1.566
	c0.3,0.261,1.988,1.224,2.251,1.387c-0.987-1.263-2.593-1.674-3.766-2.692c4.448,1.146,2.874-2.833,1.204-4.987
	c0.956,0.824,2.921,0.84,1.491-0.211c-0.584-0.43-2.483-0.661-2.727-1.402c0.954-1.279,3.177,2.274,4.543,1.479
	c-0.476-0.42-3.169-3.162-2.286-3.389c0.734-0.188,2.154,2.476,2.7,1.739c-0.806-0.712-1.612-1.424-2.419-2.135
	c0.922,0.116,1.655-0.193,2.197-0.93c0.871,0.846,1.746,1.686,2.626,2.521c0.978,0.928,1.963,1.847,2.959,2.755
	c-1.417-2.116-2.834-4.231-4.252-6.348C411.305,284.723,414.949,284.687,413.288,280.754
	C413.269,279.742,414.97,284.735,413.288,280.754z"/>
<g>
	<line fill="none" x1="449.918" y1="412.856" x2="448.064" y2="468.255"/>
	<g>
		<g>
			<path fill="#9DD685" d="M434.12,425.587c3.4,0.126-0.306,1.254,0.523,2.643c0.325,0.032,0.65,0.065,0.975,0.098
				c-1.716,2.431-1.819,4.346-0.114,6.324c0.501,1.183-1.172,2.496,0.659,2.649c-0.354,3.008,2.602,7.044,3.951,9.809
				c0.939,1.924,1.706,3.477,3.034,5.143c1.551,1.946,0.62,3.45,0.36,5.642c3.17-0.074,5.311,3.06,8.548,2.594
				c-0.389,3.16,2.897,2.336,5.155,3.166c1.356,0.499,2.655,1.27,3.517,2.46c0.238,0.559-0.837,2.256-0.31,2.56
				c4.895,2.784,3.591-12.159,3.526-14.24c-0.139-4.421-0.884-8.467-1.146-12.871c-0.231-3.885,2.222-27.045-5.292-23.095
				c0.256-2.091-1.292-3.468-3.383-3.041c-2.024,0.413-6.381,2.397-6.068-0.223c-1.04-0.104,0.485,1.784-1.148,1.329
				c0.122-0.593,0.083-1.176-0.116-1.748c-1.196,0.145-0.625,1.956-1.864,1.825c-0.237-0.257,0.911-1.021,0.819-1.41
				c-0.282-1.199-1.02,0.373-1.038,0.524c-0.482-1.931-2.233-2.557-3.787-1.249c0.323-0.599,0.516-1.236,0.579-1.913
				c-0.03,0.192-0.448,0.833-0.477,1.063c0.041-0.332,0.082-0.664,0.123-0.996c-0.566,0.399-0.931-0.329-1.096,0.896
				c-0.449-1.359-2.551,0.444-3.67,1.229C434.361,416.173,434.27,423.282,434.12,425.587
				C434.727,425.609,434.345,422.135,434.12,425.587z"/>
		</g>
	</g>
</g>
<g>
	<path fill="#ADD79E" d="M561.229,466.922c0.003,0.011,0.008,0.019,0.011,0.032C561.415,466.881,561.387,466.879,561.229,466.922z"
		/>
	<path fill="#ADD79E" d="M549.791,472.228c-0.064,0.369-0.128,0.737-0.192,1.106C550.102,472.596,550.166,472.228,549.791,472.228z"
		/>
	<path fill="#ADD79E" d="M549.478,473.803C549.482,473.805,549.527,473.712,549.478,473.803
		C549.48,473.804,549.483,473.792,549.478,473.803z"/>
	<path fill="#ADD79E" d="M549.599,473.334C549.592,473.417,549.583,473.69,549.599,473.334
		C549.599,473.334,549.598,473.356,549.599,473.334z"/>
	<path fill="#ADD79E" d="M549.574,473.561C549.643,473.345,549.487,473.979,549.574,473.561
		C549.548,473.644,549.568,473.589,549.574,473.561z"/>
	<path fill="#ADD79E" d="M550.946,472.144C551.123,472.016,550.511,472.459,550.946,472.144L550.946,472.144z"/>
	<path fill="#ADD79E" d="M549.514,473.742C549.532,473.687,549.444,473.891,549.514,473.742
		C549.515,473.739,549.48,473.813,549.514,473.742z"/>
	<path fill="#ADD79E" d="M549.822,473.278l-0.125,0.154C549.723,473.407,549.757,473.37,549.822,473.278z"/>
	<path fill="#ADD79E" d="M552.066,471.205C552.2,471.104,552.103,471.185,552.066,471.205
		C552.087,471.189,552.073,471.201,552.066,471.205z"/>
	<path fill="#ADD79E" d="M549.697,473.433c-0.013,0.012-0.026,0.029-0.038,0.046L549.697,473.433z"/>
	<path fill="#ADD79E" d="M550.435,472.561C551.205,471.803,550.6,472.398,550.435,472.561
		C550.556,472.441,550.49,472.506,550.435,472.561z"/>
	<path fill="#ADD79E" d="M549.521,473.713C549.463,473.842,549.506,473.734,549.521,473.713
		C549.512,473.734,549.517,473.72,549.521,473.713z"/>
	<path fill="#ADD79E" d="M549.822,473.278c0.184-0.218,0.366-0.438,0.548-0.657C550.165,472.823,549.982,473.042,549.822,473.278z"
		/>
	<path fill="#ADD79E" d="M550.974,472.118c0.374-0.292,0.738-0.597,1.093-0.913C551.66,471.493,551.343,471.801,550.974,472.118z"/>
	<path fill="#ADD79E" d="M550.37,472.621C550.507,472.49,550.403,472.588,550.37,472.621
		C550.392,472.601,550.377,472.614,550.37,472.621z"/>
	<path fill="#ADD79E" d="M550,473.734c0-0.002,0-0.002,0-0.003C550,473.732,550,473.733,550,473.734z"/>
	<path fill="#9DD685" d="M559.885,458.456c-3.677-4.282-1.134-16.263-0.046-21.201c0.977-4.433,2.149-15.09-4.929-13.017
		c1.115-3.766-2.636-4.43-5.448-4.155c-3.605,0.352-2.692-0.99-2.78-4.159c-0.182,0.784-0.359,1.57-0.531,2.356
		c-0.434,1.98-3.186,2.91-2.307,0.039c-1.184-0.336,0.125,2.205-1.703,1.344c0.274-0.689,0.353-1.401,0.235-2.135
		c-1.517-0.102-1.205,2.231-2.709,1.812c0.753,1.166,1.01-4.824-0.083-1.127c-0.178-2.432-2.101-3.971-4.402-2.648
		c0.584-0.769,0.986-1.623,1.208-2.564c0.403-0.824-0.968,1.808-0.878,1.523c0.133-0.383,0.265-0.766,0.397-1.148
		c-0.824,0.469-1.079-0.581-1.593,0.998c0.089-0.271,0.179-0.544,0.268-0.815c-7.531,0.788-8.812,8.492-10.102,14.921
		c4.444,0.807-2.017,3.352,1.41,3.777c-2.376,2.722-2.422,4.316-2.032,7.934c2.832,0.049-1.25,3.338,1.547,3.781
		c-0.816,4.193,3.15,10.422,4.999,14.277c1.184,2.471,2.407,4.122,4.086,6.217c1.69,2.107,0.805,4.616,1.113,7.09
		c1.961-0.532,3.791,0.091,5.687,0.508c1.423,0.344,1.257,1.76,1.847,3.017c1.051,2.244,2.781,4.236,5.332,4.683
		c-0.077-2.756-1.338-6.268,1.32-7.534c0.885-2.346,0.928-5.333,1.372-7.808c-0.455,2.603-0.915,5.205-1.371,7.808
		c0.125-0.059,3.221-1.685,2.338-1.068c2.655-1.819,5.991-3.351,9.1-4.237C560.519,464.062,559.798,461.479,559.885,458.456
		C558.942,457.358,559.792,461.688,559.885,458.456z M552.608,470.846c0.017-0.01,0.035-0.02,0.052-0.03
		C552.644,470.826,552.625,470.838,552.608,470.846z"/>
	<path fill="#ADD79E" d="M549.627,473.526C549.693,473.419,549.637,473.501,549.627,473.526
		C549.64,473.506,549.629,473.521,549.627,473.526z"/>
	<path fill="#ADD79E" d="M549.539,473.677C549.449,473.944,549.77,473.188,549.539,473.677
		C549.532,473.697,549.57,473.61,549.539,473.677z"/>
</g>
<g id="Body_4_">
	<g>
		<path fill="#EDEDED" d="M596.334,415.482c-0.449,8.228-7.545,14.574-15.764,14.125l-169.237-9.344
			c-8.218-0.449-14.576-7.547-14.121-15.764l12.744-230.962c0.455-8.22,7.55-14.575,15.771-14.122l169.236,9.341
			c8.222,0.455,14.581,7.551,14.122,15.771L596.334,415.482z"/>
	</g>
</g>
<g id="Body_3_">
	<g>
		<path fill="#EDEDED" d="M596.334,415.482c-0.449,8.228-7.545,14.574-15.764,14.125l-169.237-9.344
			c-8.218-0.449-14.576-7.547-14.121-15.764l12.744-230.962c0.455-8.22,7.55-14.575,15.771-14.122l169.236,9.341
			c8.222,0.455,14.581,7.551,14.122,15.771L596.334,415.482z"/>
	</g>
</g>
<g id="Slider_1_">
	<g>
		<g>
			<path fill="#92CC76" d="M494.938,360.592c-1.198,24.176-21.242,43.004-44.545,41.85c-23.305-1.151-41.396-21.866-40.201-46.031
				l6.591-133.385c1.195-24.17,21.238-43.001,44.539-41.85c23.305,1.15,41.399,21.865,40.203,46.034L494.938,360.592z"/>
		</g>
		<g>
			<path fill="#9DD685" d="M495.572,356.734c-1.139,23.032-20.235,40.963-42.434,39.865c-22.206-1.087-39.441-20.829-38.304-43.854
				l6.506-131.587c1.138-23.02,20.232-40.96,42.434-39.863c22.2,1.096,39.436,20.831,38.297,43.854L495.572,356.734z"/>
		</g>
	</g>
	<g>
		<g>
			<path fill="#92CC76" d="M589.008,367.352c-1.196,24.173-21.239,43.001-44.544,41.849c-23.305-1.145-41.398-21.859-40.207-46.034
				l6.594-133.391c1.193-24.167,21.236-42.998,44.545-41.844c23.303,1.152,41.392,21.868,40.199,46.037L589.008,367.352z"/>
		</g>
		<g>
			<path fill="#9DD685" d="M589.642,363.494c-1.136,23.023-20.233,40.961-42.437,39.864c-22.197-1.096-39.435-20.83-38.296-43.854
				l6.508-131.586c1.134-23.022,20.231-40.964,42.431-39.867c22.202,1.097,39.435,20.83,38.299,43.855L589.642,363.494z"/>
		</g>
	</g>
</g>
<g id="Eyes_1_">
	
		<ellipse transform="matrix(0.0558 -0.9984 0.9984 0.0558 210.2143 669.0613)" fill="#92CC76" cx="458.859" cy="223.384" rx="36.803" ry="37.434"/>
	<path fill="#92CC76" d="M556.31,193.48c20.642,1.153,36.461,18.482,35.332,38.709c-1.134,20.227-18.784,35.686-39.428,34.533
		s-36.463-18.484-35.329-38.71C518.014,207.785,535.66,192.324,556.31,193.48z"/>
	<circle fill="#FFFFFF" cx="460.019" cy="220.554" r="35.413"/>
	<circle fill="#FFFFFF" cx="555.398" cy="227.406" r="35.414"/>
	<g id="Pupils_2_">
		<circle fill="#777777" cx="460.146" cy="216.698" r="5.319"/>
		<circle fill="#777777" cx="555.531" cy="223.549" r="5.319"/>
	</g>
</g>
<g>
	<path fill="#FFFFFF" d="M449.53,103.562h-3.486V89.452h-15.791v14.109h-3.486V73.579h3.486v12.756h15.791V73.579h3.486V103.562z"/>
	<path fill="#FFFFFF" d="M456.954,74.994c0-0.779,0.191-1.35,0.574-1.713c0.383-0.361,0.861-0.543,1.436-0.543
		c0.547,0,1.019,0.185,1.415,0.554s0.595,0.937,0.595,1.702s-0.198,1.336-0.595,1.713c-0.396,0.375-0.868,0.563-1.415,0.563
		c-0.574,0-1.053-0.188-1.436-0.563C457.145,76.33,456.954,75.76,456.954,74.994z M460.645,103.562h-3.404V81.085h3.404V103.562z"/>
	<path fill="#FFFFFF" d="M478.118,80.675c0.998,0,1.894,0.082,2.687,0.246l-0.472,3.158c-0.93-0.205-1.75-0.308-2.461-0.308
		c-1.818,0-3.374,0.738-4.666,2.215s-1.938,3.315-1.938,5.517v12.059h-3.404V81.085h2.81l0.39,4.163h0.164
		c0.834-1.463,1.839-2.591,3.015-3.384S476.709,80.675,478.118,80.675z"/>
	<path fill="#FFFFFF" d="M494.503,103.972c-3.322,0-5.944-1.012-7.865-3.035s-2.881-4.833-2.881-8.429
		c0-3.623,0.892-6.501,2.676-8.634s4.18-3.199,7.188-3.199c2.816,0,5.045,0.927,6.686,2.778c1.64,1.854,2.46,4.297,2.46,7.332v2.153
		h-15.483c0.068,2.639,0.735,4.642,2,6.009s3.045,2.051,5.342,2.051c2.42,0,4.812-0.506,7.178-1.518v3.035
		c-1.204,0.52-2.342,0.893-3.415,1.117C497.316,103.859,496.021,103.972,494.503,103.972z M493.581,83.525
		c-1.805,0-3.244,0.588-4.317,1.764s-1.706,2.803-1.897,4.881h11.751c0-2.146-0.479-3.791-1.436-4.932
		C496.725,84.096,495.358,83.525,493.581,83.525z"/>
	<path fill="#FFFFFF" d="M533.264,103.562l-10.172-26.578h-0.164c0.191,2.105,0.287,4.607,0.287,7.506v19.072h-3.221V73.579h5.25
		l9.496,24.732h0.164l9.576-24.732h5.209v29.982h-3.486V84.243c0-2.215,0.096-4.621,0.287-7.219h-0.164l-10.254,26.537H533.264z"/>
	<path fill="#FFFFFF" d="M566.896,103.972c-3.322,0-5.944-1.012-7.864-3.035c-1.922-2.023-2.882-4.833-2.882-8.429
		c0-3.623,0.892-6.501,2.677-8.634c1.783-2.133,4.18-3.199,7.188-3.199c2.816,0,5.045,0.927,6.686,2.778
		c1.641,1.854,2.461,4.297,2.461,7.332v2.153h-15.483c0.068,2.639,0.734,4.642,1.999,6.009s3.046,2.051,5.343,2.051
		c2.42,0,4.812-0.506,7.178-1.518v3.035c-1.203,0.52-2.342,0.893-3.415,1.117C569.708,103.859,568.413,103.972,566.896,103.972z
		 M565.973,83.525c-1.805,0-3.244,0.588-4.316,1.764c-1.074,1.176-1.706,2.803-1.897,4.881h11.751c0-2.146-0.479-3.791-1.436-4.932
		C569.117,84.096,567.75,83.525,565.973,83.525z"/>
</g>
</svg>
