<?xml version="1.0" encoding="utf-8"?>
<!-- Generator: Adobe Illustrator 16.0.0, SVG Export Plug-In . SVG Version: 6.00 Build 0)  -->
<!DOCTYPE svg PUBLIC "-//W3C//DTD SVG 1.1//EN" "http://www.w3.org/Graphics/SVG/1.1/DTD/svg11.dtd">
<svg version="1.1" id="Layer_1" xmlns="http://www.w3.org/2000/svg" xmlns:xlink="http://www.w3.org/1999/xlink" x="0px" y="0px"
	 width="125.125px" height="111.848px" viewBox="0 0 125.125 111.848" enable-background="new 0 0 125.125 111.848"
	 xml:space="preserve">
<g>
</g>
<g id="Layer_1_2_">
	<g id="Layer_1_1_">
	</g>
	<g id="Capa_1">
		<path fill="#D8D8D8" d="M30.826,6.17c-1.134,0.502-2.353,0.842-3.632,0.996c1.308-0.783,2.311-2.022,2.78-3.498
			c-1.221,0.725-2.573,1.25-4.018,1.533c-1.149-1.229-2.795-1.997-4.614-1.997c-3.491,0-6.323,2.833-6.323,6.322
			c0,0.497,0.054,0.979,0.163,1.44C9.926,10.704,5.268,8.189,2.146,4.36C1.602,5.298,1.29,6.383,1.29,7.542
			c0,2.189,1.117,4.129,2.814,5.264c-1.036-0.032-2.012-0.319-2.865-0.79v0.078c0,3.066,2.178,5.622,5.073,6.201
			c-0.531,0.147-1.089,0.222-1.667,0.222c-0.407,0-0.804-0.037-1.189-0.11c0.804,2.512,3.14,4.341,5.907,4.39
			c-2.164,1.697-4.892,2.708-7.854,2.708c-0.51,0-1.015-0.027-1.509-0.086c2.798,1.792,6.123,2.84,9.695,2.84
			c11.635,0,17.994-9.636,17.994-17.995c0-0.273-0.006-0.549-0.019-0.817C28.907,8.552,29.982,7.438,30.826,6.17"/>
		<path fill="#D8D8D8" d="M51.002,28.257h-6V9.061h6V28.257z M47.847,6.659h-0.043c-2.17,0-3.577-1.47-3.577-3.326
			c0-1.896,1.45-3.333,3.664-3.333c2.213,0,3.574,1.435,3.616,3.328C51.507,5.188,50.104,6.659,47.847,6.659z M75,28.257h-6.801
			v-9.934c0-2.603-1.062-4.374-3.404-4.374c-1.789,0-2.782,1.195-3.247,2.353c-0.174,0.413-0.148,0.99-0.148,1.568v10.386h-6.737
			c0,0,0.087-17.594,0-19.196H61.4v3.015c0.4-1.316,2.553-3.196,5.989-3.196c4.262,0,7.61,2.76,7.61,8.706L75,28.257L75,28.257z"/>
	</g>
	<g id="icons_x5F_unsorted">
		<g>
			<path fill="#777777" d="M56.43,111.848H3.157c-1.74,0-3.157-1.417-3.157-3.16V40.006c0-1.741,1.417-3.159,3.157-3.159h44.662
				c1.741,0,3.158,1.417,3.158,3.159v4.104c0,0.58,0.473,1.055,1.055,1.055h4.398c1.743,0,3.16,1.417,3.16,3.158v60.362
				C59.59,110.431,58.173,111.848,56.43,111.848z M3.157,38.954c-0.579,0-1.053,0.472-1.053,1.053v68.682
				c0,0.582,0.474,1.058,1.053,1.058H56.43c0.581,0,1.055-0.476,1.055-1.058V48.324c0-0.581-0.474-1.055-1.055-1.055h-4.398
				c-1.743,0-3.16-1.417-3.16-3.158v-4.104c0-0.581-0.473-1.053-1.053-1.053H3.157z"/>
		</g>
		<path fill="#777777" d="M58.68,46.11c0.695,0.677,0.938,1.556,0.54,1.966l0,0c-0.396,0.405-1.285,0.191-1.979-0.479L48.98,39.58
			c-0.696-0.677-0.937-1.556-0.541-1.961l0,0c0.398-0.41,1.283-0.197,1.979,0.477L58.68,46.11z"/>
		<g>
			<path fill="#777777" d="M19.524,80.188c0.211,0,0.389,0.072,0.537,0.222c0.148,0.146,0.223,0.326,0.223,0.536
				c0,0.214-0.078,0.392-0.235,0.537c-0.155,0.147-0.329,0.222-0.524,0.222c-0.192,0-0.368-0.072-0.523-0.222
				c-0.157-0.146-0.234-0.323-0.234-0.537c0-0.21,0.074-0.391,0.221-0.536C19.136,80.261,19.313,80.188,19.524,80.188z"/>
			<path fill="#777777" d="M22.166,75.715h0.985v0.86h0.025c0.269-0.321,0.582-0.568,0.941-0.747
				c0.356-0.178,0.75-0.266,1.182-0.266c0.463,0,0.884,0.077,1.27,0.232c0.383,0.155,0.708,0.373,0.978,0.65
				c0.269,0.275,0.481,0.604,0.631,0.984c0.153,0.378,0.228,0.791,0.228,1.238c0,0.444-0.075,0.857-0.228,1.235
				c-0.15,0.381-0.359,0.709-0.623,0.986c-0.266,0.277-0.58,0.495-0.941,0.649c-0.362,0.154-0.75,0.233-1.164,0.233
				c-0.53,0-0.995-0.114-1.396-0.35c-0.398-0.229-0.693-0.514-0.877-0.854h-0.025v3.932h-0.985L22.166,75.715L22.166,75.715z
				 M23.151,78.672c0,0.311,0.049,0.601,0.145,0.864c0.098,0.266,0.238,0.499,0.424,0.693c0.184,0.199,0.406,0.354,0.662,0.47
				c0.259,0.111,0.545,0.171,0.867,0.171c0.32,0,0.607-0.06,0.866-0.171c0.256-0.114,0.476-0.271,0.662-0.47
				c0.187-0.194,0.326-0.43,0.424-0.693c0.096-0.266,0.145-0.556,0.145-0.864c0-0.312-0.049-0.6-0.145-0.865
				c-0.098-0.268-0.237-0.497-0.424-0.696c-0.186-0.194-0.406-0.354-0.662-0.468c-0.259-0.114-0.545-0.168-0.866-0.168
				s-0.608,0.054-0.867,0.168c-0.256,0.114-0.478,0.271-0.662,0.468c-0.186,0.199-0.326,0.431-0.424,0.696
				C23.2,78.073,23.151,78.36,23.151,78.672z"/>
			<path fill="#777777" d="M34.848,80.579h-0.025c-0.184,0.339-0.479,0.623-0.877,0.853c-0.4,0.233-0.866,0.352-1.396,0.352
				c-0.414,0-0.802-0.08-1.163-0.235c-0.363-0.154-0.676-0.372-0.942-0.649c-0.264-0.276-0.474-0.605-0.625-0.985
				c-0.15-0.377-0.226-0.791-0.226-1.236c0-0.447,0.075-0.86,0.226-1.238c0.151-0.38,0.361-0.709,0.633-0.983
				c0.269-0.278,0.595-0.496,0.978-0.651c0.386-0.155,0.807-0.231,1.27-0.231c0.429,0,0.825,0.089,1.182,0.265
				c0.359,0.179,0.673,0.426,0.941,0.747h0.025v-4.5h0.985v9.552h-0.985L34.848,80.579L34.848,80.579z M34.848,78.672
				c0-0.312-0.049-0.6-0.145-0.865c-0.099-0.268-0.238-0.497-0.424-0.696c-0.187-0.194-0.406-0.354-0.662-0.468
				c-0.259-0.114-0.546-0.168-0.866-0.168s-0.608,0.054-0.866,0.168c-0.256,0.114-0.479,0.271-0.662,0.468
				c-0.187,0.199-0.328,0.431-0.424,0.696c-0.096,0.268-0.146,0.553-0.146,0.865c0,0.311,0.05,0.601,0.146,0.864
				c0.096,0.266,0.237,0.499,0.424,0.693c0.184,0.199,0.406,0.354,0.662,0.47c0.258,0.111,0.546,0.171,0.866,0.171
				s0.607-0.06,0.866-0.171c0.256-0.114,0.476-0.271,0.662-0.47c0.186-0.194,0.325-0.43,0.424-0.693
				C34.799,79.273,34.848,78.983,34.848,78.672z"/>
			<path fill="#777777" d="M38.171,76.55h-1.288v-0.835h1.288v-1.328c0-0.361,0.033-0.692,0.101-0.989
				c0.067-0.3,0.184-0.559,0.347-0.776c0.165-0.22,0.383-0.391,0.651-0.514c0.269-0.122,0.603-0.182,0.999-0.182
				c0.127,0,0.261,0.013,0.403,0.036c0.145,0.026,0.262,0.062,0.354,0.113l-0.139,0.886c-0.236-0.083-0.458-0.128-0.67-0.128
				c-0.251,0-0.451,0.048-0.593,0.135c-0.145,0.088-0.25,0.21-0.322,0.365c-0.073,0.157-0.115,0.344-0.128,0.562
				c-0.013,0.221-0.019,0.455-0.019,0.706v1.112h1.441v0.835h-1.441v5.077h-0.984V76.55z"/>
		</g>
		<path fill="none" stroke="#777777" stroke-width="2.1056" stroke-miterlimit="10" d="M44.598,89.872v4.044h6.611V59.7H8.908
			v34.216h21.413v-4.044"/>
		<polyline fill="none" stroke="#777777" stroke-width="2.1056" stroke-miterlimit="10" points="30.321,90.138 30.321,89.872 
			12.95,89.872 12.95,63.49 47.524,63.49 47.524,89.872 44.598,89.872 44.598,90.303 		"/>
		<g>
			<path fill="#777777" d="M40.39,92.028c0.14,0.078,0.144,0.215,0.008,0.301l-5.1,3.238c-0.136,0.086-0.264,0.026-0.284-0.133
				l-0.878-6.664c-0.021-0.159,0.076-0.225,0.216-0.146L40.39,92.028z"/>
		</g>
		<path fill="#555555" stroke="#221F1F" stroke-width="2.1056" stroke-miterlimit="10" d="M45.226,89.89"/>
		<path fill="#555555" stroke="#221F1F" stroke-width="2.1056" stroke-miterlimit="10" d="M43.579,89.89"/>
		<g>
			<path fill="#777777" d="M39.995,95.922c0.124,0.197,0.062,0.46-0.135,0.584l-0.592,0.37c-0.197,0.124-0.46,0.062-0.584-0.135
				l-1.555-2.49c-0.124-0.197-0.062-0.46,0.135-0.583l0.595-0.369c0.197-0.123,0.46-0.062,0.584,0.136L39.995,95.922z"/>
		</g>
	</g>
</g>
<g id="Capa_1_1_">
	<g>
		<g>
			<path fill="#D8D8D8" d="M100.537,4.474c5.727,0,10.385,4.659,10.385,10.385c0,5.727-4.658,10.386-10.385,10.386
				s-10.385-4.659-10.385-10.386C90.152,9.133,94.811,4.474,100.537,4.474 M100.537,1.359c-7.456,0-13.5,6.044-13.5,13.5
				s6.044,13.5,13.5,13.5s13.5-6.044,13.5-13.5S107.993,1.359,100.537,1.359L100.537,1.359z"/>
		</g>
		<path fill="none" stroke="#D8D8D8" stroke-width="3.1154" stroke-miterlimit="10" d="M96.072,3.684c0,0,6.23,5.972,10.646,21.808"
			/>
		<path fill="none" stroke="#D8D8D8" stroke-width="3.1154" stroke-miterlimit="10" d="M92.178,22.635
			c0,0,10.125-10.787,18.952-6.951l0.865,0.722"/>
		<path fill="none" stroke="#D8D8D8" stroke-width="3.1154" stroke-miterlimit="10" d="M89.322,12.77c0,0,14.021,0.261,19.472-5.971
			"/>
	</g>
</g>
<path fill="none" stroke="#D8D8D8" stroke-width="7" stroke-linecap="round" stroke-miterlimit="10" d="M82.447,85.437L98.004,69.88
	c1.167-1.167,3.075-1.167,4.242,0l15.557,15.557"/>
<g>
	<path fill="#D8D8D8" d="M90.105,106.348h-1.867v-9.82h-3.359v-1.602h8.586v1.602h-3.359V106.348z"/>
	<path fill="#D8D8D8" d="M105.355,100.621c0,1.859-0.465,3.305-1.395,4.336s-2.246,1.547-3.949,1.547
		c-1.725,0-3.049-0.512-3.973-1.535c-0.926-1.023-1.387-2.478-1.387-4.363c0-1.885,0.465-3.333,1.395-4.344
		c0.93-1.01,2.256-1.516,3.98-1.516c1.697,0,3.01,0.514,3.938,1.539C104.891,97.312,105.355,98.757,105.355,100.621z
		 M96.637,100.621c0,1.406,0.283,2.473,0.852,3.199c0.566,0.727,1.408,1.09,2.523,1.09c1.109,0,1.945-0.359,2.512-1.078
		c0.564-0.719,0.848-1.789,0.848-3.211c0-1.4-0.281-2.463-0.84-3.188c-0.561-0.724-1.395-1.086-2.504-1.086
		c-1.121,0-1.965,0.362-2.535,1.086C96.922,98.158,96.637,99.221,96.637,100.621z"/>
	<path fill="#D8D8D8" d="M115.371,98.379c0,1.193-0.391,2.107-1.172,2.742c-0.781,0.636-1.895,0.953-3.336,0.953h-1.188v4.273
		h-1.867V94.926h3.289c1.426,0,2.496,0.292,3.207,0.875C115.016,96.385,115.371,97.244,115.371,98.379z M109.676,100.504h0.992
		c0.957,0,1.66-0.166,2.109-0.5c0.447-0.333,0.672-0.854,0.672-1.562c0-0.656-0.201-1.146-0.602-1.469
		c-0.402-0.322-1.027-0.484-1.875-0.484h-1.297V100.504z"/>
</g>
</svg>
