<?xml version="1.0" encoding="utf-8"?>
<!-- Generator: Adobe Illustrator 16.0.0, SVG Export Plug-In . SVG Version: 6.00 Build 0)  -->
<!DOCTYPE svg PUBLIC "-//W3C//DTD SVG 1.1//EN" "http://www.w3.org/Graphics/SVG/1.1/DTD/svg11.dtd">
<svg version="1.1" xmlns="http://www.w3.org/2000/svg" xmlns:xlink="http://www.w3.org/1999/xlink" x="0px" y="0px"
	 width="289.736px" height="64px" viewBox="0 0 289.736 64" enable-background="new 0 0 289.736 64" xml:space="preserve">
<g id="Layer_1">
	<path fill="#ADD79E" d="M37.622,0H12.093C8.29,0,5.389,0.684,3.193,2.928C0.999,5.172,0,7.953,0,12.146v25.456
		c0,3.658,0.803,6.512,2.608,8.56c0.779,0.877,1.95,2.369,3.609,3.076C7.875,49.945,9.8,51,12.093,51h15.729
		c3.071,0,5.699-1.492,7.893-3.076C37.909,46.338,39,43.019,39,39.358V12h-0.403H20.652c-2.586,0-5.02,0.547-6.801,2.16
		C12.071,15.768,11,17.56,11,20.046v3.879c0,2.973,1.083,6.011,2.74,7.769C15.397,33.449,17.969,35,20.944,35h12.802
		c0.048,0,0.073,2.703,0.073,3.629c0,0.143-0.002,0.371-0.002,0.371h0.01c0,0-0.013-0.007-0.013,0.062
		c-0.006,0.299-0.018,0.382-0.036,0.448c-0.017,0.242-0.021,0.459-0.055,0.681c-0.069,0.952-0.303,1.71-0.692,2.17
		c-0.979,1.645-2.91,2.64-6.079,2.64H12.482c-2.156,0-3.614-0.588-4.858-1.611C6.38,42.363,6,40.821,6,38.908v-1.306v-4.224V12.146
		C6,7.125,7.508,6,12.093,6h25.529c2.878,0,5.274-0.097,6.348,1.099C45.043,8.291,46,9.513,46,12.146v37.455
		c0,2.729-1.104,4.288-2.469,5.705c-1.365,1.413-4.042,3.012-6.334,3.012L8.535,58.22L8.471,63.99L8.447,64h0.113h19.772
		c0.292,0,0.56,0,0.805,0h8.483c4,0,7.371-1.628,9.689-3.947C49.627,57.739,51,54.038,51,49.602V12.146C51,3.468,46.254,0,37.622,0z
		 M34,25.098v3.671l-11.59,0.057c-2.781,0-5.41-0.757-5.41-3.535v-2.88c0-2.906-0.894-4.41,5.327-4.41h6.95h1.036H34V25.098z"/>
	<g>
		<path fill="#7BCBBD" d="M14.753,15.421v0.011c-0.091-0.008-0.183-0.011-0.278-0.011H14.753z"/>
	</g>
</g>
<g id="Layer_2">
	<g>
		<path fill="#999999" d="M90.078,44.599c0,3.202-0.466,5.789-1.396,7.764c-0.932,1.973-2.095,3.499-3.491,4.579
			s-2.896,1.806-4.496,2.179c-1.601,0.371-3.053,0.559-4.355,0.559c-1.304,0-2.579-0.122-3.826-0.363
			c-1.248-0.243-2.43-0.597-3.546-1.062c-1.117-0.466-2.133-1.033-3.044-1.703c-0.913-0.67-1.704-1.434-2.374-2.29l2.625-2.457
			c1.191,1.675,2.681,2.904,4.468,3.686c1.787,0.782,3.687,1.173,5.697,1.173c1.712,0,3.155-0.223,4.328-0.67
			c1.173-0.446,2.141-1.033,2.904-1.759c0.763-0.727,1.358-1.527,1.787-2.402c0.428-0.875,0.744-1.75,0.949-2.625
			c0.204-0.875,0.325-1.703,0.363-2.484c0.036-0.782,0.056-1.415,0.056-1.899v-3.574h-0.112c-0.968,1.563-2.28,2.792-3.937,3.686
			c-1.657,0.894-3.603,1.341-5.837,1.341c-1.898,0-3.686-0.344-5.361-1.033c-1.676-0.688-3.137-1.638-4.384-2.849
			c-1.248-1.209-2.234-2.615-2.96-4.217c-0.727-1.6-1.09-3.312-1.09-5.138c0-1.824,0.363-3.537,1.09-5.138
			c0.726-1.601,1.712-2.997,2.96-4.189c1.247-1.19,2.708-2.141,4.384-2.848s3.463-1.062,5.361-1.062c2.234,0,4.18,0.447,5.837,1.341
			c1.656,0.894,2.969,2.122,3.937,3.686h0.112v-4.356h3.351V44.599z M86.839,33.038c0-1.414-0.271-2.745-0.81-3.993
			c-0.54-1.247-1.267-2.326-2.178-3.239c-0.913-0.912-1.992-1.638-3.239-2.178c-1.248-0.54-2.579-0.811-3.993-0.811
			c-1.416,0-2.747,0.271-3.994,0.811s-2.327,1.266-3.239,2.178c-0.912,0.913-1.639,1.992-2.178,3.239
			c-0.54,1.248-0.81,2.579-0.81,3.993c0,1.415,0.27,2.746,0.81,3.993c0.539,1.248,1.266,2.327,2.178,3.239
			c0.912,0.913,1.992,1.639,3.239,2.178c1.247,0.541,2.578,0.811,3.994,0.811c1.414,0,2.745-0.27,3.993-0.811
			c1.247-0.539,2.326-1.265,3.239-2.178c0.911-0.912,1.638-1.991,2.178-3.239C86.568,35.784,86.839,34.453,86.839,33.038z"/>
		<path fill="#999999" d="M98.288,27.732c0-0.483-0.019-1.07-0.056-1.759c-0.037-0.689-0.065-1.387-0.084-2.095
			c-0.019-0.707-0.047-1.368-0.084-1.982s-0.056-1.09-0.056-1.425h3.352c0.036,0.969,0.064,1.899,0.083,2.793
			s0.065,1.471,0.14,1.731c0.856-1.526,1.955-2.773,3.296-3.742c1.34-0.968,2.978-1.452,4.914-1.452
			c0.335,0,0.661,0.028,0.978,0.084s0.643,0.121,0.978,0.195l-0.391,3.295c-0.447-0.148-0.876-0.224-1.285-0.224
			c-1.452,0-2.708,0.233-3.77,0.698c-1.062,0.466-1.937,1.108-2.625,1.927c-0.689,0.819-1.201,1.778-1.536,2.877
			s-0.502,2.28-0.502,3.546v14.074h-3.352V27.732z"/>
		<path fill="#999999" d="M138.667,41.415c-1.304,1.975-2.914,3.389-4.831,4.245c-1.918,0.856-4.031,1.284-6.339,1.284
			c-1.975,0-3.762-0.335-5.362-1.005s-2.979-1.61-4.133-2.82s-2.038-2.644-2.652-4.301c-0.614-1.656-0.922-3.49-0.922-5.501
			c0-1.936,0.316-3.723,0.949-5.361s1.526-3.062,2.682-4.272c1.153-1.21,2.513-2.159,4.076-2.849
			c1.564-0.688,3.296-1.033,5.194-1.033c1.974,0,3.714,0.345,5.222,1.033c1.508,0.689,2.773,1.602,3.798,2.736
			c1.023,1.137,1.796,2.43,2.318,3.882c0.521,1.452,0.781,2.924,0.781,4.412v2.346h-21.669c0,0.708,0.14,1.611,0.419,2.709
			c0.279,1.099,0.79,2.169,1.535,3.211c0.745,1.043,1.74,1.937,2.988,2.681c1.247,0.745,2.857,1.117,4.831,1.117
			c1.712,0,3.369-0.409,4.971-1.229c1.601-0.818,2.829-1.936,3.686-3.352L138.667,41.415z M136.098,31.195
			c0-1.154-0.233-2.234-0.698-3.239c-0.466-1.006-1.099-1.89-1.898-2.653c-0.802-0.763-1.751-1.368-2.849-1.814
			c-1.099-0.447-2.262-0.671-3.49-0.671c-1.825,0-3.343,0.373-4.552,1.117c-1.211,0.745-2.17,1.602-2.877,2.569
			c-0.707,0.969-1.21,1.908-1.508,2.82c-0.298,0.913-0.446,1.536-0.446,1.871H136.098z"/>
		<path fill="#999999" d="M172.847,44.599c0,3.202-0.466,5.789-1.396,7.764c-0.932,1.973-2.095,3.499-3.491,4.579
			s-2.896,1.806-4.496,2.179c-1.601,0.371-3.053,0.559-4.355,0.559c-1.304,0-2.579-0.122-3.826-0.363
			c-1.248-0.243-2.43-0.597-3.546-1.062c-1.117-0.466-2.133-1.033-3.044-1.703c-0.913-0.67-1.704-1.434-2.374-2.29l2.625-2.457
			c1.191,1.675,2.681,2.904,4.468,3.686c1.787,0.782,3.687,1.173,5.697,1.173c1.712,0,3.155-0.223,4.328-0.67
			c1.173-0.446,2.141-1.033,2.904-1.759c0.763-0.727,1.358-1.527,1.787-2.402c0.428-0.875,0.744-1.75,0.949-2.625
			c0.204-0.875,0.325-1.703,0.363-2.484c0.036-0.782,0.056-1.415,0.056-1.899v-3.574h-0.112c-0.968,1.563-2.28,2.792-3.937,3.686
			c-1.657,0.894-3.603,1.341-5.837,1.341c-1.898,0-3.686-0.344-5.361-1.033c-1.676-0.688-3.137-1.638-4.384-2.849
			c-1.248-1.209-2.234-2.615-2.96-4.217c-0.727-1.6-1.09-3.312-1.09-5.138c0-1.824,0.363-3.537,1.09-5.138
			c0.726-1.601,1.712-2.997,2.96-4.189c1.247-1.19,2.708-2.141,4.384-2.848s3.463-1.062,5.361-1.062c2.234,0,4.18,0.447,5.837,1.341
			c1.656,0.894,2.969,2.122,3.937,3.686h0.112v-4.356h3.351V44.599z M169.607,33.038c0-1.414-0.271-2.745-0.81-3.993
			c-0.54-1.247-1.267-2.326-2.178-3.239c-0.913-0.912-1.992-1.638-3.239-2.178c-1.248-0.54-2.579-0.811-3.993-0.811
			c-1.416,0-2.747,0.271-3.994,0.811s-2.327,1.266-3.239,2.178c-0.912,0.913-1.639,1.992-2.178,3.239
			c-0.54,1.248-0.81,2.579-0.81,3.993c0,1.415,0.27,2.746,0.81,3.993c0.539,1.248,1.266,2.327,2.178,3.239
			c0.912,0.913,1.992,1.639,3.239,2.178c1.247,0.541,2.578,0.811,3.994,0.811c1.414,0,2.745-0.27,3.993-0.811
			c1.247-0.539,2.326-1.265,3.239-2.178c0.911-0.912,1.638-1.991,2.178-3.239C169.337,35.784,169.607,34.453,169.607,33.038z"/>
		<path fill="#999999" d="M184.966,4.053h3.351v42.222h-3.351V4.053z"/>
		<path fill="#999999" d="M197.587,10.252c0-0.707,0.242-1.304,0.727-1.787c0.483-0.484,1.079-0.727,1.787-0.727
			c0.707,0,1.303,0.242,1.787,0.727c0.483,0.483,0.726,1.08,0.726,1.787s-0.242,1.304-0.726,1.787
			c-0.484,0.484-1.08,0.726-1.787,0.726c-0.708,0-1.304-0.241-1.787-0.726C197.829,11.556,197.587,10.959,197.587,10.252z
			 M198.425,20.472h3.351v25.803h-3.351V20.472z"/>
		<path fill="#999999" d="M211.828,4.053h3.351v42.222h-3.351V4.053z"/>
		<path fill="#999999" d="M225.286,4.053h3.351v42.222h-3.351V4.053z"/>
		<path fill="#999999" d="M260.918,41.415c-1.304,1.975-2.914,3.389-4.831,4.245c-1.918,0.856-4.031,1.284-6.339,1.284
			c-1.975,0-3.762-0.335-5.362-1.005s-2.979-1.61-4.133-2.82s-2.038-2.644-2.652-4.301c-0.614-1.656-0.922-3.49-0.922-5.501
			c0-1.936,0.316-3.723,0.949-5.361s1.526-3.062,2.682-4.272c1.153-1.21,2.513-2.159,4.076-2.849
			c1.564-0.688,3.296-1.033,5.194-1.033c1.974,0,3.714,0.345,5.222,1.033c1.508,0.689,2.773,1.602,3.798,2.736
			c1.023,1.137,1.796,2.43,2.318,3.882c0.521,1.452,0.781,2.924,0.781,4.412v2.346H240.03c0,0.708,0.14,1.611,0.419,2.709
			c0.279,1.099,0.79,2.169,1.535,3.211c0.745,1.043,1.74,1.937,2.988,2.681c1.247,0.745,2.857,1.117,4.831,1.117
			c1.712,0,3.369-0.409,4.971-1.229c1.601-0.818,2.829-1.936,3.686-3.352L260.918,41.415z M258.349,31.195
			c0-1.154-0.233-2.234-0.698-3.239c-0.466-1.006-1.099-1.89-1.898-2.653c-0.802-0.763-1.751-1.368-2.849-1.814
			c-1.099-0.447-2.262-0.671-3.49-0.671c-1.825,0-3.343,0.373-4.552,1.117c-1.211,0.745-2.17,1.602-2.877,2.569
			c-0.707,0.969-1.21,1.908-1.508,2.82c-0.298,0.913-0.446,1.536-0.446,1.871H258.349z"/>
		<path fill="#999999" d="M276.444,54.261c-0.634,1.676-1.508,2.997-2.625,3.966c-1.117,0.968-2.606,1.452-4.468,1.452
			c-0.559,0-1.117-0.048-1.676-0.14c-0.559-0.094-1.099-0.215-1.619-0.363l0.335-3.128c0.483,0.148,0.978,0.288,1.479,0.419
			c0.503,0.13,1.015,0.195,1.536,0.195c0.595,0,1.126-0.131,1.592-0.391c0.465-0.261,0.865-0.596,1.2-1.005
			c0.336-0.41,0.623-0.866,0.866-1.369c0.241-0.502,0.455-1.015,0.643-1.535l2.346-5.977l-10.5-25.914h3.742l8.545,21.726
			l8.321-21.726h3.574L276.444,54.261z"/>
	</g>
</g>
</svg>
