<?xml version="1.0" encoding="utf-8"?>
<!-- Generator: Adobe Illustrator 16.0.0, SVG Export Plug-In . SVG Version: 6.00 Build 0)  -->
<!DOCTYPE svg PUBLIC "-//W3C//DTD SVG 1.1//EN" "http://www.w3.org/Graphics/SVG/1.1/DTD/svg11.dtd">
<svg version="1.1" id="Layer_1" xmlns="http://www.w3.org/2000/svg" xmlns:xlink="http://www.w3.org/1999/xlink" x="0px" y="0px"
	 width="125.125px" height="111.848px" viewBox="0 0 125.125 111.848" enable-background="new 0 0 125.125 111.848"
	 xml:space="preserve">
<g id="Layer_1_1_">
</g>
<g>
	<path fill="#444444" d="M50.583,26h-5.309V9.017h5.309V26z M47.791,6.892h-0.037c-1.92,0-3.165-1.302-3.165-2.943
		C44.589,2.271,45.871,1,47.83,1s3.162,1.27,3.199,2.944C51.029,5.59,49.788,6.892,47.791,6.892z M71.814,26h-6.016v-8.789
		c0-2.304-0.941-3.87-3.015-3.87c-1.581,0-2.46,1.058-2.872,2.082c-0.154,0.364-0.131,0.875-0.131,1.387v9.189h-5.96
		c0,0,0.077-15.565,0-16.983h5.96v2.668c0.354-1.165,2.259-2.828,5.298-2.828c3.771,0,6.733,2.442,6.733,7.703L71.814,26L71.814,26z
		"/>
</g>
<g id="icons_x5F_unsorted">
	<g>
		<path fill="#777777" d="M56.43,111.848H3.157c-1.74,0-3.157-1.417-3.157-3.16V40.006c0-1.741,1.417-3.159,3.157-3.159h44.662
			c1.741,0,3.158,1.417,3.158,3.159v4.104c0,0.58,0.473,1.056,1.055,1.056h4.398c1.743,0,3.16,1.417,3.16,3.158v60.361
			C59.59,110.431,58.173,111.848,56.43,111.848z M3.157,38.954c-0.579,0-1.053,0.472-1.053,1.053v68.682
			c0,0.582,0.474,1.059,1.053,1.059H56.43c0.581,0,1.055-0.477,1.055-1.059V48.324c0-0.581-0.474-1.056-1.055-1.056h-4.398
			c-1.743,0-3.16-1.417-3.16-3.158v-4.104c0-0.581-0.473-1.053-1.053-1.053H3.157z"/>
	</g>
	<path fill="#777777" d="M58.68,46.11c0.695,0.678,0.938,1.557,0.54,1.967l0,0c-0.396,0.404-1.285,0.19-1.979-0.479L48.98,39.58
		c-0.696-0.678-0.937-1.557-0.541-1.961l0,0c0.398-0.41,1.283-0.197,1.979,0.477L58.68,46.11z"/>
	<g>
		<path fill="#777777" d="M19.524,80.188c0.211,0,0.389,0.072,0.537,0.223c0.148,0.146,0.223,0.325,0.223,0.535
			c0,0.215-0.078,0.393-0.235,0.537c-0.155,0.147-0.329,0.223-0.524,0.223c-0.192,0-0.368-0.072-0.523-0.223
			c-0.157-0.146-0.234-0.322-0.234-0.537c0-0.21,0.074-0.391,0.221-0.535C19.136,80.261,19.313,80.188,19.524,80.188z"/>
		<path fill="#777777" d="M22.166,75.715h0.985v0.86h0.025c0.269-0.321,0.582-0.568,0.941-0.747c0.356-0.179,0.75-0.267,1.182-0.267
			c0.463,0,0.884,0.077,1.27,0.232c0.383,0.155,0.708,0.373,0.978,0.649c0.269,0.275,0.481,0.604,0.631,0.984
			c0.153,0.378,0.228,0.791,0.228,1.238c0,0.443-0.075,0.856-0.228,1.234c-0.15,0.382-0.359,0.709-0.623,0.986
			c-0.266,0.277-0.58,0.495-0.941,0.649c-0.362,0.153-0.75,0.232-1.164,0.232c-0.53,0-0.995-0.113-1.396-0.35
			c-0.398-0.229-0.693-0.514-0.877-0.854h-0.025v3.933h-0.985L22.166,75.715L22.166,75.715z M23.151,78.672
			c0,0.311,0.049,0.601,0.145,0.864c0.098,0.266,0.238,0.499,0.424,0.692c0.184,0.199,0.406,0.354,0.662,0.471
			c0.259,0.11,0.545,0.171,0.867,0.171c0.32,0,0.607-0.061,0.866-0.171c0.256-0.114,0.476-0.271,0.662-0.471
			c0.187-0.193,0.326-0.43,0.424-0.692c0.096-0.267,0.145-0.557,0.145-0.864c0-0.312-0.049-0.6-0.145-0.865
			c-0.098-0.268-0.237-0.497-0.424-0.696c-0.186-0.193-0.406-0.354-0.662-0.468c-0.259-0.114-0.545-0.168-0.866-0.168
			s-0.608,0.054-0.867,0.168c-0.256,0.114-0.478,0.271-0.662,0.468c-0.186,0.199-0.326,0.432-0.424,0.696
			C23.2,78.073,23.151,78.36,23.151,78.672z"/>
		<path fill="#777777" d="M34.848,80.579h-0.025c-0.184,0.339-0.479,0.623-0.877,0.853c-0.4,0.233-0.866,0.353-1.396,0.353
			c-0.414,0-0.802-0.08-1.163-0.235c-0.363-0.154-0.676-0.372-0.942-0.649c-0.264-0.275-0.474-0.604-0.625-0.984
			c-0.15-0.377-0.226-0.791-0.226-1.236c0-0.447,0.075-0.86,0.226-1.238c0.151-0.38,0.361-0.709,0.633-0.982
			c0.269-0.278,0.595-0.496,0.978-0.651c0.386-0.155,0.807-0.23,1.27-0.23c0.429,0,0.825,0.089,1.182,0.265
			c0.359,0.179,0.673,0.426,0.941,0.747h0.025v-4.5h0.985v9.552h-0.985L34.848,80.579L34.848,80.579z M34.848,78.672
			c0-0.312-0.049-0.6-0.145-0.865c-0.099-0.268-0.238-0.497-0.424-0.696c-0.187-0.193-0.406-0.354-0.662-0.468
			c-0.259-0.114-0.546-0.168-0.866-0.168s-0.608,0.054-0.866,0.168c-0.256,0.114-0.479,0.271-0.662,0.468
			c-0.187,0.199-0.328,0.432-0.424,0.696c-0.096,0.269-0.146,0.553-0.146,0.865c0,0.311,0.05,0.601,0.146,0.864
			c0.096,0.266,0.237,0.499,0.424,0.692c0.184,0.199,0.406,0.354,0.662,0.471c0.258,0.11,0.546,0.171,0.866,0.171
			s0.607-0.061,0.866-0.171c0.256-0.114,0.476-0.271,0.662-0.471c0.186-0.193,0.325-0.43,0.424-0.692
			C34.799,79.273,34.848,78.983,34.848,78.672z"/>
		<path fill="#777777" d="M38.171,76.55h-1.288v-0.835h1.288v-1.328c0-0.361,0.033-0.692,0.101-0.989
			c0.067-0.3,0.184-0.559,0.347-0.775c0.165-0.221,0.383-0.392,0.651-0.515c0.269-0.122,0.603-0.182,0.999-0.182
			c0.127,0,0.261,0.013,0.403,0.036c0.145,0.026,0.262,0.062,0.354,0.113l-0.139,0.886c-0.236-0.083-0.458-0.128-0.67-0.128
			c-0.251,0-0.451,0.048-0.593,0.135c-0.145,0.088-0.25,0.21-0.322,0.365c-0.073,0.157-0.115,0.344-0.128,0.562
			c-0.013,0.222-0.019,0.455-0.019,0.706v1.112h1.441v0.835h-1.441v5.077h-0.984V76.55z"/>
	</g>
	
		<path fill="none" stroke="#777777" stroke-width="2.1056" stroke-linecap="round" stroke-linejoin="round" stroke-miterlimit="10" d="
		M44.598,93.916h6.611V59.7H8.908v34.216h21.413"/>
	
		<path fill="none" stroke="#777777" stroke-width="2.1056" stroke-linecap="round" stroke-linejoin="round" stroke-miterlimit="10" d="
		M47.524,89.872"/>
	
		<path fill="none" stroke="#777777" stroke-width="2.1056" stroke-linecap="round" stroke-linejoin="round" stroke-miterlimit="10" d="
		M47.524,63.49"/>
	
		<path fill="none" stroke="#777777" stroke-width="2.1056" stroke-linecap="round" stroke-linejoin="round" stroke-miterlimit="10" d="
		M12.95,63.49"/>
	
		<path fill="none" stroke="#777777" stroke-width="2.1056" stroke-linecap="round" stroke-linejoin="round" stroke-miterlimit="10" d="
		M12.95,89.872"/>
	<g>
		<path fill="#777777" d="M40.39,92.028c0.14,0.078,0.144,0.216,0.008,0.302l-5.1,3.237c-0.136,0.086-0.264,0.026-0.284-0.133
			l-0.878-6.664c-0.021-0.159,0.076-0.225,0.216-0.146L40.39,92.028z"/>
	</g>
	
		<path fill="#555555" stroke="#221F1F" stroke-width="2.1056" stroke-linecap="round" stroke-linejoin="round" stroke-miterlimit="10" d="
		M43.579,89.89"/>
	<g>
		<path fill="#777777" d="M39.995,95.922c0.124,0.197,0.062,0.46-0.135,0.584l-0.592,0.37c-0.197,0.124-0.46,0.062-0.584-0.135
			l-1.555-2.49c-0.124-0.197-0.062-0.46,0.135-0.583l0.595-0.369c0.197-0.123,0.46-0.062,0.584,0.136L39.995,95.922z"/>
	</g>
</g>
<path fill="none" stroke="#D8D8D8" stroke-width="7" stroke-linecap="round" stroke-miterlimit="10" d="M82.447,85.437L98.004,69.88
	c1.167-1.167,3.075-1.167,4.242,0l15.557,15.557"/>
<g>
	<path fill="#D8D8D8" d="M90.105,106.348h-1.867v-9.82h-3.359v-1.602h8.586v1.602h-3.359V106.348L90.105,106.348z"/>
	<path fill="#D8D8D8" d="M105.355,100.621c0,1.858-0.465,3.305-1.396,4.336c-0.931,1.03-2.246,1.547-3.948,1.547
		c-1.726,0-3.05-0.512-3.974-1.535c-0.927-1.023-1.388-2.478-1.388-4.363c0-1.885,0.466-3.333,1.396-4.344
		c0.931-1.01,2.256-1.516,3.979-1.516c1.697,0,3.011,0.514,3.938,1.539C104.891,97.312,105.355,98.757,105.355,100.621z
		 M96.637,100.621c0,1.405,0.283,2.473,0.852,3.198c0.566,0.728,1.408,1.091,2.523,1.091c1.109,0,1.945-0.359,2.512-1.078
		c0.564-0.72,0.849-1.789,0.849-3.211c0-1.4-0.281-2.463-0.84-3.188c-0.562-0.724-1.396-1.086-2.505-1.086
		c-1.12,0-1.965,0.362-2.534,1.086C96.922,98.158,96.637,99.221,96.637,100.621z"/>
	<path fill="#D8D8D8" d="M115.371,98.379c0,1.193-0.391,2.106-1.172,2.742s-1.895,0.953-3.336,0.953h-1.188v4.272h-1.866V94.926
		h3.289c1.426,0,2.495,0.292,3.207,0.875C115.016,96.385,115.371,97.244,115.371,98.379z M109.676,100.504h0.992
		c0.957,0,1.66-0.166,2.109-0.5c0.447-0.333,0.672-0.854,0.672-1.562c0-0.655-0.201-1.146-0.602-1.469
		c-0.402-0.322-1.027-0.483-1.875-0.483h-1.298L109.676,100.504L109.676,100.504z"/>
</g>
<g>
	<path fill="#231F20" d="M20.625,11.615c0.859-2.333,1.529-4.259,2.01-5.779c0.481-1.519,0.721-2.452,0.721-2.798
		c0-0.372-0.08-0.66-0.24-0.866c-0.161-0.205-0.382-0.308-0.664-0.308c-0.359,0-0.725,0.298-1.096,0.895
		c-0.372,0.596-0.782,1.555-1.231,2.875l-1.923,5.558L20.625,11.615L20.625,11.615z M18.067,16.789
		c-0.551-0.026-1.074-0.083-1.567-0.173c-0.494-0.09-0.964-0.218-1.413-0.385c0.205,0.411,0.387,0.82,0.548,1.23
		c0.16,0.411,0.292,0.814,0.394,1.212c0.308-0.385,0.632-0.734,0.972-1.048C17.339,17.311,17.695,17.032,18.067,16.789
		L18.067,16.789z M15.894,10.962l-2.077-6c-0.539-1.525-0.955-2.522-1.25-2.99s-0.615-0.702-0.961-0.702
		c-0.269,0-0.487,0.103-0.654,0.308c-0.167,0.205-0.25,0.48-0.25,0.827c0,0.59,0.224,1.615,0.673,3.077
		c0.449,1.462,1.122,3.378,2.02,5.75c0.077-0.141,0.186-0.241,0.327-0.298s0.333-0.086,0.577-0.086c0.077,0,0.23,0.007,0.461,0.019
		C14.99,10.879,15.368,10.911,15.894,10.962L15.894,10.962z M14.009,20.25c0.218,0,0.417-0.099,0.596-0.298s0.269-0.414,0.269-0.645
		c0-0.243-0.176-0.811-0.529-1.702s-0.792-1.766-1.317-2.625c-0.384-0.641-0.763-1.125-1.134-1.452
		c-0.372-0.327-0.725-0.49-1.058-0.49c-0.269,0-0.567,0.17-0.894,0.51c-0.327,0.34-0.49,0.657-0.49,0.952
		c0,0.308,0.16,0.77,0.48,1.385s0.75,1.27,1.289,1.961c0.564,0.757,1.096,1.346,1.596,1.77C13.317,20.039,13.714,20.25,14.009,20.25
		L14.009,20.25z M8.24,19.789c0.179,0.218,0.429,0.539,0.75,0.961c0.846,1.167,1.628,1.75,2.346,1.75
		c0.243,0,0.461-0.077,0.654-0.23c0.192-0.154,0.288-0.314,0.288-0.481c0-0.192-0.128-0.512-0.384-0.961
		c-0.257-0.449-0.609-0.955-1.058-1.52c-0.513-0.654-0.939-1.131-1.279-1.433c-0.339-0.301-0.612-0.452-0.817-0.452
		c-0.449,0-0.863,0.24-1.241,0.721c-0.378,0.48-0.567,1.048-0.567,1.702c0,0.526,0.131,1.112,0.395,1.76
		c0.262,0.647,0.644,1.298,1.144,1.952c0.756,1.013,1.695,1.792,2.817,2.336c1.122,0.545,2.362,0.817,3.721,0.817
		c2.5,0,4.593-0.933,6.279-2.798s2.529-4.202,2.529-7.01c0-0.858-0.064-1.541-0.192-2.048c-0.128-0.506-0.34-0.875-0.635-1.106
		c-0.526-0.436-1.548-0.827-3.067-1.173c-1.519-0.346-3.106-0.52-4.76-0.52c-0.461,0-0.789,0.077-0.98,0.231
		c-0.192,0.154-0.289,0.417-0.289,0.789c0,0.872,0.487,1.503,1.461,1.894c0.974,0.392,2.551,0.586,4.731,0.586h0.789
		c0.179,0,0.323,0.067,0.433,0.202c0.108,0.135,0.183,0.336,0.221,0.606c-0.218,0.205-0.667,0.439-1.346,0.702
		c-0.68,0.263-1.199,0.522-1.558,0.779c-0.77,0.564-1.388,1.234-1.856,2.01c-0.468,0.776-0.702,1.51-0.702,2.202
		c0,0.423,0.099,0.933,0.298,1.529c0.199,0.596,0.298,0.964,0.298,1.105v0.135L16.625,25c-0.564-0.038-1.009-0.368-1.336-0.99
		c-0.327-0.622-0.49-1.452-0.49-2.49v-0.173c-0.103,0.09-0.202,0.154-0.298,0.192s-0.202,0.058-0.317,0.058
		c-0.116,0-0.225-0.009-0.327-0.029c-0.103-0.019-0.218-0.048-0.346-0.086c0.039,0.141,0.067,0.279,0.086,0.414
		c0.02,0.135,0.029,0.24,0.029,0.317c0,0.474-0.186,0.881-0.558,1.221c-0.372,0.339-0.814,0.509-1.327,0.509
		c-0.808,0-1.628-0.394-2.462-1.183s-1.25-1.561-1.25-2.317c0-0.141,0.016-0.266,0.048-0.375C8.108,19.959,8.163,19.866,8.24,19.789
		L8.24,19.789z M22.009,11.943c1.154,0.218,1.968,0.705,2.442,1.461c0.474,0.757,0.711,1.949,0.711,3.577
		c0,3.231-0.971,5.875-2.914,7.933C20.308,26.971,17.823,28,14.798,28c-1.192,0-2.35-0.215-3.471-0.644
		c-1.122-0.43-2.086-1.029-2.894-1.798c-0.923-0.846-1.616-1.74-2.077-2.683s-0.692-1.907-0.692-2.894
		c0-1.103,0.237-1.955,0.711-2.558s1.224-1.013,2.25-1.231c-0.192-0.449-0.333-0.827-0.423-1.135
		c-0.09-0.308-0.135-0.544-0.135-0.711c0-0.577,0.305-1.167,0.914-1.769c0.608-0.603,1.183-0.904,1.721-0.904
		c0.23,0,0.474,0.042,0.73,0.125c0.257,0.083,0.551,0.221,0.885,0.414C11.33,9.417,10.612,7.26,10.163,5.74
		C9.714,4.221,9.49,3.173,9.49,2.596c0-0.795,0.205-1.426,0.615-1.894C10.516,0.234,11.073,0,11.778,0
		c1.205,0,2.731,2.692,4.577,8.077c0.32,0.923,0.564,1.634,0.731,2.134c0.141-0.397,0.339-0.961,0.596-1.692
		c1.846-5.333,3.436-8,4.769-8c0.654,0,1.176,0.221,1.567,0.664s0.586,1.036,0.586,1.779c0,0.564-0.215,1.596-0.644,3.096
		C23.532,7.558,22.881,9.519,22.009,11.943L22.009,11.943z"/>
</g>
<g>
	<circle fill="none" stroke="#444444" stroke-width="2" stroke-miterlimit="10" cx="100.879" cy="15" r="12"/>
	<path fill="none" stroke="#444444" stroke-width="2" stroke-miterlimit="10" d="M88.832,13.94c0,0,14.539,1.242,20.213-6.737"/>
	<path fill="none" stroke="#444444" stroke-width="2" stroke-miterlimit="10" d="M92.945,23.988c0,0,6.882-11.821,19.824-7.389"/>
	<path fill="none" stroke="#444444" stroke-width="2" stroke-miterlimit="10" d="M95.891,4.092c0,0,7.867,6.524,10.779,21.421"/>
</g>
</svg>
