<?xml version="1.0" encoding="utf-8"?>
<!-- Generator: Adobe Illustrator 16.0.0, SVG Export Plug-In . SVG Version: 6.00 Build 0)  -->
<!DOCTYPE svg PUBLIC "-//W3C//DTD SVG 1.1//EN" "http://www.w3.org/Graphics/SVG/1.1/DTD/svg11.dtd">
<svg version="1.1" xmlns="http://www.w3.org/2000/svg" xmlns:xlink="http://www.w3.org/1999/xlink" x="0px" y="0px"
	 width="125.124px" height="111.848px" viewBox="0 0 125.124 111.848" enable-background="new 0 0 125.124 111.848"
	 xml:space="preserve">
<g id="Layer_1">
</g>
<g id="Capa_1">
	<path fill="#D8D8D8" d="M30.826,6.17c-1.134,0.502-2.353,0.842-3.632,0.996c1.308-0.783,2.311-2.022,2.78-3.498
		c-1.221,0.725-2.573,1.25-4.018,1.533c-1.149-1.229-2.795-1.997-4.614-1.997c-3.491,0-6.323,2.833-6.323,6.324
		c0,0.497,0.054,0.979,0.163,1.44C9.926,10.704,5.268,8.189,2.146,4.36C1.602,5.298,1.29,6.383,1.29,7.542
		c0,2.191,1.117,4.129,2.814,5.264c-1.036-0.032-2.012-0.319-2.865-0.79v0.078c0,3.066,2.178,5.622,5.073,6.201
		c-0.531,0.149-1.089,0.222-1.667,0.222c-0.407,0-0.804-0.037-1.189-0.112c0.804,2.512,3.14,4.341,5.907,4.39
		c-2.164,1.697-4.892,2.708-7.854,2.708c-0.51,0-1.015-0.027-1.509-0.086c2.798,1.792,6.123,2.84,9.695,2.84
		c11.635,0,17.994-9.636,17.994-17.995c0-0.274-0.006-0.549-0.019-0.817C28.907,8.552,29.982,7.438,30.826,6.17"/>
	<path fill="#D8D8D8" d="M51.002,28.257h-6V9.061h6V28.257z M47.847,6.659h-0.043c-2.17,0-3.577-1.468-3.577-3.326
		c0-1.895,1.45-3.333,3.664-3.333c2.213,0,3.574,1.435,3.616,3.328C51.507,5.188,50.104,6.659,47.847,6.659z M75,28.257h-6.802
		v-9.934c0-2.601-1.062-4.374-3.403-4.374c-1.789,0-2.783,1.197-3.247,2.353c-0.174,0.413-0.148,0.99-0.148,1.568v10.386h-6.737
		c0,0,0.087-17.594,0-19.196H61.4v3.013c0.4-1.316,2.552-3.196,5.989-3.196c4.261,0,7.611,2.76,7.611,8.706V28.257z"/>
</g>
<g id="icons_x5F_unsorted">
	<g>
		<path fill="#555555" d="M56.43,111.848H3.157c-1.74,0-3.157-1.417-3.157-3.16V40.006c0-1.741,1.417-3.159,3.157-3.159h44.662
			c1.741,0,3.158,1.417,3.158,3.159v4.106c0,0.58,0.473,1.053,1.055,1.053h4.398c1.743,0,3.16,1.417,3.16,3.158v60.364
			C59.59,110.431,58.173,111.848,56.43,111.848z M3.157,38.954c-0.579,0-1.053,0.472-1.053,1.053v68.682
			c0,0.582,0.474,1.056,1.053,1.056H56.43c0.581,0,1.055-0.474,1.055-1.056V48.324c0-0.581-0.474-1.053-1.055-1.053h-4.398
			c-1.743,0-3.16-1.417-3.16-3.158v-4.106c0-0.581-0.473-1.053-1.053-1.053H3.157z"/>
	</g>
	<path fill="#555555" d="M58.68,46.11c0.695,0.675,0.938,1.554,0.54,1.964l0,0c-0.396,0.407-1.285,0.193-1.979-0.479l-8.261-8.016
		c-0.696-0.675-0.937-1.554-0.541-1.961l0,0c0.398-0.41,1.283-0.197,1.979,0.477L58.68,46.11z"/>
	<g>
		<path fill="#555555" d="M121.963,111.848H68.692c-1.74,0-3.157-1.417-3.157-3.16V40.006c0-1.741,1.417-3.159,3.157-3.159h44.662
			c1.739,0,3.156,1.417,3.156,3.159v4.106c0,0.58,0.474,1.053,1.056,1.053h4.397c1.743,0,3.16,1.417,3.16,3.158v60.364
			C125.124,110.431,123.707,111.848,121.963,111.848z M68.692,38.954c-0.579,0-1.053,0.472-1.053,1.053v68.682
			c0,0.582,0.474,1.056,1.053,1.056h53.271c0.583,0,1.056-0.474,1.056-1.056V48.324c0-0.581-0.473-1.053-1.056-1.053h-4.397
			c-1.742,0-3.159-1.417-3.159-3.158v-4.106c0-0.581-0.474-1.053-1.053-1.053H68.692z"/>
	</g>
	<path fill="#555555" d="M124.213,46.11c0.696,0.675,0.939,1.554,0.541,1.964l0,0c-0.396,0.407-1.285,0.193-1.978-0.479
		l-8.263-8.016c-0.695-0.675-0.936-1.554-0.54-1.961l0,0c0.398-0.41,1.282-0.197,1.979,0.477L124.213,46.11z"/>
	<g>
		<path fill="#555555" d="M19.524,80.188c0.211,0,0.389,0.072,0.537,0.22s0.223,0.328,0.223,0.538c0,0.212-0.078,0.39-0.235,0.537
			c-0.155,0.147-0.329,0.22-0.524,0.22c-0.192,0-0.368-0.072-0.523-0.22c-0.157-0.147-0.234-0.325-0.234-0.537
			c0-0.21,0.074-0.391,0.221-0.538S19.313,80.188,19.524,80.188z"/>
		<path fill="#555555" d="M22.166,75.715h0.985v0.86h0.025c0.269-0.321,0.582-0.568,0.941-0.747c0.356-0.176,0.75-0.264,1.182-0.264
			c0.463,0,0.884,0.077,1.27,0.232c0.383,0.155,0.708,0.373,0.978,0.651c0.269,0.276,0.481,0.605,0.631,0.985
			c0.153,0.378,0.228,0.791,0.228,1.238c0,0.445-0.075,0.859-0.228,1.236c-0.15,0.38-0.359,0.709-0.623,0.987
			c-0.266,0.277-0.58,0.495-0.941,0.649c-0.362,0.155-0.75,0.235-1.164,0.235c-0.53,0-0.995-0.116-1.396-0.35
			c-0.398-0.229-0.693-0.514-0.877-0.853h-0.025v3.931h-0.985V75.715z M23.151,78.672c0,0.311,0.049,0.601,0.145,0.864
			c0.098,0.266,0.238,0.499,0.424,0.695c0.184,0.199,0.406,0.354,0.662,0.468c0.259,0.113,0.545,0.171,0.867,0.171
			c0.32,0,0.607-0.058,0.866-0.171c0.256-0.114,0.476-0.269,0.662-0.468c0.187-0.196,0.326-0.43,0.424-0.695
			c0.096-0.264,0.145-0.554,0.145-0.864c0-0.312-0.049-0.6-0.145-0.865c-0.098-0.268-0.237-0.497-0.424-0.696
			c-0.186-0.196-0.406-0.354-0.662-0.468c-0.259-0.114-0.545-0.168-0.866-0.168c-0.321,0-0.608,0.054-0.867,0.168
			c-0.256,0.114-0.478,0.271-0.662,0.468c-0.186,0.199-0.326,0.429-0.424,0.696C23.2,78.073,23.151,78.36,23.151,78.672z"/>
		<path fill="#555555" d="M34.848,80.579h-0.025c-0.184,0.339-0.479,0.623-0.877,0.853c-0.4,0.233-0.866,0.35-1.396,0.35
			c-0.414,0-0.802-0.08-1.163-0.235c-0.363-0.154-0.676-0.372-0.942-0.649c-0.264-0.278-0.474-0.607-0.625-0.987
			c-0.15-0.377-0.226-0.791-0.226-1.236c0-0.447,0.075-0.86,0.226-1.238c0.151-0.38,0.361-0.709,0.633-0.985
			c0.269-0.278,0.595-0.496,0.978-0.651c0.386-0.155,0.807-0.232,1.27-0.232c0.429,0,0.825,0.088,1.182,0.264
			c0.359,0.179,0.673,0.426,0.941,0.747h0.025v-4.5h0.985v9.552h-0.985V80.579z M34.848,78.672c0-0.312-0.049-0.6-0.145-0.865
			c-0.099-0.268-0.238-0.497-0.424-0.696c-0.187-0.196-0.406-0.354-0.662-0.468c-0.259-0.114-0.546-0.168-0.866-0.168
			s-0.608,0.054-0.866,0.168c-0.256,0.114-0.479,0.271-0.662,0.468c-0.187,0.199-0.328,0.429-0.424,0.696
			c-0.096,0.266-0.146,0.553-0.146,0.865c0,0.311,0.05,0.601,0.146,0.864c0.096,0.266,0.237,0.499,0.424,0.695
			c0.184,0.199,0.406,0.354,0.662,0.468c0.258,0.113,0.546,0.171,0.866,0.171s0.607-0.058,0.866-0.171
			c0.256-0.114,0.476-0.269,0.662-0.468c0.186-0.196,0.325-0.43,0.424-0.695C34.799,79.273,34.848,78.983,34.848,78.672z"/>
		<path fill="#555555" d="M38.171,76.55h-1.288v-0.835h1.288v-1.328c0-0.361,0.033-0.692,0.101-0.989
			c0.067-0.3,0.184-0.559,0.347-0.778c0.165-0.218,0.383-0.389,0.651-0.512c0.269-0.122,0.603-0.182,0.999-0.182
			c0.127,0,0.261,0.013,0.403,0.036c0.145,0.026,0.262,0.064,0.354,0.113l-0.139,0.886c-0.236-0.083-0.458-0.128-0.67-0.128
			c-0.251,0-0.451,0.048-0.593,0.135c-0.145,0.088-0.25,0.21-0.322,0.365c-0.073,0.157-0.115,0.344-0.128,0.563
			s-0.019,0.455-0.019,0.706v1.112h1.441v0.835h-1.441v5.077h-0.984V76.55z"/>
	</g>
	<path fill="none" stroke="#555555" stroke-width="2.1056" stroke-miterlimit="10" d="M44.598,89.872v4.044h6.611V59.7H8.908v34.216
		h21.413v-4.044"/>
	<polyline fill="none" stroke="#555555" stroke-width="2.1056" stroke-miterlimit="10" points="30.321,90.138 30.321,89.872 
		12.95,89.872 12.95,63.49 47.524,63.49 47.524,89.872 44.598,89.872 44.598,90.303 	"/>
	<g>
		<path fill="#555555" d="M40.39,92.028c0.14,0.078,0.144,0.213,0.008,0.299l-5.1,3.24c-0.136,0.086-0.264,0.026-0.284-0.133
			l-0.878-6.664c-0.021-0.159,0.076-0.225,0.216-0.146L40.39,92.028z"/>
	</g>
	<path fill="#555555" stroke="#221F1F" stroke-width="2.1056" stroke-miterlimit="10" d="M45.226,89.89"/>
	<path fill="#555555" stroke="#221F1F" stroke-width="2.1056" stroke-miterlimit="10" d="M43.579,89.89"/>
	<g>
		<path fill="#555555" d="M39.995,95.922c0.124,0.197,0.062,0.46-0.135,0.584l-0.592,0.37c-0.197,0.124-0.46,0.062-0.584-0.135
			l-1.555-2.49c-0.124-0.197-0.062-0.46,0.135-0.583l0.595-0.369c0.197-0.123,0.46-0.062,0.584,0.136L39.995,95.922z"/>
	</g>
	<g>
		
			<rect x="73.537" y="45.068" fill="none" stroke="#555555" stroke-width="1.2818" stroke-miterlimit="10" width="12.795" height="4.622"/>
		<rect x="86.583" y="54.025" fill="#555555" width="29.338" height="2.001"/>
		<rect x="86.583" y="61.109" fill="#555555" width="32.585" height="2.002"/>
		<rect x="86.583" y="67.387" fill="#555555" width="32.585" height="1.998"/>
		<rect x="86.583" y="73.395" fill="#555555" width="32.585" height="1.999"/>
		<rect x="86.583" y="79.675" fill="#555555" width="32.585" height="1.998"/>
		<rect x="86.583" y="85.684" fill="#555555" width="32.585" height="1.998"/>
		<rect x="86.583" y="91.962" fill="#555555" width="32.585" height="2"/>
		<rect x="86.583" y="99.811" fill="#555555" width="32.585" height="1.996"/>
		<rect x="70.963" y="56.083" fill="#555555" width="8.932" height="1.794"/>
		<rect x="70.973" y="60.905" fill="#555555" width="10.65" height="1.789"/>
		<rect x="70.958" y="66.134" fill="#555555" width="10.683" height="1.999"/>
		<rect x="70.963" y="77.019" fill="#555555" width="8.932" height="1.789"/>
		<rect x="70.973" y="81.84" fill="#555555" width="10.65" height="1.792"/>
		<rect x="70.958" y="87.071" fill="#555555" width="10.683" height="2.001"/>
		<rect x="70.958" y="92.963" fill="#555555" width="10.683" height="1.998"/>
	</g>
</g>
</svg>
