<?xml version="1.0" encoding="utf-8"?>
<!-- Generator: Adobe Illustrator 16.0.0, SVG Export Plug-In . SVG Version: 6.00 Build 0)  -->
<!DOCTYPE svg PUBLIC "-//W3C//DTD SVG 1.1//EN" "http://www.w3.org/Graphics/SVG/1.1/DTD/svg11.dtd">
<svg version="1.1" id="Layer_1" xmlns="http://www.w3.org/2000/svg" xmlns:xlink="http://www.w3.org/1999/xlink" x="0px" y="0px"
	 width="1000px" height="689px" viewBox="0 0 1000 689" enable-background="new 0 0 1000 689" xml:space="preserve">
<rect y="1" fill="#C8DFD6" width="1000" height="688"/>
<g>
	<g id="Body_1_">
		<g>
			<path opacity="0.1" d="M596.282,506.791c-0.036,8.358-6.906,15.149-15.262,15.114l-172.072-0.83
				c-8.355-0.036-15.164-6.9-15.122-15.248l1.125-234.62c0.042-8.351,6.911-15.15,15.269-15.111l172.069,0.826
				c8.36,0.042,15.171,6.905,15.125,15.256L596.282,506.791z"/>
		</g>
	</g>
	<g id="Limbs">
		<path opacity="0.05" enable-background="new    " d="M501.121,547.901c67.295,0,121.847,5.697,121.847,12.72
			c0,7.03-54.552,12.727-121.847,12.727c-67.293,0-121.845-5.696-121.845-12.727C379.276,553.599,433.828,547.901,501.121,547.901z"
			/>
		<g>
			<g>
				<g>
					<path fill="#9DD685" d="M576.152,407.243c0.47-0.446,0.678-1.17,1.289-0.979c1.696,0.858,1.146,3.409,2.827,4.26l0.852-0.625
						c0.548,1.308,1.164,2.785,1.763,4.191c1.965,1.853,3.751,3.764,5.773,5.531c0.248-0.29,0.503-0.539,0.78-0.426
						c0.94,0.668,1.527,2.108,2.408,3.407l0.568,0.435c0.29,0,0.61-0.184,0.81-0.297c0.408,0.581,0.712,1.142,0.984,1.675
						c6.131,4.958,12.331,10.221,17.635,17.15c1.528,1.3,3.197,2.678,3.958,4.24c0.511,1.186,0.812,2.621,1.05,4.041
						c0.178,1.521,0.205,3.167,0.385,4.517c3.585-1.071,6.496,5.219,9.976,3.253c0.228,1.825,0.562,4.56,1.621,4.524
						c3.181-0.121,6.997,0.653,9.685,5.155c0.755,1.819-0.062,4.936,0.679,5.497c1.177,0.881,1.78-2.812,2.95-1.938
						c-0.615-7.125-1.839-14.013-3.194-20.888c-0.47-2.997-1.872-7.911-3.175-12.265c-1.626-4.02-3.113-8.237-5.088-11.909
						c-1.91-2.373-7.674-11.599-14.464-19.992c-6.728-8.465-14.239-16.448-17.172-19.842l-0.604-0.539
						c-3.273-3.636-7.812-7.48-11.794-9.17c-1.997-0.583-4.114-1.043-6.212-1.484c0.276,1.023,0.472,2.032,0.601,2.946
						c-1.363-1.326-2.791-2.598-3.774-2.562c-4.128-1.363-3.51,1.549-3.989,4.46c0.113,1.556-2.087,1.91-1.529,3.863
						c-0.893-0.824-1.34-1.228-2.234-2.046c-0.767,0.704,3.2,1.982,1.448,2.757c-0.63-1.052-2.029-1.406-2.931-2.194
						c-0.568,1.349,2.847,3.074,1.798,4.033c-0.692-0.171-1.34-3.644-2.645-2.422c-0.257,0.242,0.633,1.023,1.066,1.434
						c-3.177-1.931-5.733-1.825-4.396,1.719c-0.825-0.746-1.669-2.365-2.627-2.806l-0.017,0.03c0.342,0.333,0.954,1.285,1.346,1.619
						l-1.458-1.272l-0.206,0.768c0.228,0.455,0.526,0.915,0.91,1.25l-0.988-0.867c-0.096,0.661-0.144,1.323-0.144,1.981
						c0.509,1.854,0.63,4.091,1.248,4.658C566.743,397.245,571.476,402.272,576.152,407.243z"/>
				</g>
			</g>
		</g>
		<g>
			<path fill="#9DD685" d="M430.966,375.72c0,0-66.002,53.667-73.11,98.096"/>
			<g>
				<g>
					<path fill="#9DD685" d="M396.499,383.092c0.485,0.511,1.281,0.702,1.034,1.405c-1.015,1.961-3.872,1.505-4.891,3.48
						l0.701,0.895c-1.472,0.796-3.123,1.676-4.708,2.529c-2.08,2.47-4.119,4.929-5.938,7.612c0.364,0.22,0.673,0.44,0.575,0.78
						c-0.655,1.193-2.171,2.302-3.528,3.65l-0.405,0.761c0.041,0.319,0.305,0.625,0.464,0.809c-0.608,0.611-1.172,1.137-1.721,1.611
						c-4.337,8.616-8.137,17.742-11.571,27.72c-0.37,2.329-0.486,4.814-1.156,6.804c-0.592,1.435-1.536,2.882-2.55,4.311
						c-0.943,1.471-1.874,2.955-2.609,4.281c3.754,1.437,2.436,8.559,6.79,8.87c-0.711,1.67-1.793,4.197-0.777,4.709
						c1.52,0.775,3.085,1.812,4.324,3.218c0.619,0.695,1.162,1.492,1.575,2.379c0.455,0.888,0.939,1.854,1.196,2.933
						c0.136,1.57-1.838,3.572-1.307,4.227c0.874,1.001,2.838-1.493,3.705-0.47c3.203-9.708,7.799-21.497,15.602-32.569
						c0.528-2.399,5.458-10.084,11.528-17.689c6.118-7.585,13.344-14.973,16.612-17.647l0.503-0.576
						c3.424-3.083,7.248-7.143,9.111-10.9c0.672-1.925,1.287-3.963,1.909-6.016c-1.069,0.079-2.099,0.107-3.042,0.086
						c1.454-1.186,2.896-2.379,2.967-3.389c1.88-3.892-1.111-3.949-4.092-4.963c-1.634-0.15-1.69-2.536-3.824-2.272
						c1.007-0.804,1.513-1.201,2.524-2.011c-0.633-0.95-2.616,3.04-3.165,1.058c1.214-0.496,1.818-1.916,2.834-2.726
						c-1.343-0.874-3.775,2.498-4.612,1.249c0.288-0.745,4.105-0.845,3.057-2.436c-0.208-0.327-1.229,0.488-1.742,0.887
						c2.629-3.06,3.245-5.9-0.951-5.042c1.042-0.816,2.895-1.342,3.897-2.499l-0.024-0.022c-0.634,0.434-1.793,0.902-2.293,1.294
						l1.918-1.472c-0.271-0.126-0.551-0.227-0.84-0.325c-0.655,0.234-1.186,0.448-1.686,0.831l1.26-0.973
						c-0.721-0.2-1.426-0.378-2.172-0.478c-2.235,0.285-4.726,0.1-5.526,0.732C408.719,372.403,402.376,377.495,396.499,383.092z"/>
				</g>
			</g>
		</g>
		<g>
			<line fill="none" x1="452.79" y1="506.32" x2="453.726" y2="561.741"/>
			<g>
				<g>
					<path fill="#9DD685" d="M437.653,519.829c0.607-0.008,1.207-0.206,1.491,0.077c0.589,0.889-1.429,1.647-0.836,2.536
						l0.978,0.048c-0.419,0.663-0.926,1.465-1.384,2.19c0.167,1.361,0.417,2.71,0.771,4.061c0.356-0.044,0.683-0.07,0.818,0.071
						c0.268,0.553-0.061,1.335-0.149,2.145l0.174,0.356c0.215,0.084,0.556,0.104,0.767,0.112c-0.025,0.37-0.111,0.695-0.215,0.993
						c1.995,3.928,4.32,7.912,6.63,12.229c0.917,0.91,1.833,1.812,2.258,2.692c0.396,1.307-0.214,2.996-0.301,4.281
						c3.45-0.255,5.191,2.842,8.667,2.161c-0.062,0.857-0.154,2.145,0.825,2.193c2.932,0.149,6.315,0.745,8.119,2.989
						c0.43,0.882-0.781,2.266-0.18,2.571c0.943,0.476,2.043-1.185,2.992-0.71c0.946-6.619-0.429-12.954-0.514-19.608
						c-1.569-2.236-2.498-17.491-1.885-21.425l-0.052-0.356c0.153-2.144-0.153-4.736-1.499-6.526
						c-0.825-0.817-1.829-1.641-2.795-2.463c-0.563,0.397-1.127,0.766-1.68,1.093c0.062-0.86,0.121-1.712-0.509-2.03
						c-1.51-1.798-3.214-0.739-5.552,0.006c-1.021,0.52-2.605-0.136-3.644,0.668c0.04-0.567,0.062-0.852,0.102-1.427
						c-0.982-0.05,0.527,1.747-1.08,1.385c0.364-0.562-0.243-1.165-0.204-1.74c-1.323,0.228-0.466,1.989-1.77,1.917
						c-0.306-0.299,1.749-1.627,0.124-1.711c-0.329-0.015-0.367,0.553-0.387,0.837c-0.531-1.747-2.097-2.684-3.845-1.057
						c0.039-0.555,0.715-1.352,0.482-1.939l-0.024,0.009c-0.052,0.289-0.379,0.807-0.398,1.077l0.073-1.001l-0.675,0.185
						c-0.197,0.256-0.354,0.512-0.375,0.766l0.046-0.666c-0.527,0.178-1.035,0.377-1.513,0.596
						c-1.035,0.803-2.563,1.592-2.592,2.018C438.193,512.896,437.704,516.37,437.653,519.829z"/>
				</g>
			</g>
		</g>
		<g>
			<path fill="#ADD79E" d="M566.379,548.725c0.003,0.011,0.009,0.019,0.012,0.031C566.562,548.675,566.534,548.674,566.379,548.725z
				"/>
			<path fill="#ADD79E" d="M555.222,554.599l-0.137,1.115C555.131,555.341,555.176,554.973,555.222,554.599
				C555.223,554.599,555.223,554.599,555.222,554.599z"/>
			<path fill="#ADD79E" d="M554.988,556.188c0.003,0,0.007-0.012,0.011-0.018c0.002-0.005,0.003-0.01,0.007-0.017
				C554.999,556.168,554.993,556.177,554.988,556.188z"/>
			<path fill="#ADD79E" d="M555.085,555.714v0.007v0.029v0.063c-0.002,0.023-0.005,0.046-0.007,0.066
				C555.089,555.796,555.086,555.736,555.085,555.714z"/>
			<path fill="#ADD79E" d="M555.072,555.941c-0.022,0.084-0.005,0.021,0.006-0.062c-0.006,0.057-0.021,0.127-0.051,0.216
				c0.006-0.012,0.011-0.024,0.016-0.037C555.057,556.015,555.068,555.97,555.072,555.941z"/>
			<path fill="#ADD79E" d="M556.371,554.457l0.026-0.026c-0.057,0.048-0.106,0.091-0.155,0.132L556.371,554.457z"/>
			<path fill="#ADD79E" d="M555.021,556.126c0-0.003,0-0.005,0.001-0.008c-0.008,0.022-0.017,0.041-0.023,0.053
				C554.99,556.199,554.991,556.198,555.021,556.126z"/>
			<path fill="#ADD79E" d="M555.306,555.646l-0.117,0.161C555.213,555.78,555.245,555.742,555.306,555.646z"/>
			<path fill="#ADD79E" d="M557.442,553.463c0.021-0.017,0.041-0.032,0.062-0.049c-0.015,0.011-0.031,0.022-0.047,0.034
				C557.45,553.452,557.449,553.459,557.442,553.463z"/>
			<path fill="#ADD79E" d="M555.188,555.808c-0.012,0.012-0.024,0.03-0.035,0.048L555.188,555.808z"/>
			<path fill="#ADD79E" d="M555.881,554.899c0.115-0.125,0.233-0.232,0.361-0.337l-0.203,0.164
				C555.988,554.778,555.934,554.842,555.881,554.899z"/>
			<path fill="#ADD79E" d="M555.027,556.096c-0.009,0.022-0.017,0.043-0.021,0.059c0.005-0.014,0.012-0.022,0.017-0.038
				C555.026,556.108,555.022,556.104,555.027,556.096z"/>
			<path fill="#ADD79E" d="M555.306,555.646l0.015-0.019c0.149-0.248,0.324-0.471,0.5-0.665c-0.152,0.17-0.306,0.36-0.458,0.594
				C555.338,555.601,555.323,555.62,555.306,555.646z"/>
			<path fill="#ADD79E" d="M556.397,554.431c0.018-0.018,0.03-0.027,0.052-0.045c0.315-0.343,0.647-0.649,0.993-0.923
				c-0.19,0.151-0.387,0.313-0.596,0.512L556.397,554.431z"/>
			<path fill="#ADD79E" d="M555.82,554.963c0.021-0.021,0.04-0.042,0.061-0.063c-0.016,0.015-0.027,0.022-0.044,0.039
				C555.832,554.945,555.826,554.956,555.82,554.963z"/>
			<polygon fill="#ADD79E" points="555.022,556.118 555.022,556.115 555.022,556.116 			"/>
			<path fill="#9DD685" d="M564.609,540.337c-0.996-1.049-1.789-5.538-1.826-10.658c-0.072-5.078,0.515-10.531,1.201-12.698
				l-0.007-0.411c0.515-2.394,0.581-5.37-0.76-7.67c-0.874-1.094-1.96-2.245-2.997-3.395c-0.774,0.341-1.549,0.646-2.301,0.908
				c0.237-0.979,0.492-1.953-0.227-2.457c-1.497-2.407-3.837-1.582-6.891-1.214c-0.367,0.106-0.768,0.101-1.185,0.053l-0.334-4.271
				c0,0-0.283,1.53-0.694,4.111c-0.84-0.147-1.695-0.266-2.447,0.122c0.172-0.676,0.256-1.017,0.428-1.698
				c-1.199-0.276,0.283,2.216-1.634,1.428c0.566-0.59-0.05-1.456,0.128-2.145c-1.69-0.028-1.016,2.308-2.614,1.946
				c-0.319-0.443,2.522-1.606,0.524-2.074c-0.404-0.087-0.58,0.604-0.664,0.952c-0.279-2.252-1.981-3.625-4.533-1.984
				c0.183-0.695,1.201-1.182,1.074-2.182h-0.029c-0.15,1-0.678,0.779-0.768,1.125l0.341-1.386l-0.887,0.035
				c-0.307,0.292-0.564,0.551-0.653,0.877l0.227-0.855c-0.695,0.108-1.375,0.235-2.019,0.398c-1.478,0.804-3.551,1.445-3.685,1.986
				c-1.676,4.246-2.976,8.57-3.635,13.001c0.759,0.1,1.539-0.052,1.846,0.36c0.582,1.229-2.053,1.882-1.459,3.118l1.212,0.22
				c-0.627,0.796-1.38,1.746-2.062,2.62c0.016,1.798,0.143,3.594,0.431,5.406c0.451-0.015,0.867-0.007,1.019,0.183
				c0.271,0.754-0.235,1.739-0.419,2.807l0.184,0.49c0.26,0.127,0.691,0.191,0.952,0.219c-0.068,0.476-0.213,0.895-0.361,1.293
				c2.188,5.375,4.906,10.796,8.164,16.454c1.225,1.158,2.468,2.26,3.149,3.381c0.665,1.655,0.294,4.049,0.621,5.908
				c2.062-0.673,3.881-0.085,5.705,0.221c0.273,0.052,0.544,0.091,0.817,0.124c1.371,4.093,3.516,6.807,6.739,7.205l-0.535-6.818
				c0.047-0.021,0.088-0.028,0.138-0.056c0.436-0.232,0.89-0.476,1.337-0.718l0.973-7.854l0.002-0.007l0.003-0.005
				c-0.323,2.616-0.651,5.241-0.977,7.866c0.389-0.206,0.768-0.409,1.156-0.617l1.234-0.683l0.207-0.121
				c-0.1,0.071-0.207,0.152-0.316,0.236c0.12-0.091,0.24-0.177,0.36-0.262l0.345-0.202c0.134-0.065,0.314-0.203,0.322-0.221
				c0.008-0.005,0.013-0.009,0.02-0.012c0.412-0.257,0.991-0.704,1.499-1.003c0.528-0.319,1.064-0.61,1.61-0.858l0.832-0.362
				l1.037-0.54c0.888-0.475,2.404-1.078,2.85-1.229c-0.055-0.182-0.184-0.224-0.314-0.674
				C565.447,546.531,564.68,543.569,564.609,540.337z M557.966,553.077c0.017-0.011,0.034-0.021,0.051-0.033
				C558,553.056,557.982,553.068,557.966,553.077z"/>
			<path fill="#ADD79E" d="M555.123,555.904c0.012-0.021,0.02-0.033,0.03-0.049l-0.022,0.027
				C555.129,555.888,555.125,555.899,555.123,555.904z"/>
			<path fill="#ADD79E" d="M555.043,556.059c-0.006,0.021-0.014,0.039-0.021,0.057c0.032-0.078,0.063-0.154,0.101-0.211
				c-0.003,0.005-0.004,0.005-0.008,0.008C555.102,555.923,555.071,555.991,555.043,556.059z"/>
		</g>
	</g>
	<g id="Body">
		<g>
			<path fill="#EDEDED" d="M599.153,501.576c-0.035,8.24-6.803,14.936-15.033,14.9l-169.494-0.817
				c-8.23-0.035-14.937-6.804-14.896-15.033l1.108-231.311c0.041-8.232,6.807-14.937,15.04-14.897l169.492,0.814
				c8.234,0.041,14.942,6.808,14.897,15.041L599.153,501.576z"/>
		</g>
	</g>
	<g id="Body_2_">
		<g>
			<path fill="#EDEDED" d="M599.153,501.576c-0.035,8.24-6.803,14.936-15.033,14.9l-169.494-0.817
				c-8.23-0.035-14.937-6.804-14.896-15.033l1.108-231.311c0.041-8.232,6.807-14.937,15.04-14.897l169.492,0.814
				c8.234,0.041,14.942,6.808,14.897,15.041L599.153,501.576z"/>
		</g>
	</g>
	<g id="Slider">
		<g>
			<g>
				<path fill="#92CC76" d="M495.123,451.856c0.021,24.206-19.051,44.019-42.383,44.038c-23.333,0.022-42.444-19.756-42.466-43.951
					l-0.127-133.547c-0.022-24.199,19.048-44.016,42.377-44.037c23.333-0.023,42.447,19.754,42.467,43.953L495.123,451.856z"/>
			</g>
			<g>
				<path fill="#9DD685" d="M495.562,447.972c0.021,23.061-18.148,41.93-40.374,41.95c-22.233,0.031-40.439-18.818-40.462-41.871
					l-0.122-131.748c-0.021-23.047,18.146-41.926,40.375-41.947c22.227-0.022,40.434,18.82,40.455,41.872L495.562,447.972z"/>
			</g>
		</g>
		<g>
			<g>
				<path fill="#92CC76" d="M589.414,453.875c0.021,24.203-19.049,44.016-42.382,44.037c-23.333,0.029-42.445-19.749-42.472-43.953
					l-0.126-133.554c-0.023-24.196,19.047-44.012,42.384-44.032c23.331-0.021,42.439,19.759,42.465,43.957L589.414,453.875z"/>
			</g>
			<g>
				<path fill="#9DD685" d="M589.854,449.991c0.023,23.051-18.147,41.927-40.377,41.948c-22.225,0.022-40.433-18.819-40.454-41.872
					l-0.12-131.747c-0.026-23.05,18.145-41.93,40.371-41.951c22.229-0.021,40.433,18.819,40.457,41.873L589.854,449.991z"/>
			</g>
		</g>
	</g>
	<g id="Eyes">
		
			<ellipse transform="matrix(0.0055 -1 1 0.0055 133.0653 767.0754)" fill="#92CC76" cx="452.188" cy="316.638" rx="36.803" ry="37.434"/>
		<path fill="#92CC76" d="M548.011,281.869c20.673,0.113,37.345,16.625,37.234,36.883c-0.114,20.258-16.965,36.585-37.641,36.473
			c-20.675-0.112-37.347-16.626-37.231-36.884C510.482,298.083,527.329,281.754,548.011,281.869z"/>
		<circle fill="#FFFFFF" cx="453.204" cy="313.753" r="35.413"/>
		<circle fill="#FFFFFF" cx="548.807" cy="315.797" r="35.414"/>
		<g id="Pupils_1_">
			<circle fill="#777777" cx="453.137" cy="290.896" r="5.319"/>
			<circle fill="#777777" cx="548.746" cy="292.938" r="5.319"/>
		</g>
	</g>
</g>
<g>
	<path fill="#FFFFFF" d="M449.53,103.562h-3.486V89.452h-15.791v14.109h-3.486V73.579h3.486v12.756h15.791V73.579h3.486V103.562z"/>
	<path fill="#FFFFFF" d="M456.954,74.994c0-0.779,0.191-1.35,0.574-1.712s0.861-0.543,1.436-0.543c0.547,0,1.019,0.185,1.415,0.554
		s0.595,0.937,0.595,1.702s-0.198,1.336-0.595,1.712s-0.868,0.564-1.415,0.564c-0.574,0-1.053-0.188-1.436-0.564
		S456.954,75.76,456.954,74.994z M460.645,103.562h-3.404V81.085h3.404V103.562z"/>
	<path fill="#FFFFFF" d="M478.118,80.675c0.998,0,1.894,0.082,2.687,0.246l-0.472,3.158c-0.93-0.205-1.75-0.308-2.461-0.308
		c-1.818,0-3.374,0.738-4.666,2.215s-1.938,3.315-1.938,5.517v12.059h-3.404V81.085h2.81l0.39,4.163h0.164
		c0.834-1.463,1.839-2.591,3.015-3.384S476.709,80.675,478.118,80.675z"/>
	<path fill="#FFFFFF" d="M494.503,103.972c-3.322,0-5.944-1.012-7.865-3.035s-2.881-4.833-2.881-8.429
		c0-3.623,0.892-6.501,2.676-8.634s4.18-3.199,7.188-3.199c2.816,0,5.045,0.926,6.686,2.779c1.64,1.853,2.46,4.296,2.46,7.332v2.153
		h-15.483c0.068,2.639,0.735,4.642,2,6.009s3.045,2.051,5.342,2.051c2.42,0,4.812-0.506,7.178-1.518v3.035
		c-1.204,0.52-2.342,0.892-3.415,1.118S496.021,103.972,494.503,103.972z M493.581,83.525c-1.805,0-3.244,0.588-4.317,1.764
		s-1.706,2.803-1.897,4.881h11.751c0-2.146-0.479-3.791-1.436-4.932S495.358,83.525,493.581,83.525z"/>
	<path fill="#FFFFFF" d="M533.264,103.562l-10.172-26.578h-0.164c0.191,2.105,0.287,4.607,0.287,7.506v19.072h-3.221V73.579h5.25
		l9.496,24.732h0.164l9.576-24.732h5.209v29.982h-3.486V84.243c0-2.215,0.096-4.621,0.287-7.219h-0.164l-10.254,26.537H533.264z"/>
	<path fill="#FFFFFF" d="M566.896,103.972c-3.322,0-5.944-1.012-7.864-3.035c-1.922-2.023-2.882-4.833-2.882-8.429
		c0-3.623,0.892-6.501,2.677-8.634c1.783-2.133,4.18-3.199,7.188-3.199c2.816,0,5.045,0.926,6.686,2.779s2.461,4.296,2.461,7.332
		v2.153h-15.483c0.068,2.639,0.734,4.642,1.999,6.009s3.046,2.051,5.343,2.051c2.42,0,4.812-0.506,7.178-1.518v3.035
		c-1.203,0.52-2.342,0.892-3.415,1.118S568.413,103.972,566.896,103.972z M565.973,83.525c-1.805,0-3.244,0.588-4.316,1.764
		c-1.074,1.176-1.706,2.803-1.897,4.881h11.751c0-2.146-0.479-3.791-1.436-4.932S567.75,83.525,565.973,83.525z"/>
</g>
</svg>
