<?xml version="1.0" encoding="utf-8"?>
<!-- Generator: Adobe Illustrator 16.0.0, SVG Export Plug-In . SVG Version: 6.00 Build 0)  -->
<!DOCTYPE svg PUBLIC "-//W3C//DTD SVG 1.1//EN" "http://www.w3.org/Graphics/SVG/1.1/DTD/svg11.dtd">
<svg version="1.1" id="Layer_1" xmlns="http://www.w3.org/2000/svg" xmlns:xlink="http://www.w3.org/1999/xlink" x="0px" y="0px"
	 width="1000px" height="689px" viewBox="0 0 1000 689" enable-background="new 0 0 1000 689" xml:space="preserve">
<rect y="-725" fill="#B8DDCC" width="1000" height="688"/>
<rect x="-1034" y="-725" fill="#C8DFD6" width="1000" height="688"/>
<g>
	<g id="Body_1_">
		<g>
			<path opacity="0.1" d="M-437.718-219.209c-0.036,8.358-6.906,15.149-15.262,15.114l-172.072-0.83
				c-8.354-0.036-15.163-6.9-15.122-15.248l1.125-234.62c0.041-8.351,6.91-15.15,15.269-15.111l172.069,0.826
				c8.36,0.042,15.171,6.905,15.125,15.256L-437.718-219.209z"/>
		</g>
	</g>
	<g id="Limbs">
		<path opacity="0.05" enable-background="new    " d="M-532.879-178.099c67.295,0,121.847,5.697,121.847,12.72
			c0,7.03-54.552,12.727-121.847,12.727c-67.293,0-121.845-5.696-121.845-12.727C-654.724-172.401-600.172-178.099-532.879-178.099z
			"/>
		<g>
			<g>
				<g>
					<path fill="#9DD685" d="M-457.848-318.757c0.47-0.446,0.678-1.17,1.289-0.979c1.696,0.858,1.146,3.409,2.827,4.26l0.852-0.625
						c0.548,1.308,1.164,2.785,1.763,4.191c1.965,1.853,3.751,3.764,5.773,5.531c0.248-0.29,0.503-0.539,0.78-0.426
						c0.94,0.668,1.527,2.108,2.408,3.407l0.568,0.435c0.29,0,0.61-0.184,0.81-0.297c0.408,0.581,0.712,1.142,0.984,1.675
						c6.131,4.958,12.331,10.221,17.635,17.15c1.528,1.3,3.197,2.678,3.958,4.24c0.511,1.186,0.812,2.621,1.05,4.041
						c0.178,1.521,0.205,3.167,0.385,4.517c3.585-1.071,6.496,5.219,9.976,3.253c0.228,1.825,0.562,4.56,1.621,4.524
						c3.181-0.121,6.997,0.653,9.685,5.155c0.755,1.819-0.062,4.936,0.679,5.497c1.177,0.881,1.78-2.812,2.95-1.938
						c-0.615-7.125-1.839-14.013-3.194-20.888c-0.47-2.997-1.872-7.911-3.175-12.265c-1.626-4.02-3.113-8.237-5.088-11.909
						c-1.91-2.373-7.674-11.599-14.464-19.992c-6.728-8.465-14.239-16.448-17.172-19.842l-0.604-0.539
						c-3.273-3.636-7.812-7.48-11.794-9.17c-1.997-0.583-4.114-1.043-6.212-1.484c0.276,1.023,0.472,2.032,0.601,2.946
						c-1.363-1.326-2.791-2.598-3.774-2.562c-4.128-1.363-3.51,1.549-3.989,4.46c0.113,1.556-2.087,1.91-1.529,3.863
						c-0.893-0.824-1.34-1.228-2.234-2.046c-0.767,0.704,3.2,1.982,1.448,2.757c-0.63-1.052-2.029-1.406-2.931-2.194
						c-0.568,1.349,2.847,3.074,1.798,4.033c-0.692-0.171-1.34-3.644-2.645-2.422c-0.257,0.242,0.633,1.023,1.066,1.434
						c-3.177-1.931-5.733-1.825-4.396,1.719c-0.825-0.746-1.669-2.365-2.627-2.806l-0.017,0.03c0.342,0.333,0.954,1.285,1.346,1.619
						l-1.458-1.272l-0.206,0.768c0.228,0.455,0.526,0.915,0.91,1.25l-0.988-0.867c-0.096,0.661-0.144,1.323-0.144,1.981
						c0.509,1.854,0.63,4.091,1.248,4.658C-467.257-328.755-462.524-323.728-457.848-318.757z"/>
				</g>
			</g>
		</g>
		<g>
			<path fill="#9DD685" d="M-603.033-350.28c0,0-66.003,53.667-73.111,98.096"/>
			<g>
				<g>
					<path fill="#9DD685" d="M-637.501-342.908c0.485,0.511,1.28,0.702,1.034,1.405c-1.016,1.961-3.873,1.505-4.891,3.48
						l0.701,0.895c-1.473,0.796-3.123,1.676-4.709,2.529c-2.08,2.47-4.119,4.929-5.938,7.612c0.363,0.22,0.673,0.44,0.575,0.78
						c-0.655,1.193-2.171,2.302-3.528,3.65l-0.404,0.761c0.041,0.319,0.305,0.625,0.464,0.809c-0.608,0.611-1.173,1.137-1.721,1.611
						c-4.337,8.616-8.137,17.742-11.571,27.72c-0.369,2.329-0.486,4.814-1.156,6.804c-0.592,1.435-1.535,2.882-2.549,4.311
						c-0.943,1.471-1.874,2.955-2.609,4.281c3.754,1.437,2.436,8.559,6.789,8.87c-0.711,1.67-1.793,4.197-0.776,4.709
						c1.521,0.775,3.085,1.812,4.323,3.218c0.619,0.695,1.162,1.492,1.575,2.379c0.454,0.888,0.938,1.854,1.196,2.933
						c0.136,1.57-1.838,3.572-1.307,4.227c0.873,1.001,2.838-1.493,3.704-0.47c3.203-9.708,7.799-21.497,15.602-32.569
						c0.528-2.399,5.458-10.084,11.528-17.689c6.117-7.585,13.344-14.973,16.611-17.647l0.504-0.576
						c3.424-3.083,7.248-7.143,9.11-10.9c0.673-1.925,1.287-3.963,1.909-6.016c-1.069,0.079-2.1,0.107-3.043,0.086
						c1.453-1.186,2.896-2.379,2.967-3.389c1.88-3.892-1.111-3.949-4.092-4.963c-1.635-0.15-1.689-2.536-3.824-2.272
						c1.007-0.804,1.513-1.201,2.523-2.011c-0.633-0.95-2.615,3.04-3.164,1.058c1.214-0.496,1.818-1.916,2.834-2.726
						c-1.342-0.874-3.774,2.498-4.611,1.249c0.288-0.745,4.105-0.845,3.057-2.436c-0.207-0.327-1.229,0.488-1.741,0.887
						c2.63-3.06,3.245-5.9-0.951-5.042c1.042-0.816,2.895-1.342,3.897-2.499l-0.025-0.022c-0.634,0.434-1.793,0.902-2.293,1.294
						l1.918-1.472c-0.27-0.126-0.551-0.227-0.84-0.325c-0.654,0.234-1.186,0.448-1.686,0.831l1.26-0.973
						c-0.721-0.2-1.426-0.378-2.172-0.478c-2.234,0.285-4.726,0.1-5.525,0.732C-625.281-353.597-631.623-348.505-637.501-342.908z"
						/>
				</g>
			</g>
		</g>
		<g>
			<line fill="none" x1="-581.21" y1="-219.68" x2="-580.274" y2="-164.259"/>
			<g>
				<g>
					<path fill="#9DD685" d="M-596.348-206.171c0.607-0.008,1.207-0.206,1.492,0.077c0.589,0.889-1.43,1.647-0.836,2.536
						l0.978,0.048c-0.419,0.663-0.927,1.465-1.384,2.19c0.166,1.361,0.416,2.71,0.77,4.061c0.356-0.044,0.684-0.07,0.818,0.071
						c0.268,0.553-0.061,1.335-0.149,2.145l0.175,0.356c0.215,0.084,0.556,0.104,0.766,0.112c-0.024,0.37-0.11,0.695-0.215,0.993
						c1.995,3.928,4.32,7.912,6.631,12.229c0.916,0.91,1.832,1.812,2.258,2.692c0.396,1.307-0.215,2.996-0.301,4.281
						c3.449-0.255,5.19,2.842,8.667,2.161c-0.062,0.857-0.153,2.145,0.825,2.193c2.932,0.149,6.314,0.745,8.119,2.989
						c0.43,0.882-0.781,2.266-0.181,2.571c0.943,0.476,2.044-1.185,2.991-0.71c0.947-6.619-0.428-12.954-0.514-19.608
						c-1.568-2.236-2.498-17.491-1.885-21.425l-0.053-0.356c0.153-2.144-0.152-4.736-1.498-6.526
						c-0.824-0.817-1.828-1.641-2.795-2.463c-0.564,0.397-1.128,0.766-1.681,1.093c0.062-0.86,0.121-1.712-0.509-2.03
						c-1.51-1.798-3.214-0.739-5.553,0.006c-1.021,0.52-2.604-0.136-3.643,0.668c0.039-0.567,0.062-0.852,0.102-1.427
						c-0.982-0.05,0.526,1.747-1.08,1.385c0.364-0.562-0.243-1.165-0.203-1.74c-1.323,0.228-0.467,1.989-1.771,1.917
						c-0.306-0.299,1.749-1.627,0.124-1.711c-0.329-0.015-0.367,0.553-0.387,0.837c-0.531-1.747-2.098-2.684-3.846-1.057
						c0.039-0.555,0.715-1.352,0.482-1.939l-0.024,0.009c-0.052,0.289-0.379,0.807-0.398,1.077l0.073-1.001l-0.675,0.185
						c-0.196,0.256-0.354,0.512-0.375,0.766l0.046-0.666c-0.526,0.178-1.035,0.377-1.513,0.596
						c-1.035,0.803-2.563,1.592-2.592,2.018C-595.807-213.104-596.297-209.63-596.348-206.171z"/>
				</g>
			</g>
		</g>
		<g>
			<path fill="#ADD79E" d="M-467.621-177.275c0.003,0.011,0.009,0.019,0.012,0.031
				C-467.438-177.325-467.466-177.326-467.621-177.275z"/>
			<path fill="#ADD79E" d="M-478.778-171.401l-0.137,1.115C-478.869-170.659-478.824-171.027-478.778-171.401
				C-478.777-171.401-478.777-171.401-478.778-171.401z"/>
			<path fill="#ADD79E" d="M-479.012-169.812c0.003,0,0.007-0.012,0.011-0.018c0.002-0.005,0.003-0.01,0.007-0.017
				C-479.001-169.832-479.007-169.823-479.012-169.812z"/>
			<path fill="#ADD79E" d="M-478.915-170.286v0.007v0.029v0.063c-0.002,0.023-0.005,0.046-0.007,0.066
				C-478.911-170.204-478.914-170.264-478.915-170.286z"/>
			<path fill="#ADD79E" d="M-478.928-170.059c-0.022,0.084-0.005,0.021,0.006-0.062c-0.006,0.057-0.021,0.127-0.051,0.216
				c0.006-0.012,0.011-0.024,0.016-0.037C-478.943-169.985-478.932-170.03-478.928-170.059z"/>
			<path fill="#ADD79E" d="M-477.629-171.543l0.026-0.026c-0.057,0.048-0.106,0.091-0.155,0.132L-477.629-171.543z"/>
			<path fill="#ADD79E" d="M-478.979-169.874c0-0.003,0-0.005,0.001-0.008c-0.008,0.022-0.017,0.041-0.023,0.053
				C-479.01-169.801-479.009-169.802-478.979-169.874z"/>
			<path fill="#ADD79E" d="M-478.694-170.354l-0.117,0.161C-478.787-170.22-478.755-170.258-478.694-170.354z"/>
			<path fill="#ADD79E" d="M-476.558-172.537c0.021-0.017,0.041-0.032,0.062-0.049c-0.015,0.011-0.031,0.022-0.047,0.034
				C-476.55-172.548-476.551-172.541-476.558-172.537z"/>
			<path fill="#ADD79E" d="M-478.812-170.192c-0.012,0.012-0.024,0.03-0.035,0.048L-478.812-170.192z"/>
			<path fill="#ADD79E" d="M-478.119-171.101c0.115-0.125,0.233-0.232,0.361-0.337l-0.203,0.164
				C-478.012-171.222-478.066-171.158-478.119-171.101z"/>
			<path fill="#ADD79E" d="M-478.973-169.904c-0.009,0.022-0.017,0.043-0.021,0.059c0.005-0.014,0.012-0.022,0.017-0.038
				C-478.974-169.892-478.978-169.896-478.973-169.904z"/>
			<path fill="#ADD79E" d="M-478.694-170.354l0.015-0.019c0.149-0.248,0.324-0.471,0.5-0.665c-0.152,0.17-0.306,0.36-0.458,0.594
				C-478.662-170.399-478.677-170.38-478.694-170.354z"/>
			<path fill="#ADD79E" d="M-477.603-171.569c0.018-0.018,0.03-0.027,0.052-0.045c0.315-0.343,0.647-0.649,0.993-0.923
				c-0.19,0.151-0.387,0.313-0.596,0.512L-477.603-171.569z"/>
			<path fill="#ADD79E" d="M-478.18-171.037c0.021-0.021,0.04-0.042,0.061-0.063c-0.016,0.015-0.027,0.022-0.044,0.039
				C-478.168-171.055-478.174-171.044-478.18-171.037z"/>
			<polygon fill="#ADD79E" points="-478.978,-169.882 -478.978,-169.884 -478.978,-169.884 			"/>
			<path fill="#9DD685" d="M-469.391-185.663c-0.996-1.049-1.789-5.538-1.826-10.658c-0.072-5.078,0.515-10.531,1.201-12.698
				l-0.007-0.411c0.515-2.394,0.581-5.37-0.76-7.67c-0.874-1.094-1.96-2.245-2.997-3.395c-0.774,0.341-1.549,0.646-2.301,0.908
				c0.237-0.979,0.492-1.953-0.227-2.457c-1.497-2.407-3.837-1.582-6.891-1.214c-0.367,0.106-0.768,0.101-1.185,0.053l-0.334-4.271
				c0,0-0.283,1.53-0.694,4.111c-0.84-0.147-1.695-0.266-2.447,0.122c0.172-0.676,0.256-1.017,0.428-1.698
				c-1.199-0.276,0.283,2.216-1.634,1.428c0.566-0.59-0.05-1.456,0.128-2.145c-1.69-0.028-1.016,2.308-2.614,1.946
				c-0.319-0.443,2.522-1.606,0.524-2.074c-0.404-0.087-0.58,0.604-0.664,0.952c-0.279-2.252-1.981-3.625-4.533-1.984
				c0.183-0.695,1.201-1.182,1.074-2.182h-0.029c-0.15,1-0.678,0.779-0.768,1.125l0.341-1.386l-0.887,0.035
				c-0.307,0.292-0.564,0.551-0.653,0.877l0.227-0.855c-0.695,0.108-1.375,0.235-2.019,0.398c-1.478,0.804-3.551,1.445-3.685,1.986
				c-1.676,4.246-2.976,8.57-3.635,13.001c0.759,0.1,1.539-0.052,1.846,0.36c0.582,1.229-2.053,1.882-1.459,3.118l1.212,0.22
				c-0.627,0.796-1.38,1.746-2.062,2.62c0.016,1.798,0.143,3.594,0.431,5.406c0.451-0.015,0.867-0.007,1.019,0.183
				c0.271,0.754-0.235,1.739-0.419,2.807l0.184,0.49c0.26,0.127,0.691,0.191,0.952,0.219c-0.068,0.476-0.213,0.895-0.361,1.293
				c2.188,5.375,4.906,10.796,8.164,16.454c1.225,1.158,2.468,2.26,3.149,3.381c0.665,1.655,0.294,4.049,0.621,5.908
				c2.062-0.673,3.881-0.085,5.705,0.221c0.273,0.052,0.544,0.091,0.817,0.124c1.371,4.093,3.516,6.807,6.739,7.205l-0.535-6.818
				c0.047-0.021,0.088-0.028,0.138-0.056c0.436-0.232,0.89-0.476,1.337-0.718l0.973-7.854l0.002-0.007l0.003-0.005
				c-0.323,2.616-0.651,5.241-0.977,7.866c0.389-0.206,0.768-0.409,1.156-0.617l1.234-0.683l0.207-0.121
				c-0.1,0.071-0.207,0.152-0.316,0.236c0.12-0.091,0.24-0.177,0.36-0.262l0.345-0.202c0.134-0.065,0.314-0.203,0.322-0.221
				c0.008-0.005,0.013-0.009,0.02-0.012c0.412-0.257,0.991-0.704,1.499-1.003c0.528-0.319,1.064-0.61,1.61-0.858l0.832-0.362
				l1.037-0.54c0.888-0.475,2.404-1.078,2.85-1.229c-0.055-0.182-0.184-0.224-0.314-0.674
				C-468.553-179.469-469.32-182.431-469.391-185.663z M-476.034-172.923c0.017-0.011,0.034-0.021,0.051-0.033
				C-476-172.944-476.018-172.932-476.034-172.923z"/>
			<path fill="#ADD79E" d="M-478.877-170.096c0.012-0.021,0.02-0.033,0.03-0.049l-0.022,0.027
				C-478.871-170.112-478.875-170.101-478.877-170.096z"/>
			<path fill="#ADD79E" d="M-478.957-169.941c-0.006,0.021-0.014,0.039-0.021,0.057c0.032-0.078,0.063-0.154,0.101-0.211
				c-0.003,0.005-0.004,0.005-0.008,0.008C-478.898-170.077-478.929-170.009-478.957-169.941z"/>
		</g>
	</g>
	<g id="Body">
		<g>
			<path fill="#EDEDED" d="M-434.847-224.424c-0.035,8.24-6.803,14.936-15.033,14.9l-169.493-0.817
				c-8.23-0.035-14.938-6.804-14.896-15.033l1.108-231.311c0.041-8.232,6.808-14.937,15.04-14.897l169.492,0.814
				c8.234,0.041,14.942,6.808,14.897,15.041L-434.847-224.424z"/>
		</g>
	</g>
	<g id="Body_2_">
		<g>
			<path fill="#EDEDED" d="M-434.847-224.424c-0.035,8.24-6.803,14.936-15.033,14.9l-169.493-0.817
				c-8.23-0.035-14.938-6.804-14.896-15.033l1.108-231.311c0.041-8.232,6.808-14.937,15.04-14.897l169.492,0.814
				c8.234,0.041,14.942,6.808,14.897,15.041L-434.847-224.424z"/>
		</g>
	</g>
	<g id="Slider">
		<g>
			<g>
				<path fill="#92CC76" d="M-538.877-274.144c0.021,24.206-19.051,44.019-42.383,44.038c-23.334,0.022-42.445-19.756-42.467-43.951
					l-0.127-133.547c-0.022-24.199,19.048-44.016,42.377-44.037c23.334-0.023,42.447,19.754,42.468,43.953L-538.877-274.144z"/>
			</g>
			<g>
				<path fill="#9DD685" d="M-538.438-278.028c0.021,23.061-18.148,41.93-40.374,41.95c-22.233,0.031-40.438-18.818-40.462-41.871
					l-0.122-131.748c-0.021-23.047,18.146-41.926,40.375-41.947c22.227-0.022,40.434,18.82,40.455,41.872L-538.438-278.028z"/>
			</g>
		</g>
		<g>
			<g>
				<path fill="#92CC76" d="M-444.586-272.125c0.021,24.203-19.049,44.016-42.382,44.037c-23.333,0.029-42.445-19.749-42.472-43.953
					l-0.126-133.554c-0.023-24.196,19.047-44.012,42.384-44.032c23.331-0.021,42.439,19.759,42.465,43.957L-444.586-272.125z"/>
			</g>
			<g>
				<path fill="#9DD685" d="M-444.146-276.009c0.023,23.051-18.147,41.927-40.377,41.948c-22.225,0.022-40.433-18.819-40.454-41.872
					l-0.12-131.747c-0.026-23.05,18.145-41.93,40.371-41.951c22.229-0.021,40.433,18.819,40.457,41.873L-444.146-276.009z"/>
			</g>
		</g>
	</g>
	<g id="Eyes">
		
			<ellipse transform="matrix(0.0055 -1 1 0.0055 -169.2525 -988.9116)" fill="#92CC76" cx="-581.812" cy="-409.362" rx="36.803" ry="37.434"/>
		<path fill="#92CC76" d="M-485.989-444.131c20.673,0.113,37.345,16.625,37.234,36.883c-0.114,20.258-16.965,36.585-37.641,36.473
			c-20.675-0.112-37.347-16.626-37.231-36.884C-523.518-427.917-506.671-444.246-485.989-444.131z"/>
		<circle fill="#FFFFFF" cx="-580.796" cy="-412.247" r="35.413"/>
		<circle fill="#FFFFFF" cx="-485.193" cy="-410.203" r="35.414"/>
		<g id="Pupils_1_">
			<circle fill="#777777" cx="-580.863" cy="-435.104" r="5.319"/>
			<circle fill="#777777" cx="-485.254" cy="-433.062" r="5.319"/>
		</g>
	</g>
</g>
<g>
	<path fill="#FFFFFF" d="M-584.471-622.438h-3.486v-14.109h-15.791v14.109h-3.486v-29.982h3.486v12.756h15.791v-12.756h3.486
		V-622.438z"/>
	<path fill="#FFFFFF" d="M-577.047-651.006c0-0.779,0.191-1.35,0.574-1.712s0.861-0.543,1.436-0.543c0.547,0,1.02,0.185,1.416,0.554
		s0.594,0.937,0.594,1.702s-0.197,1.336-0.594,1.712s-0.869,0.564-1.416,0.564c-0.574,0-1.053-0.188-1.436-0.564
		S-577.047-650.24-577.047-651.006z M-573.355-622.438h-3.404v-22.477h3.404V-622.438z"/>
	<path fill="#FFFFFF" d="M-555.883-645.325c0.998,0,1.895,0.082,2.688,0.246l-0.473,3.158c-0.93-0.205-1.75-0.308-2.461-0.308
		c-1.818,0-3.373,0.738-4.665,2.215s-1.938,3.315-1.938,5.517v12.059h-3.404v-22.477h2.811l0.389,4.163h0.164
		c0.834-1.463,1.84-2.591,3.016-3.384S-557.291-645.325-555.883-645.325z"/>
	<path fill="#FFFFFF" d="M-539.496-622.028c-3.322,0-5.944-1.012-7.865-3.035s-2.881-4.833-2.881-8.429
		c0-3.623,0.892-6.501,2.676-8.634s4.18-3.199,7.188-3.199c2.816,0,5.045,0.926,6.686,2.779s2.461,4.296,2.461,7.332v2.153h-15.482
		c0.068,2.639,0.734,4.642,1.999,6.009s3.046,2.051,5.343,2.051c2.42,0,4.812-0.506,7.178-1.518v3.035
		c-1.203,0.52-2.342,0.892-3.415,1.118S-537.979-622.028-539.496-622.028z M-540.42-642.475c-1.805,0-3.243,0.588-4.316,1.764
		s-1.705,2.803-1.896,4.881h11.75c0-2.146-0.479-3.791-1.436-4.932S-538.643-642.475-540.42-642.475z"/>
	<path fill="#FFFFFF" d="M-500.736-622.438l-10.172-26.578h-0.164c0.191,2.105,0.287,4.607,0.287,7.506v19.072h-3.221v-29.982h5.25
		l9.496,24.732h0.164l9.576-24.732h5.209v29.982h-3.486v-19.318c0-2.215,0.096-4.621,0.287-7.219h-0.164l-10.254,26.537H-500.736z"
		/>
	<path fill="#FFFFFF" d="M-467.104-622.028c-3.322,0-5.944-1.012-7.864-3.035c-1.922-2.023-2.882-4.833-2.882-8.429
		c0-3.623,0.892-6.501,2.677-8.634c1.783-2.133,4.18-3.199,7.188-3.199c2.816,0,5.045,0.926,6.686,2.779s2.461,4.296,2.461,7.332
		v2.153h-15.483c0.068,2.639,0.734,4.642,1.999,6.009s3.046,2.051,5.343,2.051c2.42,0,4.812-0.506,7.178-1.518v3.035
		c-1.203,0.52-2.342,0.892-3.415,1.118S-465.587-622.028-467.104-622.028z M-468.027-642.475c-1.805,0-3.244,0.588-4.316,1.764
		c-1.074,1.176-1.706,2.803-1.897,4.881h11.751c0-2.146-0.479-3.791-1.436-4.932S-466.25-642.475-468.027-642.475z"/>
</g>
<g>
	<g id="Body_8_">
		<g>
			<path opacity="0.1" d="M596.282-219.209c-0.036,8.358-6.906,15.149-15.262,15.114l-172.072-0.83
				c-8.354-0.036-15.163-6.9-15.122-15.248l1.125-234.62c0.041-8.351,6.91-15.15,15.269-15.111l172.069,0.826
				c8.36,0.042,15.171,6.905,15.125,15.256L596.282-219.209z"/>
		</g>
	</g>
	<g id="Limbs_1_">
		<path opacity="0.05" enable-background="new    " d="M501.121-178.099c67.295,0,121.847,5.697,121.847,12.72
			c0,7.03-54.552,12.727-121.847,12.727c-67.293,0-121.845-5.696-121.845-12.727C379.276-172.401,433.828-178.099,501.121-178.099z"
			/>
		<g>
			<g>
				<g>
					<path fill="#9DD685" d="M576.152-318.757c0.47-0.446,0.678-1.17,1.289-0.979c1.696,0.858,1.146,3.409,2.827,4.26l0.852-0.625
						c0.548,1.308,1.164,2.785,1.763,4.191c1.965,1.853,3.751,3.764,5.773,5.531c0.248-0.29,0.503-0.539,0.78-0.426
						c0.94,0.668,1.527,2.108,2.408,3.407l0.568,0.435c0.29,0,0.61-0.184,0.81-0.297c0.408,0.581,0.712,1.142,0.984,1.675
						c6.131,4.958,12.331,10.221,17.635,17.15c1.528,1.3,3.197,2.678,3.958,4.24c0.511,1.186,0.812,2.621,1.05,4.041
						c0.178,1.521,0.205,3.167,0.385,4.517c3.585-1.071,6.496,5.219,9.976,3.253c0.228,1.825,0.562,4.56,1.621,4.524
						c3.181-0.121,6.997,0.653,9.685,5.155c0.755,1.819-0.062,4.936,0.679,5.497c1.177,0.881,1.78-2.812,2.95-1.938
						c-0.615-7.125-1.839-14.013-3.194-20.888c-0.47-2.997-1.872-7.911-3.175-12.265c-1.626-4.02-3.113-8.237-5.088-11.909
						c-1.91-2.373-7.674-11.599-14.464-19.992c-6.728-8.465-14.239-16.448-17.172-19.842l-0.604-0.539
						c-3.273-3.636-7.812-7.48-11.794-9.17c-1.997-0.583-4.114-1.043-6.212-1.484c0.276,1.023,0.472,2.032,0.601,2.946
						c-1.363-1.326-2.791-2.598-3.774-2.562c-4.128-1.363-3.51,1.549-3.989,4.46c0.113,1.556-2.087,1.91-1.529,3.863
						c-0.893-0.824-1.34-1.228-2.234-2.046c-0.767,0.704,3.2,1.982,1.448,2.757c-0.63-1.052-2.029-1.406-2.931-2.194
						c-0.568,1.349,2.847,3.074,1.798,4.033c-0.692-0.171-1.34-3.644-2.645-2.422c-0.257,0.242,0.633,1.023,1.066,1.434
						c-3.177-1.931-5.733-1.825-4.396,1.719c-0.825-0.746-1.669-2.365-2.627-2.806l-0.017,0.03c0.342,0.333,0.954,1.285,1.346,1.619
						l-1.458-1.272l-0.206,0.768c0.228,0.455,0.526,0.915,0.91,1.25l-0.988-0.867c-0.096,0.661-0.144,1.323-0.144,1.981
						c0.509,1.854,0.63,4.091,1.248,4.658C566.743-328.755,571.476-323.728,576.152-318.757z"/>
				</g>
			</g>
		</g>
		<g>
			<path fill="#9DD685" d="M430.967-350.28c0,0-66.003,53.667-73.111,98.096"/>
			<g>
				<g>
					<path fill="#9DD685" d="M396.499-342.908c0.485,0.511,1.28,0.702,1.034,1.405c-1.016,1.961-3.873,1.505-4.891,3.48l0.701,0.895
						c-1.473,0.796-3.123,1.676-4.709,2.529c-2.08,2.47-4.119,4.929-5.938,7.612c0.363,0.22,0.673,0.44,0.575,0.78
						c-0.655,1.193-2.171,2.302-3.528,3.65l-0.404,0.761c0.041,0.319,0.305,0.625,0.464,0.809c-0.608,0.611-1.173,1.137-1.721,1.611
						c-4.337,8.616-8.137,17.742-11.571,27.72c-0.369,2.329-0.486,4.814-1.156,6.804c-0.592,1.435-1.535,2.882-2.549,4.311
						c-0.943,1.471-1.874,2.955-2.609,4.281c3.754,1.437,2.436,8.559,6.789,8.87c-0.711,1.67-1.793,4.197-0.776,4.709
						c1.521,0.775,3.085,1.812,4.323,3.218c0.619,0.695,1.162,1.492,1.575,2.379c0.454,0.888,0.938,1.854,1.196,2.933
						c0.136,1.57-1.838,3.572-1.307,4.227c0.873,1.001,2.838-1.493,3.704-0.47c3.203-9.708,7.799-21.497,15.602-32.569
						c0.528-2.399,5.458-10.084,11.528-17.689c6.117-7.585,13.344-14.973,16.611-17.647l0.504-0.576
						c3.424-3.083,7.248-7.143,9.11-10.9c0.673-1.925,1.287-3.963,1.909-6.016c-1.069,0.079-2.1,0.107-3.043,0.086
						c1.453-1.186,2.896-2.379,2.967-3.389c1.88-3.892-1.111-3.949-4.092-4.963c-1.635-0.15-1.689-2.536-3.824-2.272
						c1.007-0.804,1.513-1.201,2.523-2.011c-0.633-0.95-2.615,3.04-3.164,1.058c1.214-0.496,1.818-1.916,2.834-2.726
						c-1.342-0.874-3.774,2.498-4.611,1.249c0.288-0.745,4.105-0.845,3.057-2.436c-0.207-0.327-1.229,0.488-1.741,0.887
						c2.63-3.06,3.245-5.9-0.951-5.042c1.042-0.816,2.895-1.342,3.897-2.499l-0.025-0.022c-0.634,0.434-1.793,0.902-2.293,1.294
						l1.918-1.472c-0.27-0.126-0.551-0.227-0.84-0.325c-0.654,0.234-1.186,0.448-1.686,0.831l1.26-0.973
						c-0.721-0.2-1.426-0.378-2.172-0.478c-2.234,0.285-4.726,0.1-5.525,0.732C408.719-353.597,402.377-348.505,396.499-342.908z"/>
				</g>
			</g>
		</g>
		<g>
			<line fill="none" x1="452.79" y1="-219.68" x2="453.726" y2="-164.259"/>
			<g>
				<g>
					<path fill="#9DD685" d="M437.652-206.171c0.607-0.008,1.207-0.206,1.492,0.077c0.589,0.889-1.43,1.647-0.836,2.536l0.978,0.048
						c-0.419,0.663-0.927,1.465-1.384,2.19c0.166,1.361,0.416,2.71,0.77,4.061c0.356-0.044,0.684-0.07,0.818,0.071
						c0.268,0.553-0.061,1.335-0.149,2.145l0.175,0.356c0.215,0.084,0.556,0.104,0.766,0.112c-0.024,0.37-0.11,0.695-0.215,0.993
						c1.995,3.928,4.32,7.912,6.631,12.229c0.916,0.91,1.832,1.812,2.258,2.692c0.396,1.307-0.215,2.996-0.301,4.281
						c3.449-0.255,5.19,2.842,8.667,2.161c-0.062,0.857-0.153,2.145,0.825,2.193c2.932,0.149,6.314,0.745,8.119,2.989
						c0.43,0.882-0.781,2.266-0.181,2.571c0.943,0.476,2.044-1.185,2.991-0.71c0.947-6.619-0.428-12.954-0.514-19.608
						c-1.568-2.236-2.498-17.491-1.885-21.425l-0.053-0.356c0.153-2.144-0.152-4.736-1.498-6.526
						c-0.824-0.817-1.828-1.641-2.795-2.463c-0.564,0.397-1.128,0.766-1.681,1.093c0.062-0.86,0.121-1.712-0.509-2.03
						c-1.51-1.798-3.214-0.739-5.553,0.006c-1.021,0.52-2.604-0.136-3.643,0.668c0.039-0.567,0.062-0.852,0.102-1.427
						c-0.982-0.05,0.526,1.747-1.08,1.385c0.364-0.562-0.243-1.165-0.203-1.74c-1.323,0.228-0.467,1.989-1.771,1.917
						c-0.306-0.299,1.749-1.627,0.124-1.711c-0.329-0.015-0.367,0.553-0.387,0.837c-0.531-1.747-2.098-2.684-3.846-1.057
						c0.039-0.555,0.715-1.352,0.482-1.939l-0.024,0.009c-0.052,0.289-0.379,0.807-0.398,1.077l0.073-1.001l-0.675,0.185
						c-0.196,0.256-0.354,0.512-0.375,0.766l0.046-0.666c-0.526,0.178-1.035,0.377-1.513,0.596
						c-1.035,0.803-2.563,1.592-2.592,2.018C438.193-213.104,437.703-209.63,437.652-206.171z"/>
				</g>
			</g>
		</g>
		<g>
			<path fill="#ADD79E" d="M566.379-177.275c0.003,0.011,0.009,0.019,0.012,0.031C566.562-177.325,566.534-177.326,566.379-177.275z
				"/>
			<path fill="#ADD79E" d="M555.222-171.401l-0.137,1.115C555.131-170.659,555.176-171.027,555.222-171.401
				C555.223-171.401,555.223-171.401,555.222-171.401z"/>
			<path fill="#ADD79E" d="M554.988-169.812c0.003,0,0.007-0.012,0.011-0.018c0.002-0.005,0.003-0.01,0.007-0.017
				C554.999-169.832,554.993-169.823,554.988-169.812z"/>
			<path fill="#ADD79E" d="M555.085-170.286v0.007v0.029v0.063c-0.002,0.023-0.005,0.046-0.007,0.066
				C555.089-170.204,555.086-170.264,555.085-170.286z"/>
			<path fill="#ADD79E" d="M555.072-170.059c-0.022,0.084-0.005,0.021,0.006-0.062c-0.006,0.057-0.021,0.127-0.051,0.216
				c0.006-0.012,0.011-0.024,0.016-0.037C555.057-169.985,555.068-170.03,555.072-170.059z"/>
			<path fill="#ADD79E" d="M556.371-171.543l0.026-0.026c-0.057,0.048-0.106,0.091-0.155,0.132L556.371-171.543z"/>
			<path fill="#ADD79E" d="M555.021-169.874c0-0.003,0-0.005,0.001-0.008c-0.008,0.022-0.017,0.041-0.023,0.053
				C554.99-169.801,554.991-169.802,555.021-169.874z"/>
			<path fill="#ADD79E" d="M555.306-170.354l-0.117,0.161C555.213-170.22,555.245-170.258,555.306-170.354z"/>
			<path fill="#ADD79E" d="M557.442-172.537c0.021-0.017,0.041-0.032,0.062-0.049c-0.015,0.011-0.031,0.022-0.047,0.034
				C557.45-172.548,557.449-172.541,557.442-172.537z"/>
			<path fill="#ADD79E" d="M555.188-170.192c-0.012,0.012-0.024,0.03-0.035,0.048L555.188-170.192z"/>
			<path fill="#ADD79E" d="M555.881-171.101c0.115-0.125,0.233-0.232,0.361-0.337l-0.203,0.164
				C555.988-171.222,555.934-171.158,555.881-171.101z"/>
			<path fill="#ADD79E" d="M555.027-169.904c-0.009,0.022-0.017,0.043-0.021,0.059c0.005-0.014,0.012-0.022,0.017-0.038
				C555.026-169.892,555.022-169.896,555.027-169.904z"/>
			<path fill="#ADD79E" d="M555.306-170.354l0.015-0.019c0.149-0.248,0.324-0.471,0.5-0.665c-0.152,0.17-0.306,0.36-0.458,0.594
				C555.338-170.399,555.323-170.38,555.306-170.354z"/>
			<path fill="#ADD79E" d="M556.397-171.569c0.018-0.018,0.03-0.027,0.052-0.045c0.315-0.343,0.647-0.649,0.993-0.923
				c-0.19,0.151-0.387,0.313-0.596,0.512L556.397-171.569z"/>
			<path fill="#ADD79E" d="M555.82-171.037c0.021-0.021,0.04-0.042,0.061-0.063c-0.016,0.015-0.027,0.022-0.044,0.039
				C555.832-171.055,555.826-171.044,555.82-171.037z"/>
			<polygon fill="#ADD79E" points="555.022,-169.882 555.022,-169.884 555.022,-169.884 			"/>
			<path fill="#9DD685" d="M564.609-185.663c-0.996-1.049-1.789-5.538-1.826-10.658c-0.072-5.078,0.515-10.531,1.201-12.698
				l-0.007-0.411c0.515-2.394,0.581-5.37-0.76-7.67c-0.874-1.094-1.96-2.245-2.997-3.395c-0.774,0.341-1.549,0.646-2.301,0.908
				c0.237-0.979,0.492-1.953-0.227-2.457c-1.497-2.407-3.837-1.582-6.891-1.214c-0.367,0.106-0.768,0.101-1.185,0.053l-0.334-4.271
				c0,0-0.283,1.53-0.694,4.111c-0.84-0.147-1.695-0.266-2.447,0.122c0.172-0.676,0.256-1.017,0.428-1.698
				c-1.199-0.276,0.283,2.216-1.634,1.428c0.566-0.59-0.05-1.456,0.128-2.145c-1.69-0.028-1.016,2.308-2.614,1.946
				c-0.319-0.443,2.522-1.606,0.524-2.074c-0.404-0.087-0.58,0.604-0.664,0.952c-0.279-2.252-1.981-3.625-4.533-1.984
				c0.183-0.695,1.201-1.182,1.074-2.182h-0.029c-0.15,1-0.678,0.779-0.768,1.125l0.341-1.386l-0.887,0.035
				c-0.307,0.292-0.564,0.551-0.653,0.877l0.227-0.855c-0.695,0.108-1.375,0.235-2.019,0.398c-1.478,0.804-3.551,1.445-3.685,1.986
				c-1.676,4.246-2.976,8.57-3.635,13.001c0.759,0.1,1.539-0.052,1.846,0.36c0.582,1.229-2.053,1.882-1.459,3.118l1.212,0.22
				c-0.627,0.796-1.38,1.746-2.062,2.62c0.016,1.798,0.143,3.594,0.431,5.406c0.451-0.015,0.867-0.007,1.019,0.183
				c0.271,0.754-0.235,1.739-0.419,2.807l0.184,0.49c0.26,0.127,0.691,0.191,0.952,0.219c-0.068,0.476-0.213,0.895-0.361,1.293
				c2.188,5.375,4.906,10.796,8.164,16.454c1.225,1.158,2.468,2.26,3.149,3.381c0.665,1.655,0.294,4.049,0.621,5.908
				c2.062-0.673,3.881-0.085,5.705,0.221c0.273,0.052,0.544,0.091,0.817,0.124c1.371,4.093,3.516,6.807,6.739,7.205l-0.535-6.818
				c0.047-0.021,0.088-0.028,0.138-0.056c0.436-0.232,0.89-0.476,1.337-0.718l0.973-7.854l0.002-0.007l0.003-0.005
				c-0.323,2.616-0.651,5.241-0.977,7.866c0.389-0.206,0.768-0.409,1.156-0.617l1.234-0.683l0.207-0.121
				c-0.1,0.071-0.207,0.152-0.316,0.236c0.12-0.091,0.24-0.177,0.36-0.262l0.345-0.202c0.134-0.065,0.314-0.203,0.322-0.221
				c0.008-0.005,0.013-0.009,0.02-0.012c0.412-0.257,0.991-0.704,1.499-1.003c0.528-0.319,1.064-0.61,1.61-0.858l0.832-0.362
				l1.037-0.54c0.888-0.475,2.404-1.078,2.85-1.229c-0.055-0.182-0.184-0.224-0.314-0.674
				C565.447-179.469,564.68-182.431,564.609-185.663z M557.966-172.923c0.017-0.011,0.034-0.021,0.051-0.033
				C558-172.944,557.982-172.932,557.966-172.923z"/>
			<path fill="#ADD79E" d="M555.123-170.096c0.012-0.021,0.02-0.033,0.03-0.049l-0.022,0.027
				C555.129-170.112,555.125-170.101,555.123-170.096z"/>
			<path fill="#ADD79E" d="M555.043-169.941c-0.006,0.021-0.014,0.039-0.021,0.057c0.032-0.078,0.063-0.154,0.101-0.211
				c-0.003,0.005-0.004,0.005-0.008,0.008C555.102-170.077,555.071-170.009,555.043-169.941z"/>
		</g>
	</g>
	<g id="Body_7_">
		<g>
			<path fill="#EDEDED" d="M599.153-224.424c-0.035,8.24-6.803,14.936-15.033,14.9l-169.493-0.817
				c-8.23-0.035-14.938-6.804-14.896-15.033l1.108-231.311c0.041-8.232,6.808-14.937,15.04-14.897l169.492,0.814
				c8.234,0.041,14.942,6.808,14.897,15.041L599.153-224.424z"/>
		</g>
	</g>
	<g id="Body_6_">
		<g>
			<path fill="#EDEDED" d="M599.153-224.424c-0.035,8.24-6.803,14.936-15.033,14.9l-169.493-0.817
				c-8.23-0.035-14.938-6.804-14.896-15.033l1.108-231.311c0.041-8.232,6.808-14.937,15.04-14.897l169.492,0.814
				c8.234,0.041,14.942,6.808,14.897,15.041L599.153-224.424z"/>
		</g>
	</g>
	<g id="Slider_2_">
		<g>
			<g>
				<path fill="#92CC76" d="M495.123-274.144c0.021,24.206-19.051,44.019-42.383,44.038c-23.334,0.022-42.445-19.756-42.467-43.951
					l-0.127-133.547c-0.022-24.199,19.048-44.016,42.377-44.037c23.334-0.023,42.447,19.754,42.468,43.953L495.123-274.144z"/>
			</g>
			<g>
				<path fill="#9DD685" d="M495.562-278.028c0.021,23.061-18.148,41.93-40.374,41.95c-22.233,0.031-40.438-18.818-40.462-41.871
					l-0.122-131.748c-0.021-23.047,18.146-41.926,40.375-41.947c22.227-0.022,40.434,18.82,40.455,41.872L495.562-278.028z"/>
			</g>
		</g>
		<g>
			<g>
				<path fill="#92CC76" d="M589.414-272.125c0.021,24.203-19.049,44.016-42.382,44.037c-23.333,0.029-42.445-19.749-42.472-43.953
					l-0.126-133.554c-0.023-24.196,19.047-44.012,42.384-44.032c23.331-0.021,42.439,19.759,42.465,43.957L589.414-272.125z"/>
			</g>
			<g>
				<path fill="#9DD685" d="M589.854-276.009c0.023,23.051-18.147,41.927-40.377,41.948c-22.225,0.022-40.433-18.819-40.454-41.872
					l-0.12-131.747c-0.026-23.05,18.145-41.93,40.371-41.951c22.229-0.021,40.433,18.819,40.457,41.873L589.854-276.009z"/>
			</g>
		</g>
	</g>
	<g id="Eyes_2_">
		
			<ellipse transform="matrix(0.0055 -1 1 0.0055 859.0543 45.0728)" fill="#92CC76" cx="452.188" cy="-409.362" rx="36.803" ry="37.434"/>
		<path fill="#92CC76" d="M548.011-444.131c20.673,0.113,37.345,16.625,37.234,36.883c-0.114,20.258-16.965,36.585-37.641,36.473
			c-20.675-0.112-37.347-16.626-37.231-36.884C510.482-427.917,527.329-444.246,548.011-444.131z"/>
		<circle fill="#FFFFFF" cx="453.204" cy="-412.247" r="35.413"/>
		<circle fill="#FFFFFF" cx="548.807" cy="-410.203" r="35.414"/>
		<g id="Pupils_3_">
			<circle fill="#777777" cx="453.137" cy="-435.104" r="5.319"/>
			<circle fill="#777777" cx="548.746" cy="-433.062" r="5.319"/>
		</g>
	</g>
</g>
<rect x="-1034" fill="#C8DFD6" width="1000" height="689"/>
<g id="Body_5_">
	<g>
		<path opacity="0.1" d="M-440.795,420.546c-0.457,8.346-7.66,14.782-16.003,14.327l-171.813-9.485
			c-8.342-0.457-14.797-7.655-14.335-15.989l12.927-234.267c0.461-8.338,7.664-14.784,16.009-14.324l171.81,9.481
			c8.348,0.463,14.805,7.66,14.339,15.998L-440.795,420.546z"/>
	</g>
</g>
<path opacity="0.05" enable-background="new    " d="M-532.879,550.091c55.715,0,100.879,4.717,100.879,10.531
	c0,5.82-45.164,10.536-100.879,10.536c-55.713,0-100.877-4.716-100.877-10.536C-633.756,554.808-588.592,550.091-532.879,550.091z"
	/>
<g>
	<g>
		<g>
			<path fill="#9DD685" d="M-440.358,267.555c2.524,3.377,3.265-4.314,5.343-1.786c3.259-5.141,7.866-6.125,11.976-9.643
				c5.312-4.546,12.088-7.314,17.706-11.511c5.12-3.824,10.425-7.329,12.45-13.62c0.563-1.751,0.12-2.889,1.982-2.698
				c1.118,0.114,2.201-0.373,3.166-0.868c1.855-0.952,4.17-2.59,6.16-0.971c0.578-1.922,0.97-4.31,3.559-3.986
				c2.752,0.344,7.019-0.423,8.512-3.116c0.797-1.439,0.713-5.026,2.29-5.85c1.497-0.767,1.094,3.169,2.583,2.405
				c-5.161,19.824-13.372,37.135-27.934,51.712c-7.563,7.571-15.795,14.435-24.178,21.073c-7.373,5.838-15.101,11.211-24.834,11.593
				c0.419-0.913,0.781-1.848,1.087-2.804c-1.541,1.062-4.597,2.85-6.506,1.849c-1.643-0.861-0.837-3.63-0.83-5.021
				c0.386-1.57-1.633-2.447-0.859-4.066c-0.847,0.551-1.695,1.098-2.546,1.643c-0.502-0.647,2.247-1.322,2.261-1.98
				c0.016-0.723-3.321,0.989-3.629,1.178c-0.332-1.419,3.435-2.408,2.45-3.675c-0.948,0.07-1.849,3.478-3.014,1.944
				c0.266-0.584,0.695-0.995,1.291-1.234c-2.156,0.854-6.01,0.928-4.045-2.432c-1.08,0.686-1.757,1.977-3.062,2.325
				c0.508-0.492,1.037-0.96,1.588-1.403c-0.519,0.388-1.069,0.725-1.65,1.01c0.416-1.388-0.932-0.673,1.031-1.87
				c-2.482,1.526-0.743-2.253-0.164-3.394c0.799-1.575,2.088-2.813,3.442-3.911C-450.069,274.667-445.146,271.174-440.358,267.555
				c0.423,0.564-2.205,1.689-2.328,1.913C-442.326,268.814-440.829,267.91-440.358,267.555
				C-437.701,271.109-445.803,271.67-440.358,267.555z"/>
		</g>
	</g>
</g>
<path fill="#9DD685" d="M-620.712,280.754c-0.027-1.387-1.917-2.743-2.793-3.533c1.015,0.03,2.027,0.11,3.035,0.238
	c-2.057-8.27-6.287-13.587-12.183-19.552c-6.58-6.656-12.464-14.184-17.613-21.986c-9.331-14.141-16.609-30.193-21.102-46.532
	c-1.896,2.023-4.729-3.813-2.743,2.392c0.575,1.794-0.929,3.95-1.955,5.333c-1.325,1.785-4.797,2.733-5.712,4.367
	c-2.501-3.734-5.002-7.468-7.503-11.202c0.479,4.411,1.503,8.752,2.853,12.974c1.21,3.785,3.137,7.387-0.588,10.55
	c-1.593,1.353-0.666,1.633,0.395,3.532c1.093,1.959,2.431,3.818,3.187,5.947c1.376,4.888,1.639,9.852,3.244,14.793
	c1.44,4.434,3.01,8.825,4.728,13.159c0.999,2.521,4.478,7.745,4.135,9.648c0.667,1.08,4.861,4.403,3.092,5.354
	c2.84,4.68,5.475,7.842,10.123,10.664c-2.677,2.774,6.367,2.597,2.861,5.932c6.083,6.406,15.9,19.162,25.835,16.931
	c-0.411-0.315-0.761-0.779-1.209-1.034c0.827,0.702,1.47,1.049,2.497,0.632c-0.601-0.481-1.169-1.199-1.842-1.566
	c0.3,0.261,1.988,1.224,2.251,1.387c-0.987-1.263-2.593-1.674-3.766-2.692c4.448,1.146,2.874-2.833,1.204-4.987
	c0.956,0.824,2.921,0.84,1.491-0.211c-0.584-0.43-2.483-0.661-2.727-1.402c0.954-1.279,3.177,2.274,4.543,1.479
	c-0.476-0.42-3.169-3.162-2.286-3.389c0.734-0.188,2.154,2.476,2.7,1.739c-0.806-0.712-1.612-1.424-2.419-2.135
	c0.922,0.116,1.655-0.193,2.197-0.93c0.871,0.846,1.746,1.686,2.626,2.521c0.978,0.928,1.963,1.847,2.959,2.755
	c-1.417-2.116-2.834-4.231-4.252-6.348C-622.695,284.723-619.051,284.687-620.712,280.754
	C-620.731,279.742-619.03,284.735-620.712,280.754z"/>
<g>
	<line fill="none" x1="-584.082" y1="412.856" x2="-585.936" y2="468.255"/>
	<g>
		<g>
			<path fill="#9DD685" d="M-599.88,425.587c3.4,0.126-0.306,1.254,0.523,2.643c0.325,0.032,0.65,0.065,0.975,0.098
				c-1.716,2.431-1.819,4.346-0.114,6.324c0.501,1.183-1.172,2.496,0.659,2.649c-0.354,3.008,2.602,7.044,3.951,9.809
				c0.939,1.924,1.706,3.477,3.034,5.143c1.551,1.946,0.62,3.45,0.36,5.642c3.17-0.074,5.311,3.06,8.548,2.594
				c-0.389,3.16,2.897,2.336,5.155,3.166c1.356,0.499,2.655,1.27,3.517,2.46c0.238,0.559-0.837,2.256-0.31,2.56
				c4.895,2.784,3.591-12.159,3.526-14.24c-0.139-4.421-0.884-8.467-1.146-12.871c-0.231-3.885,2.222-27.045-5.292-23.095
				c0.256-2.091-1.292-3.468-3.383-3.041c-2.024,0.413-6.381,2.397-6.068-0.223c-1.04-0.104,0.485,1.784-1.148,1.329
				c0.122-0.593,0.083-1.176-0.116-1.748c-1.196,0.145-0.625,1.956-1.864,1.825c-0.237-0.257,0.911-1.021,0.819-1.41
				c-0.282-1.199-1.02,0.373-1.038,0.524c-0.482-1.931-2.233-2.557-3.787-1.249c0.323-0.599,0.516-1.236,0.579-1.913
				c-0.03,0.192-0.448,0.833-0.477,1.063c0.041-0.332,0.082-0.664,0.123-0.996c-0.566,0.399-0.931-0.329-1.096,0.896
				c-0.449-1.359-2.551,0.444-3.67,1.229C-599.639,416.173-599.73,423.282-599.88,425.587
				C-599.273,425.609-599.655,422.135-599.88,425.587z"/>
		</g>
	</g>
</g>
<g>
	<path fill="#ADD79E" d="M-472.771,466.922c0.003,0.011,0.008,0.019,0.011,0.032C-472.585,466.881-472.613,466.879-472.771,466.922z
		"/>
	<path fill="#ADD79E" d="M-484.209,472.228c-0.064,0.369-0.128,0.737-0.192,1.106C-483.898,472.596-483.834,472.228-484.209,472.228
		z"/>
	<path fill="#ADD79E" d="M-484.522,473.803C-484.518,473.805-484.473,473.712-484.522,473.803
		C-484.52,473.804-484.517,473.792-484.522,473.803z"/>
	<path fill="#ADD79E" d="M-484.401,473.334C-484.408,473.417-484.417,473.69-484.401,473.334
		C-484.401,473.334-484.402,473.356-484.401,473.334z"/>
	<path fill="#ADD79E" d="M-484.426,473.561C-484.357,473.345-484.513,473.979-484.426,473.561
		C-484.452,473.644-484.432,473.589-484.426,473.561z"/>
	<path fill="#ADD79E" d="M-483.054,472.144C-482.877,472.016-483.489,472.459-483.054,472.144L-483.054,472.144z"/>
	<path fill="#ADD79E" d="M-484.486,473.742C-484.468,473.687-484.556,473.891-484.486,473.742
		C-484.485,473.739-484.52,473.813-484.486,473.742z"/>
	<path fill="#ADD79E" d="M-484.178,473.278l-0.125,0.154C-484.277,473.407-484.243,473.37-484.178,473.278z"/>
	<path fill="#ADD79E" d="M-481.934,471.205C-481.8,471.104-481.897,471.185-481.934,471.205
		C-481.913,471.189-481.927,471.201-481.934,471.205z"/>
	<path fill="#ADD79E" d="M-484.303,473.433c-0.013,0.012-0.026,0.029-0.038,0.046L-484.303,473.433z"/>
	<path fill="#ADD79E" d="M-483.565,472.561C-482.795,471.803-483.4,472.398-483.565,472.561
		C-483.444,472.441-483.51,472.506-483.565,472.561z"/>
	<path fill="#ADD79E" d="M-484.479,473.713C-484.537,473.842-484.494,473.734-484.479,473.713
		C-484.488,473.734-484.483,473.72-484.479,473.713z"/>
	<path fill="#ADD79E" d="M-484.178,473.278c0.184-0.218,0.366-0.438,0.548-0.657C-483.835,472.823-484.018,473.042-484.178,473.278z
		"/>
	<path fill="#ADD79E" d="M-483.026,472.118c0.374-0.292,0.738-0.597,1.093-0.913C-482.34,471.493-482.657,471.801-483.026,472.118z"
		/>
	<path fill="#ADD79E" d="M-483.63,472.621C-483.493,472.49-483.597,472.588-483.63,472.621
		C-483.608,472.601-483.623,472.614-483.63,472.621z"/>
	<path fill="#ADD79E" d="M-484,473.734c0-0.002,0-0.002,0-0.002V473.734z"/>
	<path fill="#9DD685" d="M-474.115,458.456c-3.677-4.282-1.134-16.263-0.046-21.201c0.977-4.433,2.149-15.09-4.929-13.017
		c1.115-3.766-2.636-4.43-5.448-4.155c-3.605,0.352-2.692-0.99-2.78-4.159c-0.182,0.784-0.359,1.57-0.531,2.356
		c-0.434,1.98-3.186,2.91-2.307,0.039c-1.184-0.336,0.125,2.205-1.703,1.344c0.274-0.689,0.353-1.401,0.235-2.135
		c-1.517-0.102-1.205,2.231-2.709,1.812c0.753,1.166,1.01-4.824-0.083-1.127c-0.178-2.432-2.101-3.971-4.402-2.648
		c0.584-0.769,0.986-1.623,1.208-2.564c0.403-0.824-0.968,1.808-0.878,1.523c0.133-0.383,0.265-0.766,0.397-1.148
		c-0.824,0.469-1.079-0.581-1.593,0.998c0.089-0.271,0.179-0.544,0.268-0.815c-7.531,0.788-8.812,8.492-10.102,14.921
		c4.444,0.807-2.017,3.352,1.41,3.777c-2.376,2.722-2.422,4.316-2.032,7.934c2.832,0.049-1.25,3.338,1.547,3.781
		c-0.816,4.193,3.15,10.422,4.999,14.277c1.184,2.471,2.407,4.122,4.086,6.217c1.69,2.107,0.805,4.616,1.113,7.09
		c1.961-0.532,3.791,0.091,5.687,0.508c1.423,0.344,1.257,1.76,1.847,3.017c1.051,2.244,2.781,4.236,5.332,4.683
		c-0.077-2.756-1.338-6.268,1.32-7.534c0.885-2.346,0.928-5.333,1.372-7.808c-0.455,2.603-0.915,5.205-1.371,7.808
		c0.125-0.059,3.221-1.685,2.338-1.068c2.655-1.819,5.991-3.351,9.1-4.237C-473.481,464.062-474.202,461.479-474.115,458.456
		C-475.058,457.358-474.208,461.688-474.115,458.456z M-481.392,470.846c0.017-0.01,0.035-0.02,0.052-0.03
		C-481.356,470.826-481.375,470.838-481.392,470.846z"/>
	<path fill="#ADD79E" d="M-484.373,473.526C-484.307,473.419-484.363,473.501-484.373,473.526
		C-484.36,473.506-484.371,473.521-484.373,473.526z"/>
	<path fill="#ADD79E" d="M-484.461,473.677C-484.551,473.944-484.23,473.188-484.461,473.677
		C-484.468,473.697-484.43,473.61-484.461,473.677z"/>
</g>
<g id="Body_4_">
	<g>
		<path fill="#EDEDED" d="M-437.666,415.482c-0.449,8.228-7.545,14.574-15.764,14.125l-169.237-9.344
			c-8.218-0.449-14.576-7.547-14.121-15.764l12.744-230.962c0.455-8.22,7.55-14.575,15.771-14.122l169.236,9.341
			c8.222,0.455,14.581,7.551,14.122,15.771L-437.666,415.482z"/>
	</g>
</g>
<g id="Body_3_">
	<g>
		<path fill="#EDEDED" d="M-437.666,415.482c-0.449,8.228-7.545,14.574-15.764,14.125l-169.237-9.344
			c-8.218-0.449-14.576-7.547-14.121-15.764l12.744-230.962c0.455-8.22,7.55-14.575,15.771-14.122l169.236,9.341
			c8.222,0.455,14.581,7.551,14.122,15.771L-437.666,415.482z"/>
	</g>
</g>
<g id="Slider_1_">
	<g>
		<g>
			<path fill="#92CC76" d="M-539.062,360.592c-1.198,24.176-21.242,43.004-44.545,41.85c-23.305-1.151-41.396-21.866-40.201-46.031
				l6.591-133.385c1.195-24.17,21.238-43.001,44.539-41.85c23.305,1.15,41.399,21.865,40.203,46.034L-539.062,360.592z"/>
		</g>
		<g>
			<path fill="#9DD685" d="M-538.428,356.734c-1.139,23.032-20.235,40.963-42.434,39.865c-22.206-1.087-39.441-20.829-38.304-43.854
				l6.506-131.587c1.138-23.02,20.232-40.96,42.434-39.863c22.2,1.096,39.436,20.831,38.297,43.854L-538.428,356.734z"/>
		</g>
	</g>
	<g>
		<g>
			<path fill="#92CC76" d="M-444.992,367.352c-1.196,24.173-21.239,43.001-44.544,41.849c-23.305-1.145-41.398-21.859-40.207-46.034
				l6.594-133.391c1.193-24.167,21.236-42.998,44.545-41.844c23.303,1.152,41.392,21.868,40.199,46.037L-444.992,367.352z"/>
		</g>
		<g>
			<path fill="#9DD685" d="M-444.358,363.494c-1.136,23.023-20.233,40.961-42.437,39.864c-22.197-1.096-39.435-20.83-38.296-43.854
				l6.508-131.586c1.134-23.022,20.231-40.964,42.431-39.867c22.202,1.097,39.435,20.83,38.299,43.855L-444.358,363.494z"/>
		</g>
	</g>
</g>
<g id="Eyes_1_">
	
		<ellipse transform="matrix(0.0558 -0.9984 0.9984 0.0558 -766.0786 -363.3272)" fill="#92CC76" cx="-575.141" cy="223.384" rx="36.803" ry="37.434"/>
	<path fill="#92CC76" d="M-477.69,193.48c20.642,1.153,36.461,18.482,35.332,38.709c-1.134,20.227-18.784,35.686-39.428,34.533
		s-36.463-18.484-35.329-38.71C-515.986,207.785-498.34,192.324-477.69,193.48z"/>
	<circle fill="#FFFFFF" cx="-573.981" cy="220.554" r="35.413"/>
	<circle fill="#FFFFFF" cx="-478.602" cy="227.406" r="35.414"/>
	<g id="Pupils_2_">
		<circle fill="#777777" cx="-573.854" cy="216.698" r="5.319"/>
		<circle fill="#777777" cx="-478.469" cy="223.549" r="5.319"/>
	</g>
</g>
<g>
	<path fill="#FFFFFF" d="M-584.47,103.562h-3.486V89.452h-15.791v14.109h-3.486V73.579h3.486v12.756h15.791V73.579h3.486V103.562z"
		/>
	<path fill="#FFFFFF" d="M-577.046,74.994c0-0.779,0.191-1.35,0.574-1.713c0.383-0.361,0.861-0.543,1.436-0.543
		c0.547,0,1.019,0.185,1.415,0.554s0.595,0.937,0.595,1.702s-0.198,1.336-0.595,1.713c-0.396,0.375-0.868,0.563-1.415,0.563
		c-0.574,0-1.053-0.188-1.436-0.563C-576.855,76.33-577.046,75.76-577.046,74.994z M-573.355,103.562h-3.404V81.085h3.404V103.562z"
		/>
	<path fill="#FFFFFF" d="M-555.882,80.675c0.998,0,1.894,0.082,2.687,0.246l-0.472,3.158c-0.93-0.205-1.75-0.308-2.461-0.308
		c-1.818,0-3.374,0.738-4.666,2.215s-1.938,3.315-1.938,5.517v12.059h-3.404V81.085h2.81l0.39,4.163h0.164
		c0.834-1.463,1.839-2.591,3.015-3.384S-557.291,80.675-555.882,80.675z"/>
	<path fill="#FFFFFF" d="M-539.497,103.972c-3.322,0-5.944-1.012-7.865-3.035s-2.881-4.833-2.881-8.429
		c0-3.623,0.892-6.501,2.676-8.634s4.18-3.199,7.188-3.199c2.816,0,5.045,0.927,6.686,2.778c1.64,1.854,2.46,4.297,2.46,7.332v2.153
		h-15.483c0.068,2.639,0.735,4.642,2,6.009s3.045,2.051,5.342,2.051c2.42,0,4.812-0.506,7.178-1.518v3.035
		c-1.204,0.52-2.342,0.893-3.415,1.117C-536.684,103.859-537.979,103.972-539.497,103.972z M-540.419,83.525
		c-1.805,0-3.244,0.588-4.317,1.764s-1.706,2.803-1.897,4.881h11.751c0-2.146-0.479-3.791-1.436-4.932
		C-537.275,84.096-538.642,83.525-540.419,83.525z"/>
	<path fill="#FFFFFF" d="M-500.736,103.562l-10.172-26.578h-0.164c0.191,2.105,0.287,4.607,0.287,7.506v19.072h-3.221V73.579h5.25
		l9.496,24.732h0.164l9.576-24.732h5.209v29.982h-3.486V84.243c0-2.215,0.096-4.621,0.287-7.219h-0.164l-10.254,26.537H-500.736z"/>
	<path fill="#FFFFFF" d="M-467.104,103.972c-3.322,0-5.944-1.012-7.864-3.035c-1.922-2.023-2.882-4.833-2.882-8.429
		c0-3.623,0.892-6.501,2.677-8.634c1.783-2.133,4.18-3.199,7.188-3.199c2.816,0,5.045,0.927,6.686,2.778
		c1.641,1.854,2.461,4.297,2.461,7.332v2.153h-15.483c0.068,2.639,0.734,4.642,1.999,6.009s3.046,2.051,5.343,2.051
		c2.42,0,4.812-0.506,7.178-1.518v3.035c-1.203,0.52-2.342,0.893-3.415,1.117C-464.292,103.859-465.587,103.972-467.104,103.972z
		 M-468.027,83.525c-1.805,0-3.244,0.588-4.316,1.764c-1.074,1.176-1.706,2.803-1.897,4.881h11.751c0-2.146-0.479-3.791-1.436-4.932
		C-464.883,84.096-466.25,83.525-468.027,83.525z"/>
</g>
<g>
	<path fill="#F2F2F2" d="M409.395-649.996c-3.138,0-5.615,1.045-7.432,3.135s-2.725,4.951-2.725,8.584
		c0,3.737,0.876,6.625,2.627,8.662c1.751,2.038,4.248,3.057,7.49,3.057c1.992,0,4.265-0.358,6.816-1.074v2.91
		c-1.979,0.742-4.421,1.113-7.324,1.113c-4.206,0-7.451-1.276-9.736-3.828c-2.285-2.552-3.428-6.178-3.428-10.879
		c0-2.942,0.55-5.521,1.65-7.734c1.101-2.213,2.688-3.919,4.766-5.117c2.077-1.198,4.521-1.797,7.334-1.797
		c2.995,0,5.612,0.547,7.852,1.641l-1.406,2.852C413.718-649.488,411.556-649.996,409.395-649.996z"/>
	<path fill="#F2F2F2" d="M440.391-634.723c0,3.49-0.879,6.214-2.637,8.174c-1.758,1.96-4.187,2.939-7.285,2.939
		c-1.914,0-3.613-0.449-5.098-1.348s-2.63-2.188-3.438-3.867s-1.211-3.646-1.211-5.898c0-3.489,0.872-6.208,2.617-8.154
		c1.745-1.946,4.167-2.92,7.266-2.92c2.995,0,5.374,0.996,7.139,2.988S440.391-638.121,440.391-634.723z M424.082-634.723
		c0,2.734,0.547,4.818,1.641,6.25c1.094,1.433,2.702,2.148,4.824,2.148s3.733-0.713,4.834-2.139s1.65-3.512,1.65-6.26
		c0-2.721-0.55-4.788-1.65-6.201c-1.101-1.413-2.725-2.119-4.873-2.119c-2.122,0-3.724,0.697-4.805,2.09
		C424.622-639.56,424.082-637.483,424.082-634.723z"/>
	<path fill="#F2F2F2" d="M460.723-624v-13.848c0-1.745-0.397-3.047-1.191-3.906s-2.038-1.289-3.73-1.289
		c-2.239,0-3.88,0.605-4.922,1.816s-1.562,3.21-1.562,5.996V-624h-3.242v-21.406h2.637l0.527,2.93h0.156
		c0.664-1.055,1.595-1.872,2.793-2.451c1.198-0.579,2.532-0.869,4.004-0.869c2.578,0,4.519,0.622,5.82,1.865
		c1.302,1.244,1.953,3.232,1.953,5.967V-624H460.723z"/>
	<path fill="#F2F2F2" d="M477.539-626.285c0.573,0,1.126-0.042,1.66-0.127c0.534-0.084,0.957-0.172,1.27-0.264v2.48
		c-0.352,0.169-0.869,0.309-1.553,0.42c-0.684,0.11-1.299,0.166-1.846,0.166c-4.141,0-6.211-2.181-6.211-6.543v-12.734h-3.066
		v-1.562l3.066-1.348l1.367-4.57h1.875v4.961h6.211v2.52h-6.211v12.598c0,1.289,0.306,2.279,0.918,2.969
		C475.632-626.63,476.472-626.285,477.539-626.285z"/>
	<path fill="#F2F2F2" d="M497.91-624l-0.645-3.047h-0.156c-1.067,1.341-2.132,2.25-3.193,2.725s-2.386,0.713-3.975,0.713
		c-2.122,0-3.786-0.547-4.99-1.641s-1.807-2.649-1.807-4.668c0-4.323,3.457-6.588,10.371-6.797l3.633-0.117v-1.328
		c0-1.68-0.361-2.92-1.084-3.721s-1.878-1.201-3.467-1.201c-1.784,0-3.802,0.547-6.055,1.641l-0.996-2.48
		c1.055-0.573,2.21-1.022,3.467-1.348c1.257-0.325,2.517-0.488,3.779-0.488c2.552,0,4.443,0.566,5.674,1.699
		s1.846,2.949,1.846,5.449V-624H497.91z M490.586-626.285c2.019,0,3.604-0.553,4.756-1.66c1.152-1.106,1.729-2.656,1.729-4.648
		v-1.934l-3.242,0.137c-2.578,0.091-4.437,0.492-5.576,1.201c-1.14,0.71-1.709,1.813-1.709,3.311c0,1.172,0.354,2.064,1.064,2.676
		C488.317-626.591,489.31-626.285,490.586-626.285z"/>
	<path fill="#F2F2F2" d="M515.547-623.609c-3.099,0-5.498-0.954-7.197-2.861c-1.699-1.907-2.549-4.606-2.549-8.096
		c0-3.581,0.862-6.348,2.588-8.301s4.183-2.93,7.373-2.93c1.028,0,2.058,0.111,3.086,0.332c1.028,0.222,1.836,0.482,2.422,0.781
		l-0.996,2.754c-0.716-0.286-1.497-0.524-2.344-0.713c-0.847-0.188-1.595-0.283-2.246-0.283c-4.349,0-6.523,2.773-6.523,8.32
		c0,2.63,0.53,4.648,1.592,6.055s2.634,2.109,4.717,2.109c1.784,0,3.613-0.384,5.488-1.152v2.871
		C519.524-623.98,517.722-623.609,515.547-623.609z"/>
	<path fill="#F2F2F2" d="M532.949-626.285c0.573,0,1.126-0.042,1.66-0.127c0.534-0.084,0.957-0.172,1.27-0.264v2.48
		c-0.352,0.169-0.869,0.309-1.553,0.42c-0.684,0.11-1.299,0.166-1.846,0.166c-4.141,0-6.211-2.181-6.211-6.543v-12.734h-3.066
		v-1.562l3.066-1.348l1.367-4.57h1.875v4.961h6.211v2.52h-6.211v12.598c0,1.289,0.306,2.279,0.918,2.969
		C531.042-626.63,531.882-626.285,532.949-626.285z"/>
	<path fill="#F2F2F2" d="M577.832-624v-13.926c0-1.706-0.364-2.985-1.094-3.838c-0.729-0.853-1.862-1.279-3.398-1.279
		c-2.019,0-3.509,0.58-4.473,1.738c-0.964,1.159-1.445,2.943-1.445,5.352V-624h-3.242v-13.926c0-1.706-0.364-2.985-1.094-3.838
		c-0.729-0.853-1.868-1.279-3.418-1.279c-2.031,0-3.519,0.609-4.463,1.826c-0.944,1.218-1.416,3.213-1.416,5.986V-624h-3.242
		v-21.406h2.637l0.527,2.93h0.156c0.612-1.042,1.475-1.855,2.588-2.441s2.36-0.879,3.74-0.879c3.347,0,5.534,1.211,6.562,3.633
		h0.156c0.638-1.12,1.562-2.005,2.773-2.656c1.211-0.651,2.591-0.977,4.141-0.977c2.422,0,4.235,0.622,5.439,1.865
		c1.204,1.244,1.807,3.232,1.807,5.967V-624H577.832z"/>
	<path fill="#F2F2F2" d="M596.797-623.609c-3.164,0-5.661-0.963-7.49-2.891c-1.829-1.927-2.744-4.603-2.744-8.027
		c0-3.45,0.85-6.191,2.549-8.223s3.981-3.047,6.846-3.047c2.683,0,4.805,0.882,6.367,2.646c1.562,1.765,2.344,4.092,2.344,6.982
		v2.051h-14.746c0.065,2.513,0.7,4.421,1.904,5.723c1.204,1.302,2.9,1.953,5.088,1.953c2.305,0,4.583-0.481,6.836-1.445v2.891
		c-1.146,0.495-2.229,0.85-3.252,1.064S598.242-623.609,596.797-623.609z M595.918-643.082c-1.719,0-3.089,0.56-4.111,1.68
		c-1.022,1.12-1.624,2.669-1.807,4.648h11.191c0-2.044-0.456-3.61-1.367-4.697C598.913-642.538,597.61-643.082,595.918-643.082z"/>
</g>
<rect x="1044" y="-725" fill="#B8DDCC" width="1000" height="688"/>
<g>
	<g id="Body_14_">
		<g>
			<path opacity="0.1" d="M1640.282-219.209c-0.036,8.358-6.906,15.149-15.262,15.114l-172.072-0.83
				c-8.354-0.036-15.163-6.9-15.122-15.248l1.125-234.62c0.041-8.351,6.91-15.15,15.269-15.111l172.069,0.826
				c8.36,0.042,15.171,6.905,15.125,15.256L1640.282-219.209z"/>
		</g>
	</g>
	<g id="Limbs_2_">
		<path opacity="0.05" enable-background="new    " d="M1545.121-178.099c67.295,0,121.847,5.697,121.847,12.72
			c0,7.03-54.552,12.727-121.847,12.727c-67.293,0-121.845-5.696-121.845-12.727
			C1423.276-172.401,1477.828-178.099,1545.121-178.099z"/>
		<g>
			<g>
				<g>
					<path fill="#9DD685" d="M1620.152-318.757c0.47-0.446,0.678-1.17,1.289-0.979c1.696,0.858,1.146,3.409,2.827,4.26l0.852-0.625
						c0.548,1.308,1.164,2.785,1.763,4.191c1.965,1.853,3.751,3.764,5.773,5.531c0.248-0.29,0.503-0.539,0.78-0.426
						c0.94,0.668,1.527,2.108,2.408,3.407l0.568,0.435c0.29,0,0.61-0.184,0.81-0.297c0.408,0.581,0.712,1.142,0.984,1.675
						c6.131,4.958,12.331,10.221,17.635,17.15c1.528,1.3,3.197,2.678,3.958,4.24c0.511,1.186,0.812,2.621,1.05,4.041
						c0.178,1.521,0.205,3.167,0.385,4.517c3.585-1.071,6.496,5.219,9.976,3.253c0.228,1.825,0.562,4.56,1.621,4.524
						c3.181-0.121,6.997,0.653,9.685,5.155c0.755,1.819-0.062,4.936,0.679,5.497c1.177,0.881,1.78-2.812,2.95-1.938
						c-0.615-7.125-1.839-14.013-3.194-20.888c-0.47-2.997-1.872-7.911-3.175-12.265c-1.626-4.02-3.113-8.237-5.088-11.909
						c-1.91-2.373-7.674-11.599-14.464-19.992c-6.728-8.465-14.239-16.448-17.172-19.842l-0.604-0.539
						c-3.273-3.636-7.812-7.48-11.794-9.17c-1.997-0.583-4.114-1.043-6.212-1.484c0.276,1.023,0.472,2.032,0.601,2.946
						c-1.363-1.326-2.791-2.598-3.774-2.562c-4.128-1.363-3.51,1.549-3.989,4.46c0.113,1.556-2.087,1.91-1.529,3.863
						c-0.893-0.824-1.34-1.228-2.234-2.046c-0.767,0.704,3.2,1.982,1.448,2.757c-0.63-1.052-2.029-1.406-2.931-2.194
						c-0.568,1.349,2.847,3.074,1.798,4.033c-0.692-0.171-1.34-3.644-2.645-2.422c-0.257,0.242,0.633,1.023,1.066,1.434
						c-3.177-1.931-5.733-1.825-4.396,1.719c-0.825-0.746-1.669-2.365-2.627-2.806l-0.017,0.03c0.342,0.333,0.954,1.285,1.346,1.619
						l-1.458-1.272l-0.206,0.768c0.228,0.455,0.526,0.915,0.91,1.25l-0.988-0.867c-0.096,0.661-0.144,1.323-0.144,1.981
						c0.509,1.854,0.63,4.091,1.248,4.658C1610.743-328.755,1615.476-323.728,1620.152-318.757z"/>
				</g>
			</g>
		</g>
		<g>
			<path fill="#9DD685" d="M1474.967-350.28c0,0-66.003,53.667-73.111,98.096"/>
			<g>
				<g>
					<path fill="#9DD685" d="M1440.499-342.908c0.485,0.511,1.28,0.702,1.034,1.405c-1.016,1.961-3.873,1.505-4.891,3.48
						l0.701,0.895c-1.473,0.796-3.123,1.676-4.709,2.529c-2.08,2.47-4.119,4.929-5.938,7.612c0.363,0.22,0.673,0.44,0.575,0.78
						c-0.655,1.193-2.171,2.302-3.528,3.65l-0.404,0.761c0.041,0.319,0.305,0.625,0.464,0.809c-0.608,0.611-1.173,1.137-1.721,1.611
						c-4.337,8.616-8.137,17.742-11.571,27.72c-0.369,2.329-0.486,4.814-1.156,6.804c-0.592,1.435-1.535,2.882-2.549,4.311
						c-0.943,1.471-1.874,2.955-2.609,4.281c3.754,1.437,2.436,8.559,6.789,8.87c-0.711,1.67-1.793,4.197-0.776,4.709
						c1.521,0.775,3.085,1.812,4.323,3.218c0.619,0.695,1.162,1.492,1.575,2.379c0.454,0.888,0.938,1.854,1.196,2.933
						c0.136,1.57-1.838,3.572-1.307,4.227c0.873,1.001,2.838-1.493,3.704-0.47c3.203-9.708,7.799-21.497,15.602-32.569
						c0.528-2.399,5.458-10.084,11.528-17.689c6.117-7.585,13.344-14.973,16.611-17.647l0.504-0.576
						c3.424-3.083,7.248-7.143,9.11-10.9c0.673-1.925,1.287-3.963,1.909-6.016c-1.069,0.079-2.1,0.107-3.043,0.086
						c1.453-1.186,2.896-2.379,2.967-3.389c1.88-3.892-1.111-3.949-4.092-4.963c-1.635-0.15-1.689-2.536-3.824-2.272
						c1.007-0.804,1.513-1.201,2.523-2.011c-0.633-0.95-2.615,3.04-3.164,1.058c1.214-0.496,1.818-1.916,2.834-2.726
						c-1.342-0.874-3.774,2.498-4.611,1.249c0.288-0.745,4.105-0.845,3.057-2.436c-0.207-0.327-1.229,0.488-1.741,0.887
						c2.63-3.06,3.245-5.9-0.951-5.042c1.042-0.816,2.895-1.342,3.897-2.499l-0.025-0.022c-0.634,0.434-1.793,0.902-2.293,1.294
						l1.918-1.472c-0.27-0.126-0.551-0.227-0.84-0.325c-0.654,0.234-1.186,0.448-1.686,0.831l1.26-0.973
						c-0.721-0.2-1.426-0.378-2.172-0.478c-2.234,0.285-4.726,0.1-5.525,0.732C1452.719-353.597,1446.377-348.505,1440.499-342.908z
						"/>
				</g>
			</g>
		</g>
		<g>
			<line fill="none" x1="1496.79" y1="-219.68" x2="1497.726" y2="-164.259"/>
			<g>
				<g>
					<path fill="#9DD685" d="M1481.652-206.171c0.607-0.008,1.207-0.206,1.492,0.077c0.589,0.889-1.43,1.647-0.836,2.536
						l0.978,0.048c-0.419,0.663-0.927,1.465-1.384,2.19c0.166,1.361,0.416,2.71,0.77,4.061c0.356-0.044,0.684-0.07,0.818,0.071
						c0.268,0.553-0.061,1.335-0.149,2.145l0.175,0.356c0.215,0.084,0.556,0.104,0.766,0.112c-0.024,0.37-0.11,0.695-0.215,0.993
						c1.995,3.928,4.32,7.912,6.631,12.229c0.916,0.91,1.832,1.812,2.258,2.692c0.396,1.307-0.215,2.996-0.301,4.281
						c3.449-0.255,5.19,2.842,8.667,2.161c-0.062,0.857-0.153,2.145,0.825,2.193c2.932,0.149,6.314,0.745,8.119,2.989
						c0.43,0.882-0.781,2.266-0.181,2.571c0.943,0.476,2.044-1.185,2.991-0.71c0.947-6.619-0.428-12.954-0.514-19.608
						c-1.568-2.236-2.498-17.491-1.885-21.425l-0.053-0.356c0.153-2.144-0.152-4.736-1.498-6.526
						c-0.824-0.817-1.828-1.641-2.795-2.463c-0.564,0.397-1.128,0.766-1.681,1.093c0.062-0.86,0.121-1.712-0.509-2.03
						c-1.51-1.798-3.214-0.739-5.553,0.006c-1.021,0.52-2.604-0.136-3.643,0.668c0.039-0.567,0.062-0.852,0.102-1.427
						c-0.982-0.05,0.526,1.747-1.08,1.385c0.364-0.562-0.243-1.165-0.203-1.74c-1.323,0.228-0.467,1.989-1.771,1.917
						c-0.306-0.299,1.749-1.627,0.124-1.711c-0.329-0.015-0.367,0.553-0.387,0.837c-0.531-1.747-2.098-2.684-3.846-1.057
						c0.039-0.555,0.715-1.352,0.482-1.939l-0.024,0.009c-0.052,0.289-0.379,0.807-0.398,1.077l0.073-1.001l-0.675,0.185
						c-0.196,0.256-0.354,0.512-0.375,0.766l0.046-0.666c-0.526,0.178-1.035,0.377-1.513,0.596
						c-1.035,0.803-2.563,1.592-2.592,2.018C1482.193-213.104,1481.703-209.63,1481.652-206.171z"/>
				</g>
			</g>
		</g>
		<g>
			<path fill="#ADD79E" d="M1610.379-177.275c0.003,0.011,0.009,0.019,0.012,0.031
				C1610.562-177.325,1610.534-177.326,1610.379-177.275z"/>
			<path fill="#ADD79E" d="M1599.222-171.401l-0.137,1.115C1599.131-170.659,1599.176-171.027,1599.222-171.401
				C1599.223-171.401,1599.223-171.401,1599.222-171.401z"/>
			<path fill="#ADD79E" d="M1598.988-169.812c0.003,0,0.007-0.012,0.011-0.018c0.002-0.005,0.003-0.01,0.007-0.017
				C1598.999-169.832,1598.993-169.823,1598.988-169.812z"/>
			<path fill="#ADD79E" d="M1599.085-170.286v0.007v0.029v0.063c-0.002,0.023-0.005,0.046-0.007,0.066
				C1599.089-170.204,1599.086-170.264,1599.085-170.286z"/>
			<path fill="#ADD79E" d="M1599.072-170.059c-0.022,0.084-0.005,0.021,0.006-0.062c-0.006,0.057-0.021,0.127-0.051,0.216
				c0.006-0.012,0.011-0.024,0.016-0.037C1599.057-169.985,1599.068-170.03,1599.072-170.059z"/>
			<path fill="#ADD79E" d="M1600.371-171.543l0.026-0.026c-0.057,0.048-0.106,0.091-0.155,0.132L1600.371-171.543z"/>
			<path fill="#ADD79E" d="M1599.021-169.874c0-0.003,0-0.005,0.001-0.008c-0.008,0.022-0.017,0.041-0.023,0.053
				C1598.99-169.801,1598.991-169.802,1599.021-169.874z"/>
			<path fill="#ADD79E" d="M1599.306-170.354l-0.117,0.161C1599.213-170.22,1599.245-170.258,1599.306-170.354z"/>
			<path fill="#ADD79E" d="M1601.442-172.537c0.021-0.017,0.041-0.032,0.062-0.049c-0.015,0.011-0.031,0.022-0.047,0.034
				C1601.45-172.548,1601.449-172.541,1601.442-172.537z"/>
			<path fill="#ADD79E" d="M1599.188-170.192c-0.012,0.012-0.024,0.03-0.035,0.048L1599.188-170.192z"/>
			<path fill="#ADD79E" d="M1599.881-171.101c0.115-0.125,0.233-0.232,0.361-0.337l-0.203,0.164
				C1599.988-171.222,1599.934-171.158,1599.881-171.101z"/>
			<path fill="#ADD79E" d="M1599.027-169.904c-0.009,0.022-0.017,0.043-0.021,0.059c0.005-0.014,0.012-0.022,0.017-0.038
				C1599.026-169.892,1599.022-169.896,1599.027-169.904z"/>
			<path fill="#ADD79E" d="M1599.306-170.354l0.015-0.019c0.149-0.248,0.324-0.471,0.5-0.665c-0.152,0.17-0.306,0.36-0.458,0.594
				C1599.338-170.399,1599.323-170.38,1599.306-170.354z"/>
			<path fill="#ADD79E" d="M1600.397-171.569c0.018-0.018,0.03-0.027,0.052-0.045c0.315-0.343,0.647-0.649,0.993-0.923
				c-0.19,0.151-0.387,0.313-0.596,0.512L1600.397-171.569z"/>
			<path fill="#ADD79E" d="M1599.82-171.037c0.021-0.021,0.04-0.042,0.061-0.063c-0.016,0.015-0.027,0.022-0.044,0.039
				C1599.832-171.055,1599.826-171.044,1599.82-171.037z"/>
			<polygon fill="#ADD79E" points="1599.022,-169.882 1599.022,-169.884 1599.022,-169.884 			"/>
			<path fill="#9DD685" d="M1608.609-185.663c-0.996-1.049-1.789-5.538-1.826-10.658c-0.072-5.078,0.515-10.531,1.201-12.698
				l-0.007-0.411c0.515-2.394,0.581-5.37-0.76-7.67c-0.874-1.094-1.96-2.245-2.997-3.395c-0.774,0.341-1.549,0.646-2.301,0.908
				c0.237-0.979,0.492-1.953-0.227-2.457c-1.497-2.407-3.837-1.582-6.891-1.214c-0.367,0.106-0.768,0.101-1.185,0.053l-0.334-4.271
				c0,0-0.283,1.53-0.694,4.111c-0.84-0.147-1.695-0.266-2.447,0.122c0.172-0.676,0.256-1.017,0.428-1.698
				c-1.199-0.276,0.283,2.216-1.634,1.428c0.566-0.59-0.05-1.456,0.128-2.145c-1.69-0.028-1.016,2.308-2.614,1.946
				c-0.319-0.443,2.522-1.606,0.524-2.074c-0.404-0.087-0.58,0.604-0.664,0.952c-0.279-2.252-1.981-3.625-4.533-1.984
				c0.183-0.695,1.201-1.182,1.074-2.182h-0.029c-0.15,1-0.678,0.779-0.768,1.125l0.341-1.386l-0.887,0.035
				c-0.307,0.292-0.564,0.551-0.653,0.877l0.227-0.855c-0.695,0.108-1.375,0.235-2.019,0.398c-1.478,0.804-3.551,1.445-3.685,1.986
				c-1.676,4.246-2.976,8.57-3.635,13.001c0.759,0.1,1.539-0.052,1.846,0.36c0.582,1.229-2.053,1.882-1.459,3.118l1.212,0.22
				c-0.627,0.796-1.38,1.746-2.062,2.62c0.016,1.798,0.143,3.594,0.431,5.406c0.451-0.015,0.867-0.007,1.019,0.183
				c0.271,0.754-0.235,1.739-0.419,2.807l0.184,0.49c0.26,0.127,0.691,0.191,0.952,0.219c-0.068,0.476-0.213,0.895-0.361,1.293
				c2.188,5.375,4.906,10.796,8.164,16.454c1.225,1.158,2.468,2.26,3.149,3.381c0.665,1.655,0.294,4.049,0.621,5.908
				c2.062-0.673,3.881-0.085,5.705,0.221c0.273,0.052,0.544,0.091,0.817,0.124c1.371,4.093,3.516,6.807,6.739,7.205l-0.535-6.818
				c0.047-0.021,0.088-0.028,0.138-0.056c0.436-0.232,0.89-0.476,1.337-0.718l0.973-7.854l0.002-0.007l0.003-0.005
				c-0.323,2.616-0.651,5.241-0.977,7.866c0.389-0.206,0.768-0.409,1.156-0.617l1.234-0.683l0.207-0.121
				c-0.1,0.071-0.207,0.152-0.316,0.236c0.12-0.091,0.24-0.177,0.36-0.262l0.345-0.202c0.134-0.065,0.314-0.203,0.322-0.221
				c0.008-0.005,0.013-0.009,0.02-0.012c0.412-0.257,0.991-0.704,1.499-1.003c0.528-0.319,1.064-0.61,1.61-0.858l0.832-0.362
				l1.037-0.54c0.888-0.475,2.404-1.078,2.85-1.229c-0.055-0.182-0.184-0.224-0.314-0.674
				C1609.447-179.469,1608.68-182.431,1608.609-185.663z M1601.966-172.923c0.017-0.011,0.034-0.021,0.051-0.033
				C1602-172.944,1601.982-172.932,1601.966-172.923z"/>
			<path fill="#ADD79E" d="M1599.123-170.096c0.012-0.021,0.02-0.033,0.03-0.049l-0.022,0.027
				C1599.129-170.112,1599.125-170.101,1599.123-170.096z"/>
			<path fill="#ADD79E" d="M1599.043-169.941c-0.006,0.021-0.014,0.039-0.021,0.057c0.032-0.078,0.063-0.154,0.101-0.211
				c-0.003,0.005-0.004,0.005-0.008,0.008C1599.102-170.077,1599.071-170.009,1599.043-169.941z"/>
		</g>
	</g>
	<g id="Body_13_">
		<g>
			<path fill="#EDEDED" d="M1643.153-224.424c-0.035,8.24-6.803,14.936-15.033,14.9l-169.493-0.817
				c-8.23-0.035-14.938-6.804-14.896-15.033l1.108-231.311c0.041-8.232,6.808-14.937,15.04-14.897l169.492,0.814
				c8.234,0.041,14.942,6.808,14.897,15.041L1643.153-224.424z"/>
		</g>
	</g>
	<g id="Body_12_">
		<g>
			<path fill="#EDEDED" d="M1643.153-224.424c-0.035,8.24-6.803,14.936-15.033,14.9l-169.493-0.817
				c-8.23-0.035-14.938-6.804-14.896-15.033l1.108-231.311c0.041-8.232,6.808-14.937,15.04-14.897l169.492,0.814
				c8.234,0.041,14.942,6.808,14.897,15.041L1643.153-224.424z"/>
		</g>
	</g>
	<g id="Slider_4_">
		<g>
			<g>
				<path fill="#92CC76" d="M1539.123-274.144c0.021,24.206-19.051,44.019-42.383,44.038c-23.334,0.022-42.445-19.756-42.467-43.951
					l-0.127-133.547c-0.022-24.199,19.048-44.016,42.377-44.037c23.334-0.023,42.447,19.754,42.468,43.953L1539.123-274.144z"/>
			</g>
			<g>
				<path fill="#9DD685" d="M1539.562-278.028c0.021,23.061-18.148,41.93-40.374,41.95c-22.233,0.031-40.438-18.818-40.462-41.871
					l-0.122-131.748c-0.021-23.047,18.146-41.926,40.375-41.947c22.227-0.022,40.434,18.82,40.455,41.872L1539.562-278.028z"/>
			</g>
		</g>
		<g>
			<g>
				<path fill="#92CC76" d="M1633.414-272.125c0.021,24.203-19.049,44.016-42.382,44.037c-23.333,0.029-42.445-19.749-42.472-43.953
					l-0.126-133.554c-0.023-24.196,19.047-44.012,42.384-44.032c23.331-0.021,42.439,19.759,42.465,43.957L1633.414-272.125z"/>
			</g>
			<g>
				<path fill="#9DD685" d="M1633.854-276.009c0.023,23.051-18.147,41.927-40.377,41.948c-22.225,0.022-40.433-18.819-40.454-41.872
					l-0.12-131.747c-0.026-23.05,18.145-41.93,40.371-41.951c22.229-0.021,40.433,18.819,40.457,41.873L1633.854-276.009z"/>
			</g>
		</g>
	</g>
	<g id="Eyes_4_">
		
			<ellipse transform="matrix(0.0055 -1 1 0.0055 1897.3062 1089.0569)" fill="#92CC76" cx="1496.188" cy="-409.362" rx="36.803" ry="37.434"/>
		<path fill="#92CC76" d="M1592.011-444.131c20.673,0.113,37.345,16.625,37.234,36.883c-0.114,20.258-16.965,36.585-37.641,36.473
			c-20.675-0.112-37.347-16.626-37.231-36.884C1554.482-427.917,1571.329-444.246,1592.011-444.131z"/>
		<circle fill="#FFFFFF" cx="1497.204" cy="-412.247" r="35.413"/>
		<circle fill="#FFFFFF" cx="1592.807" cy="-410.203" r="35.414"/>
		<g id="Pupils_5_">
			<circle fill="#777777" cx="1497.137" cy="-435.104" r="5.319"/>
			<circle fill="#777777" cx="1592.746" cy="-433.062" r="5.319"/>
		</g>
	</g>
</g>
<text transform="matrix(1 0 0 1 1437.2422 -624)" fill="#F2F2F2" font-family="'OpenSans'" font-size="40">Contact me</text>
<rect y="1" fill="#B8DDCC" width="1000" height="688"/>
<g id="Body_11_">
	<g>
		<path opacity="0.1" d="M593.205,420.546c-0.457,8.346-7.66,14.782-16.003,14.327l-171.813-9.485
			c-8.342-0.457-14.797-7.655-14.335-15.989l12.927-234.267c0.461-8.338,7.664-14.784,16.01-14.324l171.81,9.481
			c8.348,0.463,14.805,7.66,14.339,15.998L593.205,420.546z"/>
	</g>
</g>
<path opacity="0.05" enable-background="new    " d="M501.121,550.091c55.715,0,100.879,4.717,100.879,10.531
	c0,5.82-45.164,10.536-100.879,10.536c-55.713,0-100.877-4.716-100.877-10.536C400.244,554.808,445.408,550.091,501.121,550.091z"/>
<g>
	<g>
		<g>
			<path fill="#9DD685" d="M593.642,267.555c2.524,3.377,3.265-4.314,5.343-1.786c3.259-5.141,7.866-6.125,11.976-9.643
				c5.312-4.546,12.088-7.314,17.706-11.511c5.12-3.824,10.425-7.329,12.45-13.62c0.563-1.751,0.12-2.889,1.982-2.698
				c1.118,0.114,2.201-0.373,3.166-0.868c1.855-0.952,4.17-2.59,6.16-0.971c0.578-1.922,0.97-4.31,3.559-3.986
				c2.752,0.344,7.019-0.423,8.512-3.116c0.797-1.439,0.713-5.026,2.29-5.85c1.497-0.767,1.094,3.169,2.583,2.405
				c-5.161,19.824-13.372,37.135-27.934,51.712c-7.563,7.571-15.795,14.435-24.178,21.073c-7.373,5.838-15.101,11.211-24.834,11.593
				c0.419-0.913,0.781-1.848,1.087-2.804c-1.541,1.062-4.597,2.85-6.506,1.849c-1.643-0.861-0.837-3.63-0.83-5.021
				c0.386-1.57-1.633-2.447-0.859-4.066c-0.847,0.551-1.695,1.098-2.546,1.643c-0.502-0.647,2.247-1.322,2.261-1.98
				c0.016-0.723-3.321,0.989-3.629,1.178c-0.332-1.419,3.435-2.408,2.45-3.675c-0.948,0.07-1.849,3.478-3.014,1.944
				c0.266-0.584,0.695-0.995,1.291-1.234c-2.156,0.854-6.01,0.928-4.045-2.432c-1.08,0.686-1.757,1.977-3.062,2.325
				c0.508-0.492,1.037-0.96,1.588-1.403c-0.519,0.388-1.069,0.725-1.65,1.01c0.416-1.388-0.932-0.673,1.031-1.87
				c-2.482,1.526-0.743-2.253-0.164-3.394c0.799-1.575,2.088-2.813,3.442-3.911C583.931,274.667,588.854,271.174,593.642,267.555
				c0.423,0.564-2.205,1.689-2.328,1.913C591.674,268.814,593.171,267.91,593.642,267.555
				C596.299,271.109,588.197,271.67,593.642,267.555z"/>
		</g>
	</g>
</g>
<path fill="#9DD685" d="M413.288,280.754c-0.026-1.387-1.917-2.743-2.793-3.533c1.015,0.03,2.026,0.11,3.034,0.238
	c-2.057-8.27-6.287-13.587-12.182-19.552c-6.58-6.656-12.465-14.184-17.613-21.986c-9.332-14.141-16.609-30.193-21.103-46.532
	c-1.896,2.023-4.729-3.813-2.743,2.392c0.574,1.794-0.93,3.95-1.955,5.333c-1.324,1.785-4.797,2.733-5.712,4.367
	c-2.501-3.734-5.003-7.468-7.503-11.202c0.479,4.411,1.502,8.752,2.853,12.974c1.21,3.785,3.137,7.387-0.588,10.55
	c-1.593,1.353-0.665,1.633,0.396,3.532c1.092,1.959,2.43,3.818,3.187,5.947c1.376,4.888,1.64,9.852,3.244,14.793
	c1.44,4.434,3.011,8.825,4.728,13.159c1,2.521,4.479,7.745,4.135,9.648c0.668,1.08,4.861,4.403,3.093,5.354
	c2.84,4.68,5.475,7.842,10.122,10.664c-2.676,2.774,6.367,2.597,2.861,5.932c6.082,6.406,15.9,19.162,25.835,16.931
	c-0.411-0.315-0.761-0.779-1.21-1.034c0.828,0.702,1.471,1.049,2.497,0.632c-0.601-0.481-1.169-1.199-1.842-1.566
	c0.3,0.261,1.988,1.224,2.251,1.387c-0.986-1.263-2.593-1.674-3.766-2.692c4.447,1.146,2.873-2.833,1.203-4.987
	c0.956,0.824,2.922,0.84,1.491-0.211c-0.585-0.43-2.483-0.661-2.728-1.402c0.954-1.279,3.178,2.274,4.543,1.479
	c-0.476-0.42-3.168-3.162-2.285-3.389c0.734-0.188,2.153,2.476,2.699,1.739c-0.807-0.712-1.612-1.424-2.42-2.135
	c0.923,0.116,1.655-0.193,2.197-0.93c0.871,0.846,1.746,1.686,2.627,2.521c0.978,0.928,1.963,1.847,2.959,2.755
	c-1.418-2.116-2.834-4.231-4.252-6.348C411.305,284.723,414.949,284.687,413.288,280.754
	C413.269,279.742,414.97,284.735,413.288,280.754z"/>
<g>
	<line fill="none" x1="449.918" y1="412.856" x2="448.064" y2="468.255"/>
	<g>
		<g>
			<path fill="#9DD685" d="M434.12,425.587c3.399,0.126-0.306,1.254,0.522,2.643c0.325,0.032,0.65,0.065,0.975,0.098
				c-1.715,2.431-1.818,4.346-0.113,6.324c0.501,1.183-1.172,2.496,0.658,2.649c-0.354,3.008,2.602,7.044,3.951,9.809
				c0.939,1.924,1.706,3.477,3.034,5.143c1.552,1.946,0.62,3.45,0.36,5.642c3.17-0.074,5.311,3.06,8.548,2.594
				c-0.389,3.16,2.897,2.336,5.155,3.166c1.355,0.499,2.654,1.27,3.517,2.46c0.238,0.559-0.837,2.256-0.31,2.56
				c4.895,2.784,3.592-12.159,3.525-14.24c-0.139-4.421-0.883-8.467-1.145-12.871c-0.232-3.885,2.222-27.045-5.292-23.095
				c0.257-2.091-1.292-3.468-3.383-3.041c-2.024,0.413-6.381,2.397-6.068-0.223c-1.04-0.104,0.485,1.784-1.147,1.329
				c0.121-0.593,0.082-1.176-0.116-1.748c-1.196,0.145-0.626,1.956-1.864,1.825c-0.237-0.257,0.91-1.021,0.818-1.41
				c-0.281-1.199-1.02,0.373-1.037,0.524c-0.482-1.931-2.232-2.557-3.787-1.249c0.323-0.599,0.516-1.236,0.579-1.913
				c-0.03,0.192-0.448,0.833-0.477,1.063c0.041-0.332,0.082-0.664,0.123-0.996c-0.566,0.399-0.931-0.329-1.097,0.896
				c-0.448-1.359-2.551,0.444-3.67,1.229C434.361,416.173,434.27,423.282,434.12,425.587
				C434.727,425.609,434.345,422.135,434.12,425.587z"/>
		</g>
	</g>
</g>
<g>
	<path fill="#ADD79E" d="M561.229,466.922c0.003,0.011,0.008,0.019,0.011,0.032C561.415,466.881,561.387,466.879,561.229,466.922z"
		/>
	<path fill="#ADD79E" d="M549.791,472.228c-0.064,0.369-0.128,0.737-0.192,1.106C550.102,472.596,550.166,472.228,549.791,472.228z"
		/>
	<path fill="#ADD79E" d="M549.478,473.803C549.482,473.805,549.527,473.712,549.478,473.803
		C549.48,473.804,549.483,473.792,549.478,473.803z"/>
	<path fill="#ADD79E" d="M549.599,473.334C549.592,473.417,549.583,473.69,549.599,473.334
		C549.599,473.334,549.598,473.356,549.599,473.334z"/>
	<path fill="#ADD79E" d="M549.574,473.561C549.643,473.345,549.487,473.979,549.574,473.561
		C549.548,473.644,549.568,473.589,549.574,473.561z"/>
	<path fill="#ADD79E" d="M550.946,472.144C551.123,472.016,550.511,472.459,550.946,472.144L550.946,472.144z"/>
	<path fill="#ADD79E" d="M549.514,473.742C549.532,473.687,549.444,473.891,549.514,473.742
		C549.515,473.739,549.48,473.813,549.514,473.742z"/>
	<path fill="#ADD79E" d="M549.822,473.278l-0.125,0.154C549.723,473.407,549.757,473.37,549.822,473.278z"/>
	<path fill="#ADD79E" d="M552.066,471.205C552.2,471.104,552.103,471.185,552.066,471.205
		C552.087,471.189,552.073,471.201,552.066,471.205z"/>
	<path fill="#ADD79E" d="M549.697,473.433c-0.013,0.012-0.026,0.029-0.038,0.046L549.697,473.433z"/>
	<path fill="#ADD79E" d="M550.435,472.561C551.205,471.803,550.6,472.398,550.435,472.561
		C550.556,472.441,550.49,472.506,550.435,472.561z"/>
	<path fill="#ADD79E" d="M549.521,473.713C549.463,473.842,549.506,473.734,549.521,473.713
		C549.512,473.734,549.517,473.72,549.521,473.713z"/>
	<path fill="#ADD79E" d="M549.822,473.278c0.184-0.218,0.366-0.438,0.548-0.657C550.165,472.823,549.982,473.042,549.822,473.278z"
		/>
	<path fill="#ADD79E" d="M550.974,472.118c0.374-0.292,0.738-0.597,1.093-0.913C551.66,471.493,551.343,471.801,550.974,472.118z"/>
	<path fill="#ADD79E" d="M550.37,472.621C550.507,472.49,550.403,472.588,550.37,472.621
		C550.392,472.601,550.377,472.614,550.37,472.621z"/>
	<path fill="#ADD79E" d="M550,473.734c0-0.002,0-0.002,0-0.002V473.734z"/>
	<path fill="#9DD685" d="M559.885,458.456c-3.677-4.282-1.134-16.263-0.046-21.201c0.977-4.433,2.149-15.09-4.929-13.017
		c1.115-3.766-2.636-4.43-5.448-4.155c-3.605,0.352-2.692-0.99-2.78-4.159c-0.182,0.784-0.359,1.57-0.531,2.356
		c-0.434,1.98-3.186,2.91-2.307,0.039c-1.184-0.336,0.125,2.205-1.703,1.344c0.274-0.689,0.353-1.401,0.235-2.135
		c-1.517-0.102-1.205,2.231-2.709,1.812c0.753,1.166,1.01-4.824-0.083-1.127c-0.178-2.432-2.101-3.971-4.402-2.648
		c0.584-0.769,0.986-1.623,1.208-2.564c0.403-0.824-0.968,1.808-0.878,1.523c0.133-0.383,0.265-0.766,0.397-1.148
		c-0.824,0.469-1.079-0.581-1.593,0.998c0.089-0.271,0.179-0.544,0.268-0.815c-7.531,0.788-8.812,8.492-10.102,14.921
		c4.444,0.807-2.017,3.352,1.41,3.777c-2.376,2.722-2.422,4.316-2.032,7.934c2.832,0.049-1.25,3.338,1.547,3.781
		c-0.816,4.193,3.15,10.422,4.999,14.277c1.184,2.471,2.407,4.122,4.086,6.217c1.69,2.107,0.805,4.616,1.113,7.09
		c1.961-0.532,3.791,0.091,5.687,0.508c1.423,0.344,1.257,1.76,1.847,3.017c1.051,2.244,2.781,4.236,5.332,4.683
		c-0.077-2.756-1.338-6.268,1.32-7.534c0.885-2.346,0.928-5.333,1.372-7.808c-0.455,2.603-0.915,5.205-1.371,7.808
		c0.125-0.059,3.221-1.685,2.338-1.068c2.655-1.819,5.991-3.351,9.1-4.237C560.519,464.062,559.798,461.479,559.885,458.456
		C558.942,457.358,559.792,461.688,559.885,458.456z M552.608,470.846c0.017-0.01,0.035-0.02,0.052-0.03
		C552.644,470.826,552.625,470.838,552.608,470.846z"/>
	<path fill="#ADD79E" d="M549.627,473.526C549.693,473.419,549.637,473.501,549.627,473.526
		C549.64,473.506,549.629,473.521,549.627,473.526z"/>
	<path fill="#ADD79E" d="M549.539,473.677C549.449,473.944,549.77,473.188,549.539,473.677
		C549.532,473.697,549.57,473.61,549.539,473.677z"/>
</g>
<g id="Body_10_">
	<g>
		<path fill="#EDEDED" d="M596.334,415.482c-0.449,8.228-7.545,14.574-15.764,14.125l-169.237-9.344
			c-8.218-0.449-14.575-7.547-14.12-15.764l12.743-230.962c0.455-8.22,7.55-14.575,15.771-14.122l169.236,9.341
			c8.222,0.455,14.581,7.551,14.122,15.771L596.334,415.482z"/>
	</g>
</g>
<g id="Body_9_">
	<g>
		<path fill="#EDEDED" d="M596.334,415.482c-0.449,8.228-7.545,14.574-15.764,14.125l-169.237-9.344
			c-8.218-0.449-14.575-7.547-14.12-15.764l12.743-230.962c0.455-8.22,7.55-14.575,15.771-14.122l169.236,9.341
			c8.222,0.455,14.581,7.551,14.122,15.771L596.334,415.482z"/>
	</g>
</g>
<g id="Slider_3_">
	<g>
		<g>
			<path fill="#92CC76" d="M494.938,360.592c-1.197,24.176-21.242,43.004-44.545,41.85c-23.305-1.151-41.396-21.866-40.201-46.031
				l6.592-133.385c1.194-24.17,21.237-43.001,44.539-41.85c23.305,1.15,41.398,21.865,40.202,46.034L494.938,360.592z"/>
		</g>
		<g>
			<path fill="#9DD685" d="M495.572,356.734c-1.139,23.032-20.235,40.963-42.434,39.865c-22.207-1.087-39.441-20.829-38.305-43.854
				l6.506-131.587c1.139-23.02,20.232-40.96,42.435-39.863c22.2,1.096,39.436,20.831,38.297,43.854L495.572,356.734z"/>
		</g>
	</g>
	<g>
		<g>
			<path fill="#92CC76" d="M589.008,367.352c-1.196,24.173-21.239,43.001-44.544,41.849c-23.305-1.145-41.398-21.859-40.207-46.034
				l6.594-133.391c1.193-24.167,21.236-42.998,44.545-41.844c23.303,1.152,41.392,21.868,40.199,46.037L589.008,367.352z"/>
		</g>
		<g>
			<path fill="#9DD685" d="M589.642,363.494c-1.136,23.023-20.233,40.961-42.437,39.864c-22.197-1.096-39.435-20.83-38.296-43.854
				l6.508-131.586c1.134-23.022,20.231-40.964,42.431-39.867c22.202,1.097,39.435,20.83,38.299,43.855L589.642,363.494z"/>
		</g>
	</g>
</g>
<g id="Eyes_3_">
	
		<ellipse transform="matrix(0.0558 -0.9984 0.9984 0.0558 210.2112 669.0594)" fill="#92CC76" cx="458.859" cy="223.384" rx="36.803" ry="37.434"/>
	<path fill="#92CC76" d="M556.31,193.48c20.642,1.153,36.461,18.482,35.332,38.709c-1.134,20.227-18.784,35.686-39.428,34.533
		s-36.463-18.484-35.329-38.71C518.014,207.785,535.66,192.324,556.31,193.48z"/>
	<circle fill="#FFFFFF" cx="460.02" cy="220.554" r="35.413"/>
	<circle fill="#FFFFFF" cx="555.398" cy="227.406" r="35.414"/>
	<g id="Pupils_4_">
		<circle fill="#777777" cx="460.146" cy="216.698" r="5.319"/>
		<circle fill="#777777" cx="555.531" cy="223.549" r="5.319"/>
	</g>
</g>
<g>
	<path fill="#F2F2F2" d="M456.67,102h-3.281l-5.762-19.121c-0.273-0.846-0.579-1.914-0.918-3.203s-0.515-2.063-0.527-2.324
		c-0.286,1.719-0.742,3.601-1.367,5.645L439.229,102h-3.281l-7.598-28.555h3.516l4.512,17.637c0.625,2.475,1.081,4.714,1.367,6.719
		c0.352-2.383,0.872-4.713,1.562-6.992l5.117-17.363h3.516l5.371,17.52c0.625,2.019,1.152,4.297,1.582,6.836
		c0.247-1.849,0.716-4.102,1.406-6.758l4.492-17.598h3.516L456.67,102z"/>
	<path fill="#F2F2F2" d="M486.768,91.277c0,3.49-0.879,6.215-2.637,8.174c-1.758,1.96-4.187,2.939-7.285,2.939
		c-1.914,0-3.613-0.449-5.098-1.348s-2.63-2.188-3.438-3.867s-1.211-3.646-1.211-5.898c0-3.489,0.872-6.207,2.617-8.154
		c1.745-1.946,4.167-2.92,7.266-2.92c2.995,0,5.374,0.996,7.139,2.988S486.768,87.879,486.768,91.277z M470.459,91.277
		c0,2.734,0.547,4.818,1.641,6.25c1.094,1.433,2.702,2.148,4.824,2.148s3.733-0.713,4.834-2.139s1.65-3.512,1.65-6.26
		c0-2.721-0.55-4.788-1.65-6.201c-1.101-1.412-2.725-2.119-4.873-2.119c-2.122,0-3.724,0.697-4.805,2.09
		C470.999,86.44,470.459,88.518,470.459,91.277z"/>
	<path fill="#F2F2F2" d="M510.928,91.277c0,3.49-0.879,6.215-2.637,8.174c-1.758,1.96-4.187,2.939-7.285,2.939
		c-1.914,0-3.613-0.449-5.098-1.348s-2.63-2.188-3.438-3.867s-1.211-3.646-1.211-5.898c0-3.489,0.872-6.207,2.617-8.154
		c1.745-1.946,4.167-2.92,7.266-2.92c2.995,0,5.374,0.996,7.139,2.988S510.928,87.879,510.928,91.277z M494.619,91.277
		c0,2.734,0.547,4.818,1.641,6.25c1.094,1.433,2.702,2.148,4.824,2.148s3.733-0.713,4.834-2.139s1.65-3.512,1.65-6.26
		c0-2.721-0.55-4.788-1.65-6.201c-1.101-1.412-2.725-2.119-4.873-2.119c-2.122,0-3.724,0.697-4.805,2.09
		C495.159,86.44,494.619,88.518,494.619,91.277z"/>
	<path fill="#F2F2F2" d="M535.088,91.277c0,3.49-0.879,6.215-2.637,8.174c-1.758,1.96-4.187,2.939-7.285,2.939
		c-1.914,0-3.613-0.449-5.098-1.348s-2.63-2.188-3.438-3.867s-1.211-3.646-1.211-5.898c0-3.489,0.872-6.207,2.617-8.154
		c1.745-1.946,4.167-2.92,7.266-2.92c2.995,0,5.374,0.996,7.139,2.988S535.088,87.879,535.088,91.277z M518.779,91.277
		c0,2.734,0.547,4.818,1.641,6.25c1.094,1.433,2.702,2.148,4.824,2.148s3.733-0.713,4.834-2.139s1.65-3.512,1.65-6.26
		c0-2.721-0.55-4.788-1.65-6.201c-1.101-1.412-2.725-2.119-4.873-2.119c-2.122,0-3.724,0.697-4.805,2.09
		C519.319,86.44,518.779,88.518,518.779,91.277z"/>
	<path fill="#F2F2F2" d="M559.248,91.277c0,3.49-0.879,6.215-2.637,8.174c-1.758,1.96-4.187,2.939-7.285,2.939
		c-1.914,0-3.613-0.449-5.098-1.348s-2.63-2.188-3.438-3.867s-1.211-3.646-1.211-5.898c0-3.489,0.872-6.207,2.617-8.154
		c1.745-1.946,4.167-2.92,7.266-2.92c2.995,0,5.374,0.996,7.139,2.988S559.248,87.879,559.248,91.277z M542.939,91.277
		c0,2.734,0.547,4.818,1.641,6.25c1.094,1.433,2.702,2.148,4.824,2.148s3.733-0.713,4.834-2.139s1.65-3.512,1.65-6.26
		c0-2.721-0.55-4.788-1.65-6.201c-1.101-1.412-2.725-2.119-4.873-2.119c-2.122,0-3.724,0.697-4.805,2.09
		C543.479,86.44,542.939,88.518,542.939,91.277z"/>
	<path fill="#F2F2F2" d="M564.463,99.93c0-1.771,0.781-2.656,2.344-2.656c0.755,0,1.338,0.229,1.748,0.684
		c0.41,0.456,0.615,1.113,0.615,1.973c0,0.834-0.208,1.481-0.625,1.943s-0.996,0.693-1.738,0.693c-0.677,0-1.237-0.205-1.68-0.615
		S564.463,100.867,564.463,99.93z M567.861,94.129h-2.051l-0.996-20.684h4.043L567.861,94.129z"/>
</g>
<rect x="1044" y="1" fill="#B8DDCC" width="1000" height="688"/>
<g id="Body_17_">
	<g>
		<path opacity="0.1" d="M1637.205,420.546c-0.457,8.346-7.66,14.782-16.003,14.327l-171.813-9.485
			c-8.342-0.457-14.797-7.655-14.335-15.989l12.927-234.267c0.461-8.338,7.664-14.784,16.01-14.324l171.81,9.481
			c8.348,0.463,14.805,7.66,14.339,15.998L1637.205,420.546z"/>
	</g>
</g>
<path opacity="0.05" enable-background="new    " d="M1545.121,550.091c55.715,0,100.879,4.717,100.879,10.531
	c0,5.82-45.164,10.536-100.879,10.536c-55.713,0-100.877-4.716-100.877-10.536C1444.244,554.808,1489.408,550.091,1545.121,550.091z
	"/>
<g>
	<g>
		<g>
			<path fill="#9DD685" d="M1637.642,267.555c2.524,3.377,3.265-4.314,5.343-1.786c3.259-5.141,7.866-6.125,11.976-9.643
				c5.312-4.546,12.088-7.314,17.706-11.511c5.12-3.824,10.425-7.329,12.45-13.62c0.563-1.751,0.12-2.889,1.982-2.698
				c1.118,0.114,2.201-0.373,3.166-0.868c1.855-0.952,4.17-2.59,6.16-0.971c0.578-1.922,0.97-4.31,3.559-3.986
				c2.752,0.344,7.019-0.423,8.512-3.116c0.797-1.439,0.713-5.026,2.29-5.85c1.497-0.767,1.094,3.169,2.583,2.405
				c-5.161,19.824-13.372,37.135-27.934,51.712c-7.563,7.571-15.795,14.435-24.178,21.073c-7.373,5.838-15.101,11.211-24.834,11.593
				c0.419-0.913,0.781-1.848,1.087-2.804c-1.541,1.062-4.597,2.85-6.506,1.849c-1.643-0.861-0.837-3.63-0.83-5.021
				c0.386-1.57-1.633-2.447-0.859-4.066c-0.847,0.551-1.695,1.098-2.546,1.643c-0.502-0.647,2.247-1.322,2.261-1.98
				c0.016-0.723-3.321,0.989-3.629,1.178c-0.332-1.419,3.435-2.408,2.45-3.675c-0.948,0.07-1.849,3.478-3.014,1.944
				c0.266-0.584,0.695-0.995,1.291-1.234c-2.156,0.854-6.01,0.928-4.045-2.432c-1.08,0.686-1.757,1.977-3.062,2.325
				c0.508-0.492,1.037-0.96,1.588-1.403c-0.519,0.388-1.069,0.725-1.65,1.01c0.416-1.388-0.932-0.673,1.031-1.87
				c-2.482,1.526-0.743-2.253-0.164-3.394c0.799-1.575,2.088-2.813,3.442-3.911C1627.931,274.667,1632.854,271.174,1637.642,267.555
				c0.423,0.564-2.205,1.689-2.328,1.913C1635.674,268.814,1637.171,267.91,1637.642,267.555
				C1640.299,271.109,1632.197,271.67,1637.642,267.555z"/>
		</g>
	</g>
</g>
<path fill="#9DD685" d="M1457.288,280.754c-0.026-1.387-1.917-2.743-2.793-3.533c1.015,0.03,2.026,0.11,3.034,0.238
	c-2.057-8.27-6.287-13.587-12.182-19.552c-6.58-6.656-12.465-14.184-17.613-21.986c-9.332-14.141-16.609-30.193-21.103-46.532
	c-1.896,2.023-4.729-3.813-2.743,2.392c0.574,1.794-0.93,3.95-1.955,5.333c-1.324,1.785-4.797,2.733-5.712,4.367
	c-2.501-3.734-5.003-7.468-7.503-11.202c0.479,4.411,1.502,8.752,2.853,12.974c1.21,3.785,3.137,7.387-0.588,10.55
	c-1.593,1.353-0.665,1.633,0.396,3.532c1.092,1.959,2.43,3.818,3.187,5.947c1.376,4.888,1.64,9.852,3.244,14.793
	c1.44,4.434,3.011,8.825,4.728,13.159c1,2.521,4.479,7.745,4.135,9.648c0.668,1.08,4.861,4.403,3.093,5.354
	c2.84,4.68,5.475,7.842,10.122,10.664c-2.676,2.774,6.367,2.597,2.861,5.932c6.082,6.406,15.9,19.162,25.835,16.931
	c-0.411-0.315-0.761-0.779-1.21-1.034c0.828,0.702,1.471,1.049,2.497,0.632c-0.601-0.481-1.169-1.199-1.842-1.566
	c0.3,0.261,1.988,1.224,2.251,1.387c-0.986-1.263-2.593-1.674-3.766-2.692c4.447,1.146,2.873-2.833,1.203-4.987
	c0.956,0.824,2.922,0.84,1.491-0.211c-0.585-0.43-2.483-0.661-2.728-1.402c0.954-1.279,3.178,2.274,4.543,1.479
	c-0.476-0.42-3.168-3.162-2.285-3.389c0.734-0.188,2.153,2.476,2.699,1.739c-0.807-0.712-1.612-1.424-2.42-2.135
	c0.923,0.116,1.655-0.193,2.197-0.93c0.871,0.846,1.746,1.686,2.627,2.521c0.978,0.928,1.963,1.847,2.959,2.755
	c-1.418-2.116-2.834-4.231-4.252-6.348C1455.305,284.723,1458.949,284.687,1457.288,280.754
	C1457.269,279.742,1458.97,284.735,1457.288,280.754z"/>
<g>
	<line fill="none" x1="1493.918" y1="412.856" x2="1492.064" y2="468.255"/>
	<g>
		<g>
			<path fill="#9DD685" d="M1478.12,425.587c3.399,0.126-0.306,1.254,0.522,2.643c0.325,0.032,0.65,0.065,0.975,0.098
				c-1.715,2.431-1.818,4.346-0.113,6.324c0.501,1.183-1.172,2.496,0.658,2.649c-0.354,3.008,2.602,7.044,3.951,9.809
				c0.939,1.924,1.706,3.477,3.034,5.143c1.552,1.946,0.62,3.45,0.36,5.642c3.17-0.074,5.311,3.06,8.548,2.594
				c-0.389,3.16,2.897,2.336,5.155,3.166c1.355,0.499,2.654,1.27,3.517,2.46c0.238,0.559-0.837,2.256-0.31,2.56
				c4.895,2.784,3.592-12.159,3.525-14.24c-0.139-4.421-0.883-8.467-1.145-12.871c-0.232-3.885,2.222-27.045-5.292-23.095
				c0.257-2.091-1.292-3.468-3.383-3.041c-2.024,0.413-6.381,2.397-6.068-0.223c-1.04-0.104,0.485,1.784-1.147,1.329
				c0.121-0.593,0.082-1.176-0.116-1.748c-1.196,0.145-0.626,1.956-1.864,1.825c-0.237-0.257,0.91-1.021,0.818-1.41
				c-0.281-1.199-1.02,0.373-1.037,0.524c-0.482-1.931-2.232-2.557-3.787-1.249c0.323-0.599,0.516-1.236,0.579-1.913
				c-0.03,0.192-0.448,0.833-0.477,1.063c0.041-0.332,0.082-0.664,0.123-0.996c-0.566,0.399-0.931-0.329-1.097,0.896
				c-0.448-1.359-2.551,0.444-3.67,1.229C1478.361,416.173,1478.27,423.282,1478.12,425.587
				C1478.727,425.609,1478.345,422.135,1478.12,425.587z"/>
		</g>
	</g>
</g>
<g>
	<path fill="#ADD79E" d="M1605.229,466.922c0.003,0.011,0.008,0.019,0.011,0.032
		C1605.415,466.881,1605.387,466.879,1605.229,466.922z"/>
	<path fill="#ADD79E" d="M1593.791,472.228c-0.064,0.369-0.128,0.737-0.192,1.106
		C1594.102,472.596,1594.166,472.228,1593.791,472.228z"/>
	<path fill="#ADD79E" d="M1593.478,473.803C1593.482,473.805,1593.527,473.712,1593.478,473.803
		C1593.48,473.804,1593.483,473.792,1593.478,473.803z"/>
	<path fill="#ADD79E" d="M1593.599,473.334C1593.592,473.417,1593.583,473.69,1593.599,473.334
		C1593.599,473.334,1593.598,473.356,1593.599,473.334z"/>
	<path fill="#ADD79E" d="M1593.574,473.561C1593.643,473.345,1593.487,473.979,1593.574,473.561
		C1593.548,473.644,1593.568,473.589,1593.574,473.561z"/>
	<path fill="#ADD79E" d="M1594.946,472.144C1595.123,472.016,1594.511,472.459,1594.946,472.144L1594.946,472.144z"/>
	<path fill="#ADD79E" d="M1593.514,473.742C1593.532,473.687,1593.444,473.891,1593.514,473.742
		C1593.515,473.739,1593.48,473.813,1593.514,473.742z"/>
	<path fill="#ADD79E" d="M1593.822,473.278l-0.125,0.154C1593.723,473.407,1593.757,473.37,1593.822,473.278z"/>
	<path fill="#ADD79E" d="M1596.066,471.205C1596.2,471.104,1596.103,471.185,1596.066,471.205
		C1596.087,471.189,1596.073,471.201,1596.066,471.205z"/>
	<path fill="#ADD79E" d="M1593.697,473.433c-0.013,0.012-0.026,0.029-0.038,0.046L1593.697,473.433z"/>
	<path fill="#ADD79E" d="M1594.435,472.561C1595.205,471.803,1594.6,472.398,1594.435,472.561
		C1594.556,472.441,1594.49,472.506,1594.435,472.561z"/>
	<path fill="#ADD79E" d="M1593.521,473.713C1593.463,473.842,1593.506,473.734,1593.521,473.713
		C1593.512,473.734,1593.517,473.72,1593.521,473.713z"/>
	<path fill="#ADD79E" d="M1593.822,473.278c0.184-0.218,0.366-0.438,0.548-0.657
		C1594.165,472.823,1593.982,473.042,1593.822,473.278z"/>
	<path fill="#ADD79E" d="M1594.974,472.118c0.374-0.292,0.738-0.597,1.093-0.913C1595.66,471.493,1595.343,471.801,1594.974,472.118
		z"/>
	<path fill="#ADD79E" d="M1594.37,472.621C1594.507,472.49,1594.403,472.588,1594.37,472.621
		C1594.392,472.601,1594.377,472.614,1594.37,472.621z"/>
	<path fill="#ADD79E" d="M1594,473.734c0-0.002,0-0.002,0-0.002V473.734z"/>
	<path fill="#9DD685" d="M1603.885,458.456c-3.677-4.282-1.134-16.263-0.046-21.201c0.977-4.433,2.149-15.09-4.929-13.017
		c1.115-3.766-2.636-4.43-5.448-4.155c-3.605,0.352-2.692-0.99-2.78-4.159c-0.182,0.784-0.359,1.57-0.531,2.356
		c-0.434,1.98-3.186,2.91-2.307,0.039c-1.184-0.336,0.125,2.205-1.703,1.344c0.274-0.689,0.353-1.401,0.235-2.135
		c-1.517-0.102-1.205,2.231-2.709,1.812c0.753,1.166,1.01-4.824-0.083-1.127c-0.178-2.432-2.101-3.971-4.402-2.648
		c0.584-0.769,0.986-1.623,1.208-2.564c0.403-0.824-0.968,1.808-0.878,1.523c0.133-0.383,0.265-0.766,0.397-1.148
		c-0.824,0.469-1.079-0.581-1.593,0.998c0.089-0.271,0.179-0.544,0.268-0.815c-7.531,0.788-8.812,8.492-10.102,14.921
		c4.444,0.807-2.017,3.352,1.41,3.777c-2.376,2.722-2.422,4.316-2.032,7.934c2.832,0.049-1.25,3.338,1.547,3.781
		c-0.816,4.193,3.15,10.422,4.999,14.277c1.184,2.471,2.407,4.122,4.086,6.217c1.69,2.107,0.805,4.616,1.113,7.09
		c1.961-0.532,3.791,0.091,5.687,0.508c1.423,0.344,1.257,1.76,1.847,3.017c1.051,2.244,2.781,4.236,5.332,4.683
		c-0.077-2.756-1.338-6.268,1.32-7.534c0.885-2.346,0.928-5.333,1.372-7.808c-0.455,2.603-0.915,5.205-1.371,7.808
		c0.125-0.059,3.221-1.685,2.338-1.068c2.655-1.819,5.991-3.351,9.1-4.237C1604.519,464.062,1603.798,461.479,1603.885,458.456
		C1602.942,457.358,1603.792,461.688,1603.885,458.456z M1596.608,470.846c0.017-0.01,0.035-0.02,0.052-0.03
		C1596.644,470.826,1596.625,470.838,1596.608,470.846z"/>
	<path fill="#ADD79E" d="M1593.627,473.526C1593.693,473.419,1593.637,473.501,1593.627,473.526
		C1593.64,473.506,1593.629,473.521,1593.627,473.526z"/>
	<path fill="#ADD79E" d="M1593.539,473.677C1593.449,473.944,1593.77,473.188,1593.539,473.677
		C1593.532,473.697,1593.57,473.61,1593.539,473.677z"/>
</g>
<g id="Body_16_">
	<g>
		<path fill="#EDEDED" d="M1640.334,415.482c-0.449,8.228-7.545,14.574-15.764,14.125l-169.237-9.344
			c-8.218-0.449-14.575-7.547-14.12-15.764l12.743-230.962c0.455-8.22,7.55-14.575,15.771-14.122l169.236,9.341
			c8.222,0.455,14.581,7.551,14.122,15.771L1640.334,415.482z"/>
	</g>
</g>
<g id="Body_15_">
	<g>
		<path fill="#EDEDED" d="M1640.334,415.482c-0.449,8.228-7.545,14.574-15.764,14.125l-169.237-9.344
			c-8.218-0.449-14.575-7.547-14.12-15.764l12.743-230.962c0.455-8.22,7.55-14.575,15.771-14.122l169.236,9.341
			c8.222,0.455,14.581,7.551,14.122,15.771L1640.334,415.482z"/>
	</g>
</g>
<g id="Slider_5_">
	<g>
		<g>
			<path fill="#92CC76" d="M1538.938,360.592c-1.197,24.176-21.242,43.004-44.545,41.85c-23.305-1.151-41.396-21.866-40.201-46.031
				l6.592-133.385c1.194-24.17,21.237-43.001,44.539-41.85c23.305,1.15,41.398,21.865,40.202,46.034L1538.938,360.592z"/>
		</g>
		<g>
			<path fill="#9DD685" d="M1539.572,356.734c-1.139,23.032-20.235,40.963-42.434,39.865c-22.207-1.087-39.441-20.829-38.305-43.854
				l6.506-131.587c1.139-23.02,20.232-40.96,42.435-39.863c22.2,1.096,39.436,20.831,38.297,43.854L1539.572,356.734z"/>
		</g>
	</g>
	<g>
		<g>
			<path fill="#92CC76" d="M1633.008,367.352c-1.196,24.173-21.239,43.001-44.544,41.849c-23.305-1.145-41.398-21.859-40.207-46.034
				l6.594-133.391c1.193-24.167,21.236-42.998,44.545-41.844c23.303,1.152,41.392,21.868,40.199,46.037L1633.008,367.352z"/>
		</g>
		<g>
			<path fill="#9DD685" d="M1633.642,363.494c-1.136,23.023-20.233,40.961-42.437,39.864c-22.197-1.096-39.435-20.83-38.296-43.854
				l6.508-131.586c1.134-23.022,20.231-40.964,42.431-39.867c22.202,1.097,39.435,20.83,38.299,43.855L1633.642,363.494z"/>
		</g>
	</g>
</g>
<g id="Eyes_5_">
	
		<ellipse transform="matrix(0.0558 -0.9984 0.9984 0.0558 1195.9392 1711.4319)" fill="#92CC76" cx="1502.859" cy="223.384" rx="36.803" ry="37.434"/>
	<path fill="#92CC76" d="M1600.31,193.48c20.642,1.153,36.461,18.482,35.332,38.709c-1.134,20.227-18.784,35.686-39.428,34.533
		s-36.463-18.484-35.329-38.71C1562.014,207.785,1579.66,192.324,1600.31,193.48z"/>
	<circle fill="#FFFFFF" cx="1504.02" cy="220.554" r="35.413"/>
	<circle fill="#FFFFFF" cx="1599.398" cy="227.406" r="35.414"/>
	<g id="Pupils_6_">
		<circle fill="#777777" cx="1504.146" cy="216.698" r="5.319"/>
		<circle fill="#777777" cx="1599.531" cy="223.549" r="5.319"/>
	</g>
</g>
<text transform="matrix(1 0 0 1 1471.8223 102)" fill="#F2F2F2" font-family="'OpenSans'" font-size="40">Woooo!</text>
</svg>
