<?xml version="1.0" encoding="utf-8"?>
<!-- Generator: Adobe Illustrator 16.0.0, SVG Export Plug-In . SVG Version: 6.00 Build 0)  -->
<!DOCTYPE svg PUBLIC "-//W3C//DTD SVG 1.1//EN" "http://www.w3.org/Graphics/SVG/1.1/DTD/svg11.dtd">
<svg version="1.1" xmlns="http://www.w3.org/2000/svg" xmlns:xlink="http://www.w3.org/1999/xlink" x="0px" y="0px" width="500px"
	 height="131.05px" viewBox="0 0 500 131.05" enable-background="new 0 0 500 131.05" xml:space="preserve">
<g id="Layer_1">
</g>
<g id="Title">
	<g>
		<path fill="#444444" d="M141.283,94.628l-1.855-0.285c-0.438,0-0.885,0.229-1.342,0.685c-0.875,0-1.427-0.152-1.655-0.456h-0.143
			c-1.789,0-2.826-0.333-3.111-0.999c0-0.438,0.447-0.657,1.341-0.657l1.285,0.058c0.78,0,1.18-0.562,1.199-1.685
			c0.019-1.122-0.034-2.492-0.157-4.109c-0.124-1.617-0.2-3.226-0.228-4.824c-0.029-1.599-0.139-4.71-0.329-9.333
			c-0.19-4.624-0.314-7.945-0.371-9.962l0.057-6.851c0-1.884-0.057-3.016-0.171-3.396l-1.998,0.428
			c-0.419,0-0.628-0.271-0.628-0.813s0.856-0.989,2.569-1.341c1.712-0.352,2.873-0.528,3.482-0.528c1.028,0,1.542,0.319,1.542,0.956
			c0,0.638-0.238,0.957-0.713,0.957l-1.399-0.057c-0.666,0-1.066,0.314-1.199,0.942c-0.133,0.514-0.2,2.026-0.2,4.538
			s0.243,7.488,0.728,14.928c0.485,7.44,0.728,13.035,0.728,16.783l-0.057,3.025l2.112-0.171c1.008,0,1.513,0.485,1.513,1.455
			L141.283,94.628z"/>
		<path fill="#444444" d="M164.089,59.264l-0.114-1.456c0-0.818,0.276-1.228,0.828-1.228c0.381,0,0.69,0.181,0.928,0.542
			c0.238,0.362,0.357,0.742,0.357,1.142v3.911l-0.314,0.485c0,3.045-0.209,8.939-0.628,17.683
			c-0.419,8.743-0.828,13.524-1.228,14.343c-0.095,0.019-0.376,0.09-0.842,0.214c-0.467,0.123-0.795,0.186-0.985,0.186
			c-0.19,0-0.362-0.129-0.514-0.386c-0.152-0.257-0.271-0.595-0.357-1.013c-0.085-0.419-0.167-0.694-0.243-0.828l0.057-0.171
			c-0.248-1.617-0.756-3.469-1.527-5.552c-0.771-2.084-1.27-3.487-1.499-4.21c-0.133-0.172-0.657-1.627-1.57-4.367
			c-3.501-10.865-5.708-16.736-6.622-17.611c-0.305,1.199-0.457,2.569-0.457,4.11l0.114,4.596l-0.114,2.825
			c0,0.438,0.076,1.799,0.228,4.082h-0.171c0,6.489,0.133,10.075,0.399,10.761v5.252c0.152,0.267,0.229,0.609,0.229,1.027
			c0,0.913-0.362,1.37-1.085,1.37c-0.818,0-1.227-1.046-1.227-3.14l0.228-3.825l-0.371-16.812l0.371-10.361v-1.027
			c0-0.514,0.015-0.856,0.043-1.028c0.029-0.171,0.057-0.375,0.085-0.613c0.029-0.238,0.072-0.423,0.128-0.557
			c0.057-0.133,0.124-0.286,0.2-0.457c0.152-0.342,0.352-0.618,0.599-0.828l0.171,0.2l0.571-0.143
			c0.438,0.153,0.704,0.457,0.799,0.914c0,0.038,0.023,0.147,0.071,0.328c0.047,0.181,0.071,0.281,0.071,0.3
			c0.666,2.778,2.064,6.65,4.196,11.616c2.131,4.967,3.425,8.159,3.882,9.577c0.457,1.418,0.866,2.916,1.228,4.495
			c0.799,3.502,1.674,6.062,2.626,7.678l0.114-0.171C163.642,82.612,164.089,71.994,164.089,59.264z M162.862,94.914
			c0.038,0,0.057,0.02,0.057,0.058L162.862,94.914z"/>
		<path fill="#444444" d="M189.436,58.208l-3.168-0.399l-0.286,0.342l0.114,0.229c-0.076,0.152-0.114,1.266-0.114,3.339
			c0,2.075,0.324,6.922,0.971,14.543c0.646,7.621,0.97,13.334,0.97,17.14c0,0.286-0.114,0.543-0.342,0.771
			c-0.229,0.228-0.485,0.342-0.771,0.342l-0.657-0.485l-0.114-4.253l0.114-2.055c0-0.532-0.076-0.999-0.228-1.398
			c0-3.312-0.233-8.135-0.7-14.472c-0.466-6.336-0.718-11.018-0.756-14.043c-3.064,0-4.7-0.371-4.909-1.113
			c0.171-0.438,0.542-0.656,1.113-0.656l7.935,0.542l1.056-0.057c0.704,0,1.056,0.248,1.056,0.742c0,0.267-0.143,0.49-0.428,0.671
			C190.006,58.118,189.721,58.208,189.436,58.208z"/>
		<path fill="#444444" d="M203.964,56.152c0,0,0.104-0.085,0.314-0.257c0.209-0.171,0.38-0.257,0.514-0.257
			c0.133,0,0.542,0.114,1.228,0.343c0,3.044,0.124,7.597,0.371,13.658s0.371,10.941,0.371,14.643s0.124,7.227,0.371,10.575
			l-0.371,0.656c-0.038-0.399-0.638-0.6-1.798-0.6c-0.19-8.657-0.286-13.881-0.286-15.67l-0.143-0.229l0.2-0.514
			c0-0.608-0.067-1.331-0.2-2.169l-0.914-0.229c-0.342,0.114-0.732,0.172-1.17,0.172l-3.739-0.6l-0.6,0.229l-0.171,7.363
			l0.171,0.257l0.343,9.762c0,1.009-0.324,1.514-0.971,1.514c-0.856,0-1.284-1.171-1.284-3.512l0.114-10.703
			c0-3.539-0.057-5.442-0.171-5.709c0.19-0.38,0.285-1.674,0.285-3.881L196,57.323c0-0.266,0.1-0.518,0.3-0.756
			c0.2-0.238,0.433-0.357,0.699-0.357c0.78,0,1.17,1.132,1.17,3.397l-0.229,14.271c0,0.457,1.56,0.686,4.681,0.686
			c0.742,0,1.28-0.138,1.613-0.414c0.333-0.275,0.5-1.042,0.5-2.298s-0.128-3.677-0.385-7.264c-0.257-3.586-0.385-6.274-0.385-8.063
			C203.964,56.276,203.964,56.152,203.964,56.152z M203.079,73.763l0.114,0.114h-0.114V73.763z"/>
		<path fill="#444444" d="M213.44,94.4l0.057-1.484l-0.2-0.228c0.286-0.78,0.428-1.579,0.428-2.397l-0.285-7.707l0.399-17.611
			l-0.229-6.993c0-1.104,0.561-1.656,1.684-1.656c0.438,0,0.751,0.124,0.942,0.371c0.133,0.039,0.695,0.114,1.684,0.229
			c2.398,0.267,3.625,0.752,3.682,1.456c0,0.305-0.371,0.676-1.113,1.113c-2.15-0.704-3.729-1.075-4.738-1.113l-0.286,0.343
			c0.038,0.552,0.057,1.389,0.057,2.512l-0.229,9.077c0,1.084,0.276,1.627,0.828,1.627l1.969-0.114c1.484,0,2.245,0.353,2.284,1.056
			c0,0.4-0.1,0.752-0.3,1.057s-0.557,0.456-1.07,0.456c-0.514,0-0.895-0.151-1.142-0.456l-1.912-0.285h-0.257l-0.286,0.285v0.171
			c0.076,1.009,0.114,2.551,0.114,4.624l-0.114,8.307c0,3.882,0.266,6.032,0.799,6.45c0.342,0.285,0.97,0.428,1.884,0.428
			l2.169-0.113c1.142,0,1.712,0.257,1.712,0.771c0,0.703-0.847,1.056-2.54,1.056h-4.824C213.887,95.627,213.498,95.218,213.44,94.4z
			"/>
		<path fill="#2ECC71" d="M288.103,54.049c-1.152,2.202-2.516,5.15-4.088,8.846c-1.572,3.695-3.303,7.587-5.189,11.676
			c1.52-3.039,3-6.054,4.443-9.042c1.439-2.988,2.973-6.106,4.6-9.356c-0.525,2.254-1.141,4.364-1.848,6.329
			c-0.709,1.966-1.494,3.867-2.359,5.701c-0.865,1.835-1.77,3.695-2.713,5.582s-1.887,3.88-2.83,5.976l-1.338,0.786
			c-0.891,2.15-1.822,4.312-2.791,6.487c-0.971,2.176-2.123,4.233-3.459,6.172c-1.337,1.938-2.897,3.695-4.679,5.269
			c-1.783,1.572-3.88,2.83-6.29,3.773c-0.786-0.472-1.6-0.996-2.438-1.572c-0.839-0.577-1.678-1.049-2.516-1.415
			c0-0.053-0.014-0.105-0.04-0.157c-0.027-0.053-0.039-0.132-0.039-0.236c0-0.42,0.039-1.088,0.118-2.005
			c0.079-0.918,0.17-1.848,0.275-2.791c0.104-0.943,0.197-1.795,0.275-2.556c0.079-0.759,0.118-1.219,0.118-1.376l-0.472,0.472
			c0,0.367-0.039,0.904-0.118,1.612c-0.079,0.707-0.185,1.454-0.315,2.24c-0.131,0.787-0.236,1.56-0.314,2.32
			c-0.079,0.759-0.118,1.376-0.118,1.848v0.393l6.054,3.695c1.52-0.157,3.131-1.049,4.835-2.673c1.703-1.625,3.342-3.538,4.915-5.74
			c1.572-2.201,2.987-4.429,4.245-6.683c1.102-1.939,1.967-3.539,2.596-4.797c-0.734,1.573-1.625,3.381-2.674,5.426
			c-1.154,2.254-2.451,4.43-3.893,6.525c-1.441,2.097-3.001,3.918-4.678,5.465c-1.678,1.546-3.434,2.477-5.268,2.792l-6.211-3.617
			c-0.106-0.21-0.157-0.446-0.157-0.708c0-0.839,0.13-1.992,0.393-3.459c0.262-1.468,0.393-2.699,0.393-3.696v-0.629
			c-0.263,0.263-0.656,0.761-1.18,1.494c-0.524,0.734-1.114,1.481-1.769,2.241c-0.656,0.759-1.311,1.428-1.965,2.005
			c-0.656,0.576-1.193,0.864-1.612,0.864c-0.892-0.577-1.729-1.192-2.516-1.848c-0.787-0.655-1.6-1.297-2.438-1.926
			c-0.368-1.624-0.904-3.25-1.612-4.875c-0.708-1.624-1.455-3.236-2.241-4.836c-0.786-1.598-1.521-3.21-2.202-4.835
			c-0.682-1.625-1.153-3.303-1.415-5.032c-0.42-2.517-1.062-5.032-1.926-7.549c-0.865-2.516-1.612-5.032-2.241-7.548l0.314,0.157
			c0.262-0.104,0.511-0.262,0.747-0.472c0.236-0.209,0.458-0.315,0.668-0.315c0.314,0,0.602,0.275,0.865,0.826
			c0.262,0.55,0.484,1.18,0.668,1.887c0.183,0.708,0.34,1.39,0.472,2.044c0.13,0.656,0.223,1.088,0.275,1.297l0.943-0.236
			c-0.105-1.153-0.21-2.292-0.314-3.42c-0.105-1.126-0.157-2.267-0.157-3.42v-0.786c0-0.366,0.039-0.759,0.118-1.18
			c0.079-0.419,0.183-0.786,0.314-1.101c0.13-0.314,0.327-0.472,0.589-0.472c0.629,0,1.337,0.865,2.123,2.595
			c0.786,1.729,1.599,3.84,2.438,6.33c0.838,2.49,1.664,5.098,2.477,7.824c0.812,2.726,1.559,5.11,2.241,7.154
			c0.157,0.524,0.379,1.141,0.668,1.848c0.287,0.708,0.562,1.403,0.825,2.084c0.262,0.682,0.511,1.298,0.747,1.848
			c0.236,0.551,0.38,0.932,0.433,1.141c0.157-0.787,0.419-1.874,0.786-3.264c0.366-1.388,0.747-2.856,1.14-4.403
			c0.393-1.545,0.786-3.014,1.179-4.403c0.394-1.388,0.72-2.449,0.983-3.184c0.419-0.052,0.812-0.092,1.18-0.118
			c0.366-0.026,0.708-0.04,1.022-0.04c1.048,0,1.992,0.119,2.831,0.354c0.838,0.235,1.913,0.616,3.224,1.14
			c0.366,0.787,0.655,1.783,0.865,2.988c0.208,1.206,0.379,2.49,0.511,3.853c0.13,1.364,0.209,2.752,0.236,4.168
			c0.025,1.415,0.039,2.726,0.039,3.931v3.146c2.149-3.146,4.022-6.355,5.622-9.632c1.599-3.275,3.185-6.617,4.758-10.025
			c0.156-0.365,0.418-0.995,0.785-1.887c0.367-0.891,0.799-1.887,1.299-2.988c0.496-1.101,1.021-2.267,1.572-3.499
			c0.549-1.231,1.086-2.345,1.611-3.342c0.523-0.995,1.008-1.821,1.455-2.477c0.443-0.655,0.799-0.983,1.061-0.983l0.473,0.236
			c-0.84,1.94-1.666,3.801-2.477,5.583c-0.814,1.783-1.627,3.538-2.438,5.268c-0.814,1.73-1.613,3.499-2.398,5.307
			c-0.787,1.809-1.572,3.684-2.359,5.622l9.908-21.308l0.785,0.708l0.393-0.236c0.105-0.366,0.301-0.891,0.59-1.572
			c0.289-0.681,0.629-1.363,1.023-2.044c0.393-0.681,0.811-1.284,1.258-1.809c0.443-0.523,0.904-0.786,1.375-0.786
			c0.209,0,0.395,0.105,0.551,0.314c0.158,0.21,0.275,0.472,0.354,0.786s0.145,0.617,0.197,0.904
			c0.051,0.289,0.078,0.511,0.078,0.668L288.103,54.049z M247.375,90.139c-0.157,0-0.354,0.146-0.589,0.433
			c-0.236,0.289-0.485,0.604-0.747,0.943c-0.263,0.342-0.499,0.682-0.708,1.022c-0.21,0.342-0.341,0.563-0.393,0.668l0.079,0.079
			c0.104-0.052,0.288-0.223,0.551-0.512c0.262-0.287,0.523-0.602,0.786-0.943c0.262-0.34,0.498-0.668,0.708-0.982
			c0.209-0.314,0.366-0.523,0.472-0.629L247.375,90.139z M250.284,86.05c0.262-0.838,0.563-1.795,0.904-2.869
			c0.34-1.074,0.708-2.214,1.101-3.421c0.393-1.205,0.759-2.345,1.101-3.42c0.34-1.074,0.616-1.966,0.826-2.674
			c0.209-0.707,0.314-1.112,0.314-1.218V72.37l-0.865,0.629h-0.315c-0.263,1.101-0.577,2.268-0.943,3.499
			c-0.367,1.232-0.734,2.477-1.101,3.734c-0.368,1.259-0.695,2.504-0.983,3.735c-0.289,1.232-0.459,2.372-0.511,3.42
			C249.864,87.23,250.021,86.786,250.284,86.05z M259.405,101.226c1.467-0.21,2.974-1.022,4.521-2.438
			c1.545-1.416,3-3.027,4.364-4.836c1.362-1.809,2.581-3.643,3.656-5.504c1.073-1.86,1.899-3.394,2.478-4.6l1.336-2.909
			c-1.102,2.201-2.229,4.324-3.381,6.369c-1.258,2.201-2.543,4.194-3.854,5.976s-2.646,3.302-4.009,4.561
			c-1.364,1.258-2.701,2.096-4.01,2.516l-1.415,0.629l-3.224-2.201c0-0.314,0.04-0.8,0.118-1.455
			c0.079-0.656,0.157-1.35,0.236-2.083s0.157-1.441,0.236-2.123c0.079-0.681,0.118-1.259,0.118-1.73
			c-0.053,0.421-0.132,0.983-0.236,1.69c-0.106,0.708-0.224,1.416-0.354,2.123c-0.131,0.708-0.236,1.376-0.314,2.005
			c-0.079,0.63-0.118,1.102-0.118,1.416c0,0.262,0.144,0.523,0.433,0.786c0.288,0.262,0.629,0.511,1.022,0.747
			c0.393,0.235,0.812,0.458,1.258,0.668c0.445,0.209,0.798,0.394,1.062,0.551L259.405,101.226z M256.338,88.567v0.707
			c0-0.104,0-0.183,0-0.235c0.051-0.157,0.079-0.314,0.079-0.472H256.338z M256.417,89.982c0-0.104-0.027-0.183-0.079-0.235
			C256.338,89.799,256.364,89.877,256.417,89.982z M258.461,95.25l0.551-4.246l-1.337,4.089L258.461,95.25z M263.021,96.115
			c-0.786-0.472-1.678-0.707-2.673-0.707l-1.101,0.078c0.576,0.104,1.152,0.236,1.729,0.394c0.576,0.157,1.152,0.235,1.73,0.235
			H263.021z M271.67,76.458c-1.311,2.673-2.647,5.32-4.01,7.941c-1.364,2.621-3.041,5.031-5.032,7.233v0.235
			c1.992-2.201,3.695-4.651,5.111-7.352C269.154,81.818,270.464,79.131,271.67,76.458z M276.939,82.198
			c-0.105,0.21-0.211,0.42-0.314,0.629C276.728,82.618,276.833,82.408,276.939,82.198z"/>
		<path fill="#2ECC71" d="M295.101,90.768c0.209-1.467,0.404-3.185,0.59-5.149c0.182-1.966,0.354-3.944,0.51-5.937
			c0.158-1.992,0.314-3.944,0.473-5.858c0.156-1.912,0.314-3.577,0.471-4.992c-0.262,1.415-0.498,3.041-0.707,4.875
			c-0.209,1.835-0.42,3.722-0.629,5.661s-0.42,3.866-0.629,5.778c-0.209,1.914-0.393,3.631-0.551,5.15
			c-0.785-0.523-1.18-1.23-1.18-2.123c0-1.048,0.027-1.926,0.08-2.634c0.051-0.708,0.129-1.533,0.234-2.477l0.865-0.786
			c-0.053-0.262-0.078-0.498-0.078-0.708v-0.786c0-1.205,0.131-2.581,0.393-4.128c0.262-1.546,0.562-3.118,0.904-4.718
			c0.34-1.598,0.643-3.145,0.904-4.639s0.393-2.792,0.393-3.893l-0.943-0.236c-0.105,1.258-0.262,2.687-0.471,4.285
			c-0.211,1.6-0.434,3.252-0.668,4.954c-0.236,1.704-0.461,3.395-0.67,5.071c-0.105,0.893-0.209,1.73-0.314,2.517
			c0.105-1.467,0.236-3.04,0.395-4.718c0.262-2.41,0.537-4.809,0.824-7.194c0.289-2.385,0.564-4.73,0.826-7.038
			c0.262-2.306,0.523-4.429,0.787-6.369c0-0.786,0.195-1.638,0.59-2.555c0.393-0.917,0.668-1.874,0.824-2.87
			c0.314,0.105,0.576,0.157,0.787,0.157h0.551c0.523,0,0.865,0.118,1.021,0.354c0.158,0.236,0.236,0.564,0.236,0.983v0.393
			l0.707,0.236c0.42-0.787,0.916-1.416,1.494-1.887c0.576-0.472,1.152-0.708,1.73-0.708c1.258,0,1.887,1.336,1.887,4.01
			c0,1.416-0.145,2.923-0.434,4.521c-0.287,1.6-0.432,3.159-0.432,4.679v1.022c0,1.678-0.184,3.499-0.551,5.465
			c-0.367,1.965-0.773,3.957-1.219,5.975c-0.445,2.019-0.852,3.971-1.219,5.858c-0.367,1.887-0.551,3.616-0.551,5.189
			c0,0.367,0.027,0.76,0.08,1.179c0.051,0.421,0.078,0.813,0.078,1.18c0,0.786-0.145,1.271-0.432,1.455
			c-0.289,0.184-0.643,0.275-1.062,0.275c0-0.681-0.027-1.521-0.078-2.517c-0.053-0.995-0.078-1.887-0.078-2.673
			c-0.107,0.577-0.158,1.363-0.158,2.358c0,0.996-0.053,1.939-0.156,2.831h-1.18v0.943c-0.473,0.839-1.102,1.258-1.887,1.258
			c-0.369,0-0.787-0.104-1.26-0.314C295.73,91.267,295.363,91.031,295.101,90.768z M293.921,81.883
			c0.051-0.576,0.104-1.152,0.156-1.729C294.025,80.783,293.972,81.36,293.921,81.883z M311.298,30.382
			c-0.893,0.524-1.705,1.207-2.438,2.044c-0.734,0.839-1.494,1.651-2.281,2.438c0.473-0.315,0.891-0.655,1.258-1.022
			c0.367-0.366,0.748-0.733,1.141-1.101c0.395-0.366,0.812-0.733,1.258-1.101c0.445-0.366,0.957-0.708,1.533-1.022
			c0.158,0.21,0.301,0.393,0.434,0.55c0.129,0.157,0.195,0.314,0.195,0.472l-1.807,1.809c0-0.104-0.094-0.209-0.275-0.314
			c-0.186-0.104-0.328-0.157-0.434-0.157c-0.156,0.524-0.42,0.943-0.785,1.258c-0.367,0.314-0.736,0.604-1.102,0.865
			c-0.367,0.263-0.734,0.55-1.102,0.865s-0.629,0.735-0.785,1.258v0.158c0,0.053,0.078,0.079,0.236,0.079l3.93-3.696l-1.492,1.494
			c-0.736,0.734-1.508,1.481-2.32,2.241c-0.812,0.761-1.572,1.429-2.279,2.005c-0.709,0.578-1.141,0.865-1.299,0.865l-0.078-0.079
			c-0.367-0.104-0.746-0.157-1.141-0.157c-0.393,0-0.799-0.026-1.219-0.079c0-0.419-0.066-0.865-0.195-1.337
			c-0.133-0.472-0.197-0.838-0.197-1.101c0-0.262,0.131-0.394,0.393-0.394c0-0.157-0.092-0.405-0.275-0.747
			c-0.184-0.34-0.381-0.733-0.59-1.18c-0.209-0.445-0.406-0.917-0.588-1.415c-0.186-0.498-0.275-1.009-0.275-1.533
			c0-0.523,0.221-1.035,0.668-1.533c0.445-0.498,0.969-0.93,1.572-1.297c0.602-0.366,1.191-0.681,1.77-0.944
			c0.576-0.262,0.994-0.445,1.258-0.55c0.209,0,0.287-0.118,0.236-0.354c-0.053-0.236,0.025-0.354,0.234-0.354l1.416,0.472
			c-0.105,0.263-0.432,0.695-0.982,1.297c-0.551,0.603-0.957,1.036-1.219,1.297c0.365-0.262,0.799-0.655,1.297-1.18
			c0.498-0.523,0.877-0.917,1.141-1.179c0.262,0.105,0.498,0.21,0.707,0.314c0.209,0.106,0.367,0.157,0.473,0.157l0.234-0.236
			c0.367,0,0.773,0.079,1.219,0.236s0.852,0.342,1.219,0.55c0.367,0.21,0.682,0.446,0.945,0.708
			C311.167,30.016,311.298,30.225,311.298,30.382z"/>
		<path fill="#2ECC71" d="M318.689,77.637c0-0.366,0.012-0.838,0.039-1.415c0.025-0.576,0.064-1.152,0.117-1.729l0.158-1.809
			c0.051-0.63,0.104-1.18,0.156-1.651c-0.053,0.786-0.092,1.769-0.117,2.948c-0.027,1.18-0.039,2.059-0.039,2.635v3.145
			c0,0.42,0.012,0.865,0.039,1.337c0.025,0.472,0.064,0.918,0.117,1.337c-0.209-0.838-0.342-1.664-0.393-2.478
			C318.714,79.145,318.689,78.373,318.689,77.637z M319.16,70.955c0-0.105,0-0.184,0-0.236c0.053-0.052,0.078-0.104,0.078-0.157
			C319.238,70.771,319.212,70.902,319.16,70.955z M339.525,88.173c-0.314,0-0.629,0.157-0.943,0.472
			c-1.102,0.421-2.242,0.774-3.42,1.062c-1.18,0.289-2.398,0.433-3.656,0.433c-3.566,0-6.24-1.034-8.021-3.105
			c-1.781-2.07-2.672-5.071-2.672-9.003c0-1.887,0.078-3.774,0.234-5.661c0.158-1.835,0.262-3.538,0.314-5.11
			c-0.156,1.625-0.342,3.25-0.549,4.875c-0.264,1.729-0.395,3.537-0.395,5.425c0,0.943,0.092,2.149,0.275,3.616
			c0.184,1.469,0.643,2.897,1.377,4.285c0.732,1.39,1.859,2.595,3.381,3.617c1.52,1.022,3.617,1.533,6.289,1.533
			c1.258,0,2.477-0.144,3.656-0.433c1.18-0.287,2.32-0.641,3.42-1.062c-0.734,0.893-1.717,1.6-2.947,2.123
			c-1.232,0.525-2.688,0.786-4.363,0.786c-2.15,0-4.234-0.444-6.252-1.336c-2.018-0.891-3.551-2.385-4.6-4.482l0.473-0.864
			c-0.943-1.678-1.469-3.185-1.574-4.521s-0.209-2.66-0.314-3.971l1.338-13.76c0.262-2.359,0.443-4.718,0.551-7.077l-0.236-0.157
			c-0.42,2.465-0.762,4.824-1.023,7.077c-0.262,2.202-0.471,4.378-0.629,6.526v-2.045c0.314-2.41,0.604-4.782,0.865-7.115
			c0.262-2.332,0.602-4.704,1.023-7.116c0.418-2.41,0.955-4.926,1.611-7.548c0.654-2.621,1.533-5.425,2.633-8.414
			c1.469-1.991,2.332-3.957,2.596-5.897c0.156,0,0.314,0.027,0.473,0.079c0.156,0.053,0.471,0.079,0.943,0.079
			c0.314,0,0.59,0.066,0.824,0.197c0.236,0.131,0.354,0.407,0.354,0.826c0,0.472-0.156,1.179-0.471,2.123
			c0.104,0,0.262,0.039,0.471,0.118s0.367,0.118,0.473,0.118c0.734-1.258,1.402-2.332,2.006-3.224
			c0.602-0.891,1.191-1.336,1.768-1.336c0.367,0,0.695,0.224,0.984,0.668c0.287,0.446,0.432,1.167,0.432,2.162
			c-0.105,1.887-0.406,3.669-0.904,5.347c-0.498,1.678-1.035,3.302-1.611,4.875c-0.578,1.572-1.141,3.172-1.691,4.796
			c-0.551,1.625-0.957,3.329-1.219,5.11c-0.314,2.044-0.629,4.128-0.943,6.251c-0.314,2.123-0.604,4.234-0.865,6.33
			c-0.262,2.098-0.51,4.115-0.746,6.055s-0.406,3.748-0.512,5.425c0,1.521,0.236,3.094,0.709,4.718
			c0.262,0.42,0.496,0.722,0.707,0.904c0.209,0.185,0.576,0.275,1.1,0.275c0.631,0,1.324-0.079,2.084-0.236s1.428-0.235,2.006-0.235
			c0.365,0,0.629,0.053,0.785,0.157c0.158,0.105,0.289,0.288,0.395,0.55c-0.734,0.421-1.521,0.735-2.359,0.944
			c-0.84,0.21-1.625,0.314-2.359,0.314h-1.1c-0.211,0-0.395,0-0.551,0c0.576,0.105,1.309,0.157,2.201,0.157
			c1.363,0,2.752-0.314,4.168-0.944c0,0.473,0.156,0.865,0.471,1.18c0.158-0.052,0.523-0.235,1.102-0.55
			c0.576-0.314,1.074-0.473,1.494-0.473c1.258,0,1.887,0.525,1.887,1.573c0,0.157-0.053,0.393-0.158,0.707
			S339.943,87.283,339.525,88.173z M326.394,77.323c0-1.205,0.078-2.385,0.236-3.538c0.156-1.152,0.287-2.332,0.393-3.538
			c-0.264,1.206-0.459,2.386-0.59,3.538c-0.131,1.153-0.25,2.333-0.354,3.538v1.101c0,0.368,0.025,0.761,0.078,1.18v-0.55
			c0-0.262,0.025-0.551,0.078-0.865S326.341,77.585,326.394,77.323z"/>
		<path fill="#2ECC71" d="M387.486,37.459c0.104,1.521,0.184,3.001,0.236,4.442c0.051,1.442,0.078,2.922,0.078,4.442
			c0,3.145-0.092,6.304-0.275,9.475c-0.184,3.172-0.406,6.382-0.668,9.632c-0.264,3.25-0.525,6.579-0.787,9.986
			c-0.262,3.408-0.498,6.946-0.707,10.614c0,0.578-0.014,1.167-0.039,1.77c-0.027,0.604-0.092,1.271-0.197,2.005v0.943
			c0,0.157-0.053,0.367-0.156,0.629c-0.105,0.264-0.211,0.446-0.314,0.551c-0.682,0.786-1.299,1.376-1.848,1.77
			c-0.551,0.393-1.062,0.682-1.533,0.864c-0.473,0.185-0.918,0.288-1.338,0.314s-0.838,0.065-1.258,0.118h0.473
			c0.156,0,0.457-0.027,0.904-0.078c0.443-0.054,0.943-0.145,1.494-0.275c0.549-0.131,1.072-0.314,1.572-0.551
			c0.496-0.235,0.852-0.562,1.061-0.982l0.709-1.416c0.314-0.576,0.51-1.191,0.588-1.848c0.08-0.654,0.131-1.31,0.158-1.966
			c0.025-0.654,0.039-1.297,0.039-1.926s0.051-1.231,0.158-1.809c0.156-3.303,0.379-6.604,0.668-9.907
			c0.287-3.302,0.562-6.63,0.824-9.985c0.262-3.354,0.498-6.749,0.709-10.183c0.209-3.433,0.314-6.931,0.314-10.497
			c0-1.101-0.014-2.162-0.039-3.185c-0.027-1.022-0.066-2.005-0.119-2.948c0.158,0.21,0.328,0.538,0.512,0.982
			c0.184,0.446,0.326,1.14,0.432,2.084c0.262,0.577,0.42,1.207,0.473,1.887c0.051,0.682,0.131,1.39,0.236,2.123
			c0,3.565-0.133,7.011-0.395,10.34c-0.262,3.329-0.523,6.644-0.785,9.946l-0.707,0.236l-0.709,13.445c0,3.774-0.17,6.88-0.51,9.317
			c-0.342,2.438-0.643,4.049-0.904,4.836v0.235c-0.787,0.786-1.455,1.376-2.006,1.77c-0.551,0.393-1.061,0.694-1.533,0.904
			c-0.473,0.208-0.904,0.326-1.297,0.354c-0.395,0.025-0.801,0.039-1.219,0.039h-5.033c-1.414-0.157-2.936-0.224-4.561-0.196
			c-1.625,0.025-3.328-0.146-5.109-0.511c-1.783-0.368-3.605-1.127-5.465-2.28c-1.861-1.152-3.734-2.988-5.623-5.504
			c0,0.105-0.025,0.184-0.078,0.235c-0.053,0.053-0.105,0.132-0.156,0.236c1.729,2.358,3.812,4.299,6.25,5.818
			s5.072,2.41,7.902,2.673h6.605c0.629,0.104,1.27,0.17,1.926,0.197c0.654,0.025,1.375,0.039,2.162,0.039
			c0.785,0,1.82-0.105,3.105-0.314c1.283-0.21,2.502-0.893,3.656-2.045c0.209-0.262,0.354-0.458,0.432-0.589
			c0.08-0.131,0.17-0.327,0.275-0.59l0.236-0.472c0.262-0.472,0.459-0.956,0.59-1.455c0.131-0.497,0.248-0.982,0.354-1.454
			c0,0.577-0.039,1.074-0.117,1.493c-0.078,0.421-0.275,1.05-0.59,1.888l-0.236,0.235l-0.943,1.415
			c-0.471,0.473-0.996,0.838-1.572,1.102c-0.578,0.262-1.129,0.458-1.652,0.59c-0.523,0.13-1.01,0.222-1.453,0.274
			c-0.447,0.052-0.775,0.104-0.982,0.157h-2.596c-0.682,0-1.246-0.013-1.691-0.039c-0.445-0.027-0.785-0.053-1.021-0.078
			c-0.236-0.027-0.432-0.066-0.59-0.118h-2.359c-0.471,0-0.943,0.012-1.414,0.039c-0.473,0.026-0.971,0.039-1.494,0.039
			c-2.465,0-4.863-0.59-7.195-1.769c-2.332-1.18-4.48-2.843-6.447-4.993c-1.965-2.148-3.709-4.69-5.229-7.627
			c-1.521-2.935-2.674-6.185-3.459-9.75c0-0.576-0.039-1.127-0.117-1.65c-0.08-0.523-0.119-1.074-0.119-1.652
			c0-1.938,0.301-3.917,0.904-5.936c0.602-2.018,1.691-3.839,3.264-5.465c1.572-1.624,3.695-2.948,6.369-3.971
			c2.672-1.022,6.053-1.533,10.143-1.533c1.887,0,3.721,0.04,5.504,0.118c1.781,0.079,3.59,0.17,5.426,0.275
			c-0.211,0.157-0.314,0.342-0.314,0.55c0,0.263,0.051,0.485,0.156,0.668c0.105,0.185,0.158,0.381,0.158,0.59
			c0,0.263-0.197,0.485-0.59,0.668c-0.395,0.184-1.219,0.275-2.477,0.275c-0.422,0-0.904-0.012-1.455-0.039
			c-0.551-0.026-1.168-0.065-1.848-0.118v0.708c2.516,0.367,4.547,0.853,6.094,1.455c1.545,0.603,2.502,1.14,2.869,1.612
			l0.158,0.157l0.314-3.46c0.156-1.415,0.234-3.014,0.234-4.796c0-1.834-0.053-3.643-0.156-5.425
			c-0.105-1.782-0.158-3.171-0.158-4.167c0-1.258,0.08-2.096,0.236-2.516c0.158-0.419,0.367-0.629,0.629-0.629
			c0.209,0,0.381,0.446,0.512,1.336c0.131,0.892,0.236,1.901,0.314,3.027c0.078,1.128,0.117,2.241,0.117,3.342v2.28
			c0,1.521-0.027,3.054-0.078,4.6c-0.053,1.547-0.131,3.08-0.236,4.6c0.158-1.992,0.287-3.944,0.395-5.858
			c0.104-1.913,0.156-3.865,0.156-5.857c0-1.206-0.027-2.398-0.078-3.578c-0.053-1.18-0.133-2.371-0.236-3.578
			c0.314,0.314,0.551,0.472,0.707,0.472c0.209,0,0.367-0.157,0.473-0.472c-0.053-0.419-0.105-0.865-0.158-1.337
			c-0.053-0.418-0.078-0.837-0.078-1.258v-1.179c0.262-0.629,0.602-1.113,1.021-1.455c0.42-0.34,0.787-0.511,1.102-0.511
			c0.891,0,1.678,0.971,2.359,2.909L387.486,37.459z M374.748,61.047c-1.729,0.106-3.684,0.21-5.857,0.314
			c-2.176,0.106-4.232,0.381-6.172,0.826c-1.939,0.446-3.605,1.114-4.992,2.005c-1.391,0.892-2.162,2.123-2.32,3.696
			c0,1.729,0.365,3.669,1.102,5.818c0.732,2.149,1.701,4.181,2.908,6.093c1.205,1.914,2.582,3.552,4.129,4.915
			c1.545,1.363,3.156,2.123,4.834,2.28h4.482c0.262,0,0.459,0.013,0.59,0.039s0.326,0.092,0.59,0.196h1.887
			c0.787,0.157,1.572,0.236,2.359,0.236c0-4.403,0.197-8.925,0.59-13.563c0.393-4.64,0.826-9.186,1.297-13.642
			C379.492,60.785,377.683,61.047,374.748,61.047z M379.703,87.859c0.051-0.472,0.104-0.956,0.156-1.454
			c0.051-0.498,0.078-1.009,0.078-1.533v-0.236l-0.314,3.066L379.703,87.859z M379.937,84.084c0.053-0.208,0.08-0.419,0.08-0.629
			c0-0.208,0.051-0.444,0.156-0.707v-0.865c-0.053,0.105-0.078,0.196-0.078,0.275c0,0.078-0.027,0.145-0.078,0.196l-0.08,0.157
			V84.084z M380.41,77.323c0,0.578-0.039,1.167-0.119,1.77c-0.078,0.604-0.117,1.271-0.117,2.005
			c0.576-2.936,0.916-6.027,1.021-9.278c0.105-3.249,0.236-6.369,0.395-9.356c-0.264,2.516-0.461,4.992-0.59,7.43
			C380.867,72.33,380.671,74.807,380.41,77.323z M387.25,85.815c0-0.576,0.025-1.166,0.078-1.77
			c0.053-0.602,0.131-1.244,0.236-1.926c-0.053,1.572-0.078,3.054-0.078,4.442c0,1.39-0.078,2.372-0.236,2.948
			c0-0.262,0.014-0.511,0.039-0.747c0.027-0.235,0.039-0.484,0.039-0.747c0-0.419-0.012-0.812-0.039-1.179
			C387.263,86.471,387.25,86.129,387.25,85.815z M387.722,79.21c0,0.472-0.014,0.943-0.039,1.415
			c-0.027,0.472-0.066,0.918-0.119,1.337c0-1.049,0.025-2.109,0.08-3.185c0.051-1.074,0.129-2.057,0.234-2.949L387.722,79.21z
			 M388.429,73.077c-0.105,0.264-0.184,0.564-0.236,0.904c-0.053,0.342-0.131,0.695-0.234,1.062l0.314-4.796L388.429,73.077z"/>
		<path fill="#2ECC71" d="M425.541,110.032c0.42,0,0.734,0.157,0.943,0.472s0.314,0.655,0.314,1.022
			c0,0.576-0.184,1.087-0.551,1.533c-0.367,0.445-0.76,0.877-1.178,1.298c-0.631-0.368-1.377-0.708-2.242-1.022
			s-1.77-0.59-2.713-0.825c-0.943-0.236-1.887-0.407-2.83-0.512c-0.943-0.105-1.809-0.157-2.594-0.157h-0.395l-3.459,0.079
			c1.152,0.104,2.32,0.169,3.498,0.196c1.18,0.025,2.359,0.118,3.539,0.275s2.332,0.419,3.459,0.786
			c1.127,0.366,2.189,0.891,3.186,1.572l-1.338,0.551c-0.734,0-1.311-0.132-1.729-0.394c-0.42-0.263-0.996-0.445-1.73-0.55
			l-0.865-0.865c-1.521,0-3.014-0.092-4.48-0.275c-1.469-0.185-2.963-0.275-4.482-0.275c-1.258,0-2.465,0.157-3.617,0.472v0.473
			c-2.254,0.104-4.482,0.235-6.684,0.393s-4.43,0.314-6.684,0.472c-0.576-0.263-1.191-0.459-1.848-0.59s-1.297-0.196-1.926-0.196
			c0-0.105,0.012-0.196,0.039-0.275c0.025-0.078,0.039-0.171,0.039-0.275c0-0.42-0.053-0.892-0.156-1.415l1.021-0.864l0.551,0.078
			v-0.865c-0.578-0.263-1.115-0.643-1.611-1.14c-0.5-0.499-0.748-1.114-0.748-1.848c0-0.577,0.184-1.036,0.551-1.376
			c0.365-0.342,0.826-0.59,1.375-0.747c0.551-0.157,1.113-0.249,1.691-0.275c0.576-0.027,1.074-0.039,1.494-0.039
			c2.516,0,5.045-0.118,7.588-0.354c2.541-0.236,5.07-0.354,7.588-0.354c0.418,0,1.152,0.04,2.201,0.118
			c1.047,0.079,2.227,0.183,3.537,0.314c1.311,0.13,2.66,0.301,4.051,0.511c1.387,0.209,2.658,0.445,3.812,0.708
			c1.152,0.262,2.109,0.551,2.869,0.865s1.141,0.629,1.141,0.943c0,0.157-0.053,0.393-0.156,0.708
			c-2.203-0.683-4.432-1.18-6.684-1.494c-2.201-0.263-4.404-0.578-6.605-0.943c2.148,0.522,4.297,0.943,6.447,1.258
			c2.254,0.314,4.482,0.838,6.684,1.572L425.541,110.032z M418.621,114.278c-1.678-0.21-3.381-0.354-5.109-0.433
			c-1.73-0.078-3.486-0.117-5.27-0.117c0.523-0.054,1.049-0.079,1.574-0.079h1.572c1.205,0,2.41,0.039,3.617,0.118
			C416.21,113.845,417.416,114.015,418.621,114.278z"/>
		<path fill="#2ECC71" d="M469.021,46.973l-0.234,1.416c-0.264,2.569-0.422,5.321-0.473,8.256c-0.053,2.883-0.264,5.792-0.629,8.728
			c0.418-2.882,0.76-5.713,1.021-8.492c0.262-2.882,0.523-5.713,0.787-8.492c0.262,0.839,0.484,1.729,0.668,2.673
			c0.184,0.943,0.275,1.94,0.275,2.988c-0.264,2.622-0.498,5.138-0.707,7.548c-0.211,2.412-0.5,4.927-0.865,7.548l-1.023,0.235
			c-0.262,2.412-0.812,5.032-1.65,7.863c-0.84,2.83-2.059,5.452-3.656,7.862c-1.6,2.412-3.656,4.417-6.172,6.016
			c-2.516,1.6-5.531,2.397-9.043,2.397c-1.152,0-2.371-0.091-3.656-0.275c-1.285-0.183-2.529-0.472-3.734-0.864
			c-1.207-0.394-2.359-0.904-3.459-1.533c-1.102-0.629-2.045-1.416-2.83-2.359l0.078,0.157v0.079l-0.078,0.078l-0.236-0.078
			c0.314,0.472,0.654,0.892,1.021,1.258c-0.943-0.838-1.809-1.809-2.594-2.909c-1.312-1.781-2.359-3.904-3.146-6.369
			c-0.471-1.467-0.838-2.961-1.1-4.481c-0.264-1.52-0.447-3.132-0.551-4.836c-0.105-1.703-0.172-3.551-0.197-5.543
			c-0.027-1.991-0.039-4.193-0.039-6.604c0.473-1.887,0.838-3.774,1.102-5.661c0.262-1.887,0.443-3.774,0.551-5.662
			c0.156,0,0.34-0.025,0.549-0.079c0.209-0.051,0.42-0.079,0.629-0.079c0.367,0,0.695,0.21,0.984,0.629
			c0.287,0.42,0.432,1.311,0.432,2.673v0.708c0,0.21-0.027,0.446-0.078,0.708h0.943c0.418-2.202,0.916-3.878,1.494-5.032
			c0.576-1.152,1.152-1.729,1.729-1.729c0.42,0,0.799,0.589,1.141,1.769c0.34,1.179,0.512,3.027,0.512,5.543
			c0,1.835-0.053,3.696-0.158,5.583c-0.105,1.887-0.156,3.827-0.156,5.819c0,3.093,0.143,5.897,0.432,8.413
			c0.287,2.516,0.852,4.666,1.691,6.447c0.838,1.783,2.029,3.159,3.576,4.128c1.547,0.971,3.551,1.455,6.016,1.455
			c2.045,0,3.748-0.629,5.111-1.888c1.361-1.258,2.516-2.935,3.459-5.032c0.943-2.096,1.742-4.521,2.398-7.272
			c0.654-2.752,1.27-5.622,1.848-8.61c0.105-0.838,0.184-1.677,0.236-2.516c0.051-0.838,0.078-1.703,0.078-2.595v-2.438
			c0-1.52,0.078-2.804,0.236-3.853c0.156-1.048,0.602-1.651,1.336-1.808c0,2.673-0.078,5.321-0.236,7.941
			c-0.105,2.516-0.314,5.032-0.629,7.548c0.367-2.463,0.656-4.927,0.865-7.391c0.209-2.568,0.367-5.189,0.473-7.863
			c0.314,0.21,0.576,0.314,0.785,0.314s0.42-0.104,0.629-0.314v-2.831c0.262-0.944,0.523-1.612,0.787-2.005
			c0.262-0.394,0.551-0.59,0.865-0.59s0.629,0.157,0.943,0.472s0.629,0.708,0.943,1.179L469.021,46.973z M436.234,91.397
			c-0.629-0.419-1.232-0.891-1.809-1.415C435.001,90.506,435.605,90.978,436.234,91.397z M436.548,91.554
			c1.258,0.683,2.555,1.219,3.893,1.612c1.336,0.394,2.594,0.668,3.773,0.825s2.135,0.236,2.871,0.236
			c3.668,0,6.787-0.812,9.355-2.438c2.568-1.624,4.678-3.656,6.33-6.094c1.65-2.438,2.922-5.044,3.812-7.823
			c0.838-2.621,1.467-5.032,1.889-7.233c-0.369,2.201-0.945,4.639-1.73,7.312c-0.893,2.831-2.162,5.479-3.814,7.941
			c-1.65,2.465-3.734,4.535-6.25,6.212c-2.516,1.678-5.557,2.516-9.121,2.516c-1.992,0-3.959-0.262-5.896-0.786
			c-1.939-0.523-3.748-1.336-5.426-2.438C436.337,91.45,436.443,91.503,436.548,91.554z M466.664,72.212
			c0.156-0.891,0.287-1.756,0.393-2.595c0.104-0.733,0.209-1.468,0.314-2.202c-0.314,2.308-0.84,4.745-1.572,7.312
			c-0.734,2.674-1.758,5.203-3.066,7.588c-1.311,2.386-2.963,4.495-4.953,6.329c-1.889,1.73-4.09,2.909-6.605,3.539
			c2.201-0.473,4.168-1.389,5.896-2.753c1.781-1.415,3.303-3.066,4.561-4.953s2.293-3.904,3.105-6.055
			C465.548,76.275,466.191,74.205,466.664,72.212z M458.878,77.716c-0.578,1.153-1.219,2.254-1.926,3.302
			c-0.709,1.05-1.508,1.993-2.398,2.831c0.943-0.786,1.77-1.703,2.477-2.752C457.738,80.049,458.355,78.922,458.878,77.716z
			 M467.449,67.023c-0.053,0.157-0.078,0.289-0.078,0.393C467.371,67.312,467.396,67.18,467.449,67.023z"/>
		<path fill="#2ECC71" d="M480.343,90.768c0.209-1.467,0.406-3.185,0.59-5.149c0.184-1.966,0.354-3.944,0.512-5.937
			c0.156-1.992,0.314-3.944,0.471-5.858c0.158-1.912,0.314-3.577,0.473-4.992c-0.264,1.415-0.498,3.041-0.707,4.875
			c-0.211,1.835-0.42,3.722-0.629,5.661c-0.211,1.939-0.422,3.866-0.629,5.778c-0.211,1.914-0.395,3.631-0.551,5.15
			c-0.787-0.523-1.18-1.23-1.18-2.123c0-1.048,0.025-1.926,0.078-2.634s0.131-1.533,0.236-2.477l0.865-0.786
			c-0.053-0.262-0.078-0.498-0.078-0.708v-0.786c0-1.205,0.129-2.581,0.393-4.128c0.262-1.546,0.562-3.118,0.904-4.718
			c0.34-1.598,0.641-3.145,0.904-4.639c0.262-1.494,0.393-2.792,0.393-3.893l-0.943-0.236c-0.105,1.258-0.264,2.687-0.473,4.285
			c-0.209,1.6-0.432,3.252-0.668,4.954c-0.236,1.704-0.459,3.395-0.668,5.071c-0.105,0.893-0.211,1.73-0.314,2.517
			c0.104-1.467,0.236-3.04,0.393-4.718c0.262-2.41,0.537-4.809,0.826-7.194c0.287-2.385,0.562-4.73,0.826-7.038
			c0.262-2.306,0.523-4.429,0.785-6.369c0-0.786,0.197-1.638,0.59-2.555c0.393-0.917,0.668-1.874,0.826-2.87
			c0.314,0.105,0.576,0.157,0.785,0.157h0.551c0.523,0,0.865,0.118,1.023,0.354c0.156,0.236,0.234,0.564,0.234,0.983v0.393
			l0.709,0.236c0.418-0.787,0.916-1.416,1.494-1.887c0.576-0.472,1.152-0.708,1.729-0.708c1.258,0,1.887,1.336,1.887,4.01
			c0,1.416-0.145,2.923-0.432,4.521c-0.289,1.6-0.432,3.159-0.432,4.679v1.022c0,1.678-0.186,3.499-0.551,5.465
			c-0.367,1.965-0.775,3.957-1.219,5.975c-0.447,2.019-0.854,3.971-1.219,5.858c-0.367,1.887-0.551,3.616-0.551,5.189
			c0,0.367,0.025,0.76,0.078,1.179c0.053,0.421,0.078,0.813,0.078,1.18c0,0.786-0.145,1.271-0.432,1.455
			c-0.289,0.184-0.643,0.275-1.061,0.275c0-0.681-0.027-1.521-0.08-2.517c-0.053-0.995-0.078-1.887-0.078-2.673
			c-0.105,0.577-0.156,1.363-0.156,2.358c0,0.996-0.053,1.939-0.158,2.831h-1.18v0.943c-0.471,0.839-1.1,1.258-1.887,1.258
			c-0.367,0-0.787-0.104-1.258-0.314C480.972,91.267,480.605,91.031,480.343,90.768z M479.164,81.883
			c0.053-0.576,0.105-1.152,0.158-1.729C479.269,80.783,479.216,81.36,479.164,81.883z M496.541,30.382
			c-0.891,0.524-1.703,1.207-2.438,2.044c-0.734,0.839-1.494,1.651-2.279,2.438c0.471-0.315,0.891-0.655,1.258-1.022
			c0.365-0.366,0.746-0.733,1.141-1.101c0.393-0.366,0.812-0.733,1.258-1.101c0.445-0.366,0.955-0.708,1.533-1.022
			c0.156,0.21,0.301,0.393,0.432,0.55s0.197,0.314,0.197,0.472l-1.809,1.809c0-0.104-0.092-0.209-0.275-0.314
			c-0.184-0.104-0.328-0.157-0.432-0.157c-0.158,0.524-0.42,0.943-0.787,1.258s-0.734,0.604-1.1,0.865
			c-0.369,0.263-0.736,0.55-1.102,0.865c-0.367,0.314-0.629,0.735-0.787,1.258v0.158c0,0.053,0.08,0.079,0.236,0.079l3.932-3.696
			l-1.494,1.494c-0.734,0.734-1.508,1.481-2.32,2.241c-0.812,0.761-1.572,1.429-2.279,2.005c-0.707,0.578-1.141,0.865-1.297,0.865
			l-0.078-0.079c-0.369-0.104-0.748-0.157-1.141-0.157s-0.801-0.026-1.219-0.079c0-0.419-0.066-0.865-0.197-1.337
			s-0.195-0.838-0.195-1.101c0-0.262,0.129-0.394,0.393-0.394c0-0.157-0.092-0.405-0.275-0.747c-0.184-0.34-0.381-0.733-0.59-1.18
			c-0.211-0.445-0.406-0.917-0.59-1.415c-0.184-0.498-0.275-1.009-0.275-1.533c0-0.523,0.223-1.035,0.668-1.533
			c0.445-0.498,0.971-0.93,1.572-1.297c0.604-0.366,1.193-0.681,1.77-0.944c0.576-0.262,0.996-0.445,1.258-0.55
			c0.209,0,0.289-0.118,0.236-0.354s0.025-0.354,0.236-0.354l1.416,0.472c-0.107,0.263-0.434,0.695-0.984,1.297
			c-0.549,0.603-0.957,1.036-1.219,1.297c0.367-0.262,0.799-0.655,1.299-1.18c0.496-0.523,0.877-0.917,1.139-1.179
			c0.262,0.105,0.498,0.21,0.709,0.314c0.209,0.106,0.365,0.157,0.471,0.157l0.236-0.236c0.365,0,0.773,0.079,1.219,0.236
			s0.852,0.342,1.219,0.55c0.365,0.21,0.68,0.446,0.943,0.708C496.41,30.016,496.541,30.225,496.541,30.382z"/>
	</g>
	<g>
		<path fill="#444444" d="M108.488,88.234c-4.571,0-6.855-5.48-6.855-16.445v-0.844c0-4.457,0.129-7.299,0.389-8.527
			c0.258-1.227,0.557-2.352,0.895-3.377c0.338-1.024,0.743-1.817,1.216-2.38c1.17-1.396,2.668-2.094,4.491-2.094
			c1.824,0,3.332,0.664,4.525,1.992c0.72,0.856,1.767,7.745,3.14,20.667c0.225,2.115,0.349,3.32,0.372,3.613l0.777,0.338
			c0.585,1.148,1.069,1.723,1.452,1.723c1.778,0,2.667-3.508,2.667-10.52c0-7.013-1.283-13.918-3.85-20.718
			c-0.675-1.801-1.418-3.242-2.229-4.322c-1.688-2.162-4.21-3.242-7.564-3.242c-3.31,0-5.662,1.025-7.058,3.073
			c-1.171,1.734-1.903,4.165-2.195,7.294c-0.09,0.901-0.169,1.942-0.236,3.124c-0.067,1.182-0.113,1.863-0.135,2.043
			s-0.062,0.535-0.118,1.063c-0.056,0.529-0.118,0.929-0.186,1.199c-0.203,0.991-0.383,1.678-0.541,2.06
			c0.09,1.216,0.135,2.229,0.135,3.039c0,0.811-0.09,1.441-0.27,1.891c0.09,0.182,0.135,0.604,0.135,1.268s0.034,1.564,0.102,2.701
			s0.129,2.004,0.186,2.6c0.056,0.598,0.169,1.666,0.338,3.209c0.169,1.541,0.287,2.617,0.354,3.225s0.141,1.492,0.22,2.65
			c0.079,1.16,0.14,2.111,0.186,2.854c0.045,0.744,0.14,1.6,0.287,2.566c0.146,0.969,0.332,1.836,0.557,2.6
			c0.585,1.848,1.559,3.732,2.921,5.658c1.362,1.924,2.786,2.887,4.272,2.887c2.521,0,4.739-0.422,6.652-1.268
			c1.914-0.844,3.793-2.244,5.64-4.203c0.248-0.248,0.461-0.461,0.642-0.643c0.405-0.404,0.698-0.629,0.878-0.674l0.608,0.641
			c-0.315,1.148-1.047,2.229-2.195,3.242c-1.148,1.014-2.443,1.834-3.884,2.465c-3.084,1.352-5.786,2.025-8.104,2.025
			c-3.354,0-6.27-2.701-8.746-8.104c-0.045-0.562-0.191-1.104-0.439-1.621c-0.248-0.518-0.405-0.889-0.473-1.115
			c-0.495-1.395-1.002-4.891-1.52-10.484c-0.518-5.594-0.776-9.574-0.776-11.938c0-9.253,0.923-16.299,2.769-21.14
			c0.968-2.566,2.499-4.3,4.592-5.201c1.508-0.652,3.146-0.979,4.914-0.979c1.767,0,3.18,0.152,4.238,0.456
			c1.058,0.304,1.986,0.675,2.786,1.114c0.799,0.439,1.548,1.069,2.246,1.891s1.283,1.582,1.756,2.279
			c0.473,0.698,0.929,1.632,1.368,2.803c0.439,1.171,0.782,2.156,1.03,2.955c0.248,0.799,0.506,1.886,0.777,3.259
			c0.72,3.647,1.12,5.848,1.199,6.602c0.079,0.754,0.197,1.633,0.354,2.634c0.157,1.002,0.258,1.672,0.304,2.01
			c0.045,0.337,0.124,0.889,0.236,1.654c0.135,1.104,0.203,2.353,0.203,3.748c0,7.609-1.711,11.414-5.133,11.414
			c-0.63,0-1.283-0.264-1.958-0.793s-1.182-0.84-1.52-0.93c-0.811,1.982-2.15,3.434-4.019,4.357
			C110.367,88.009,109.433,88.234,108.488,88.234z M110.7,57.1c-0.237-0.248-0.529-0.422-0.878-0.523
			c-0.349-0.102-0.771-0.152-1.266-0.152c-0.496,0-0.968,0.135-1.418,0.405c-0.451,0.271-0.822,0.608-1.114,1.013
			c-0.293,0.405-0.541,0.923-0.743,1.553c-0.202,0.631-0.36,1.233-0.473,1.807c-0.113,0.574-0.203,1.245-0.27,2.009
			c-0.09,1.036-0.135,2.319-0.135,3.851v8.881c0,3.152,0.163,5.229,0.49,6.23c0.326,1.002,0.659,1.785,0.996,2.348
			c0.653,1.146,1.688,1.721,3.107,1.721c0.788,0,1.576-0.455,2.364-1.367s1.413-1.941,1.875-3.09
			c0.461-1.148,0.692-2.127,0.692-2.938v-5.201c0-0.764-0.034-1.502-0.101-2.211c-0.068-0.71-0.113-1.233-0.135-1.57
			c-0.022-0.338-0.079-0.777-0.169-1.317s-0.152-0.94-0.186-1.198c-0.034-0.26-0.107-0.693-0.22-1.301
			c-0.113-0.608-0.191-1.001-0.236-1.182c-0.203-0.765-0.394-1.716-0.574-2.854c-0.181-1.136-0.299-1.846-0.355-2.127
			c-0.056-0.281-0.141-0.636-0.253-1.063c-0.113-0.428-0.248-0.76-0.405-0.996C111.133,57.589,110.936,57.348,110.7,57.1z"/>
	</g>
</g>
<g id="Limbs">
	<ellipse opacity="0.8" fill="#E6E6E6" cx="39.401" cy="127.551" rx="33.51" ry="3.499"/>
	<g>
		<path fill="#66CC66" d="M57.434,76.969c0,0,13.232,9.984,15.137,19.964l1.193,7.072"/>
		<g>
			<g>
				<path fill="#79D279" d="M60.036,85.369c0.129-0.124,0.186-0.323,0.354-0.269c0.467,0.236,0.316,0.936,0.778,1.171l0.234-0.172
					c0.151,0.359,0.321,0.766,0.484,1.152c0.542,0.511,1.033,1.036,1.588,1.523c0.069-0.081,0.139-0.149,0.216-0.118
					c0.258,0.183,0.42,0.58,0.662,0.937l0.156,0.12c0.08,0,0.168-0.051,0.223-0.082c0.112,0.16,0.196,0.314,0.27,0.46
					c1.686,1.363,3.391,2.812,4.85,4.717c0.42,0.357,0.88,0.737,1.088,1.167c0.141,0.325,0.224,0.72,0.289,1.11
					c0.049,0.418,0.057,0.872,0.106,1.242c0.987-0.294,1.787,1.437,2.744,0.896c0.062,0.501,0.155,1.254,0.446,1.243
					c0.874-0.033,1.924,0.18,2.663,1.419c0.208,0.499-0.017,1.357,0.187,1.512c0.323,0.241,0.49-0.775,0.812-0.534
					c-0.171-1.959-0.507-3.854-0.88-5.744c-0.128-0.824-0.514-2.175-0.872-3.374c-0.447-1.105-0.857-2.264-1.4-3.274
					c-0.525-0.653-2.11-3.19-3.977-5.498c-1.851-2.328-3.917-4.524-4.723-5.457l-0.166-0.15c-0.901-0.999-2.148-2.056-3.244-2.52
					c-0.549-0.16-1.131-0.288-1.708-0.409c0.076,0.282,0.129,0.559,0.165,0.81c-0.375-0.364-0.767-0.715-1.037-0.704
					c-1.136-0.375-0.966,0.426-1.098,1.227c0.032,0.426-0.574,0.525-0.421,1.062c-0.245-0.226-0.368-0.338-0.614-0.563
					c-0.211,0.194,0.88,0.546,0.398,0.759c-0.173-0.29-0.558-0.387-0.806-0.604c-0.157,0.371,0.783,0.846,0.495,1.108
					c-0.191-0.045-0.369-1.001-0.727-0.666c-0.071,0.067,0.173,0.283,0.293,0.396c-0.874-0.531-1.577-0.502-1.21,0.472
					c-0.226-0.205-0.458-0.651-0.723-0.771l-0.003,0.008c0.094,0.091,0.261,0.352,0.37,0.445l-0.401-0.349l-0.057,0.211
					c0.063,0.124,0.145,0.251,0.25,0.342l-0.272-0.237c-0.026,0.181-0.039,0.363-0.039,0.544c0.14,0.51,0.173,1.126,0.343,1.282
					C57.448,82.618,58.75,84.001,60.036,85.369z"/>
			</g>
		</g>
	</g>
	<g>
		<path fill="#66CC66" d="M20.107,76.698c0,0-18.152,14.76-20.107,26.979"/>
		<g>
			<g>
				<path fill="#79D279" d="M10.628,78.726c0.133,0.141,0.352,0.193,0.284,0.387c-0.279,0.54-1.065,0.415-1.345,0.957l0.193,0.247
					c-0.405,0.218-0.859,0.461-1.295,0.695c-0.572,0.679-1.133,1.355-1.633,2.094c0.1,0.059,0.185,0.12,0.158,0.214
					c-0.18,0.328-0.597,0.633-0.97,1.004l-0.112,0.209c0.012,0.088,0.084,0.171,0.128,0.222c-0.167,0.168-0.322,0.313-0.473,0.443
					c-1.193,2.37-2.238,4.879-3.182,7.624c-0.102,0.64-0.134,1.324-0.318,1.872c-0.163,0.393-0.423,0.793-0.701,1.185
					c-0.26,0.403-0.516,0.813-0.718,1.178c1.033,0.394,0.67,2.353,1.867,2.439c-0.195,0.459-0.493,1.154-0.213,1.295
					c0.418,0.213,0.848,0.498,1.189,0.884c0.17,0.192,0.319,0.41,0.433,0.655c0.125,0.244,0.258,0.51,0.329,0.806
					c0.037,0.433-0.506,0.983-0.36,1.163c0.241,0.275,0.781-0.411,1.019-0.129c0.881-2.67,2.145-5.912,4.291-8.958
					c0.145-0.66,1.501-2.772,3.17-4.865c1.683-2.086,3.67-4.117,4.569-4.854l0.138-0.158c0.942-0.847,1.994-1.964,2.506-2.997
					c0.185-0.529,0.354-1.091,0.525-1.655c-0.294,0.021-0.577,0.03-0.837,0.023c0.4-0.325,0.797-0.653,0.816-0.93
					c0.517-1.071-0.305-1.086-1.125-1.366c-0.45-0.042-0.465-0.698-1.052-0.625c0.277-0.221,0.416-0.331,0.694-0.553
					c-0.174-0.262-0.719,0.836-0.87,0.292c0.334-0.137,0.5-0.529,0.779-0.751c-0.369-0.24-1.038,0.688-1.268,0.343
					c0.079-0.204,1.129-0.232,0.841-0.67c-0.057-0.088-0.338,0.135-0.479,0.246c0.723-0.842,0.892-1.623-0.262-1.387
					c0.287-0.226,0.796-0.37,1.072-0.688l-0.007-0.005c-0.174,0.119-0.493,0.248-0.63,0.354l0.527-0.404
					c-0.074-0.034-0.151-0.062-0.231-0.09c-0.18,0.064-0.326,0.123-0.463,0.229l0.346-0.267c-0.198-0.056-0.392-0.104-0.597-0.132
					c-0.615,0.078-1.3,0.028-1.52,0.202C13.989,75.787,12.244,77.188,10.628,78.726z"/>
			</g>
		</g>
	</g>
	<g>
		<line fill="#66CC66" x1="26.109" y1="112.616" x2="26.366" y2="127.859"/>
		<g>
			<g>
				<path fill="#79D279" d="M21.946,116.331c0.167-0.001,0.332-0.055,0.41,0.022c0.162,0.245-0.393,0.453-0.23,0.698l0.269,0.013
					c-0.115,0.182-0.255,0.403-0.381,0.602c0.046,0.374,0.115,0.746,0.212,1.116c0.098-0.011,0.188-0.018,0.225,0.02
					c0.074,0.153-0.017,0.368-0.041,0.591l0.048,0.097c0.059,0.024,0.153,0.029,0.211,0.032c-0.007,0.101-0.031,0.19-0.059,0.273
					c0.548,1.08,1.188,2.175,1.823,3.362c0.252,0.25,0.504,0.499,0.621,0.741c0.109,0.36-0.059,0.824-0.083,1.178
					c0.949-0.07,1.428,0.782,2.384,0.594c-0.017,0.235-0.042,0.589,0.227,0.603c0.806,0.041,1.737,0.206,2.233,0.822
					c0.118,0.243-0.215,0.624-0.05,0.707c0.26,0.132,0.562-0.326,0.823-0.194c0.26-1.821-0.118-3.564-0.141-5.393
					c-0.432-0.616-0.687-4.811-0.519-5.893l-0.014-0.098c0.042-0.589-0.042-1.302-0.412-1.794c-0.227-0.225-0.503-0.452-0.769-0.679
					c-0.155,0.11-0.31,0.212-0.462,0.301c0.017-0.235,0.033-0.471-0.14-0.559c-0.415-0.494-0.884-0.202-1.527,0.002
					c-0.281,0.143-0.717-0.037-1.002,0.185c0.011-0.156,0.017-0.234,0.028-0.393c-0.27-0.013,0.145,0.48-0.297,0.38
					c0.1-0.153-0.067-0.319-0.056-0.477c-0.364,0.061-0.128,0.546-0.487,0.527c-0.084-0.083,0.481-0.448,0.034-0.471
					c-0.09-0.005-0.101,0.152-0.106,0.23c-0.146-0.48-0.577-0.738-1.058-0.29c0.011-0.153,0.197-0.372,0.133-0.533l-0.007,0.001
					c-0.014,0.081-0.104,0.222-0.109,0.297l0.02-0.276l-0.186,0.052c-0.054,0.069-0.097,0.139-0.103,0.211l0.013-0.184
					c-0.145,0.048-0.285,0.104-0.416,0.163c-0.285,0.222-0.705,0.438-0.713,0.555C22.094,114.426,21.96,115.381,21.946,116.331z"/>
			</g>
		</g>
	</g>
	<g>
		<path fill="#66CC66" d="M52.647,110.473c0,0-3.13,16.953,1.374,17.51"/>
		<g>
			<g>
				<path fill="#79D279" d="M46.723,114.229c0.208,0.026,0.424-0.014,0.508,0.099c0.159,0.338-0.565,0.517-0.402,0.858l0.333,0.059
					c-0.172,0.219-0.379,0.482-0.567,0.721c0.004,0.494,0.04,0.988,0.119,1.487c0.124-0.004,0.238-0.002,0.28,0.05
					c0.075,0.208-0.064,0.48-0.115,0.773l0.051,0.133c0.071,0.037,0.189,0.053,0.262,0.062c-0.019,0.131-0.059,0.246-0.1,0.354
					c0.601,1.479,1.35,2.969,2.245,4.527c0.337,0.317,0.679,0.621,0.866,0.928c0.183,0.456,0.081,1.114,0.171,1.625
					c0.567-0.185,1.067-0.023,1.569,0.061c0.493,0.095,0.979,0.088,1.511-0.208c0.031,0.102,0.067,0.232,0.134,0.321
					c0.076,0.068,0.175,0.092,0.324,0.012c0.223-0.119,0.455-0.243,0.686-0.366l0.339-0.188l0.164-0.095
					c0.052-0.027,0.131-0.092,0.067-0.05c-0.119,0.069-0.269,0.168-0.442,0.331l-0.131,0.133l-0.09,0.074
					c-0.062,0.058-0.125,0.132-0.186,0.228c-0.049,0.081-0.043,0.052-0.068,0.097c-0.01,0.006-0.051,0.119-0.027,0.06
					c0.024-0.067,0.019-0.103,0.018-0.114l0.305-2.467l0,0l0.001-0.001l0.001-0.002l0.002-0.003l0.004-0.008l0.008-0.015
					l0.013-0.029c0.008-0.02,0.013-0.04,0.016-0.062c0.006-0.042,0.004-0.086-0.003-0.131l-0.006-0.033
					c-0.113,0.915-0.227,1.832-0.341,2.751l0,0.002l0,0.007v0.019c-0.001,0.028-0.011,0.064-0.004,0.035
					c-0.002,0.018-0.018,0.063-0.022,0.067c0.011-0.033,0.024-0.061,0.039-0.083l0.052-0.07c0.043-0.071,0.091-0.135,0.142-0.19
					c0.054-0.06,0.1-0.092,0.168-0.153c0.088-0.095,0.181-0.181,0.278-0.257c0.097-0.076,0.198-0.144,0.301-0.201
					c0.112-0.07,0.272-0.194,0.412-0.275c0.145-0.089,0.292-0.168,0.443-0.238l0.228-0.099l0.285-0.149
					c0.329-0.174,0.971-0.416,0.787-0.329c-0.013-0.059-0.051-0.062-0.089-0.193c-0.17-0.418-0.381-1.233-0.4-2.121
					c-0.274-0.289-0.493-1.524-0.502-2.932c-0.021-1.396,0.141-2.897,0.329-3.492l-0.002-0.113c0.142-0.658,0.16-1.478-0.208-2.11
					c-0.241-0.301-0.54-0.617-0.824-0.934c-0.214,0.094-0.427,0.179-0.634,0.25c0.066-0.27,0.136-0.537-0.062-0.676
					c-0.411-0.661-1.054-0.435-1.895-0.333c-0.378,0.109-0.882-0.202-1.282,0.004c0.048-0.187,0.071-0.28,0.119-0.468
					c-0.331-0.076,0.077,0.611-0.45,0.393c0.156-0.162-0.014-0.4,0.035-0.589c-0.465-0.009-0.279,0.634-0.719,0.534
					c-0.088-0.121,0.694-0.44,0.144-0.569c-0.11-0.025-0.159,0.165-0.183,0.26c-0.075-0.618-0.544-1.05-1.245-0.598
					c0.049-0.193,0.329-0.412,0.295-0.655l-0.009,0.001c-0.041,0.117-0.186,0.267-0.21,0.362l0.093-0.354l-0.244,0.025
					c-0.084,0.079-0.155,0.158-0.179,0.248l0.062-0.233c-0.191,0.029-0.378,0.066-0.555,0.112c-0.407,0.219-0.977,0.397-1.014,0.547
					C47.261,111.821,46.904,113.009,46.723,114.229z"/>
			</g>
		</g>
	</g>
</g>
<g id="Body">
	<g>
		<path fill="#E9E9E9" d="M65.819,111.313c-0.011,2.264-1.872,4.107-4.136,4.097l-46.613-0.224
			c-2.264-0.011-4.108-1.872-4.097-4.136l0.305-63.614c0.011-2.264,1.872-4.108,4.136-4.097l46.614,0.224
			c2.264,0.011,4.108,1.872,4.097,4.136L65.819,111.313z"/>
	</g>
</g>
<g id="Slider">
	<g>
		<g>
			<path fill="#63B55E" d="M36.89,97.639c0.006,6.655-5.239,12.104-11.656,12.11c-6.417,0.007-11.673-5.433-11.679-12.088
				L13.52,60.934c-0.006-6.655,5.239-12.105,11.655-12.111c6.417-0.006,11.673,5.433,11.679,12.088L36.89,97.639z"/>
		</g>
		<g>
			<path fill="#6FD86B" d="M37.011,96.571c0.006,6.34-4.991,11.531-11.104,11.537c-6.114,0.006-11.121-5.176-11.127-11.516
				l-0.034-36.233c-0.006-6.339,4.991-11.531,11.104-11.537c6.113-0.006,11.12,5.176,11.126,11.516L37.011,96.571z"/>
		</g>
	</g>
	<g>
		<g>
			<path fill="#63B55E" d="M62.822,98.194c0.006,6.655-5.239,12.104-11.656,12.111c-6.417,0.007-11.673-5.433-11.68-12.088
				l-0.035-36.73c-0.006-6.655,5.239-12.104,11.656-12.11c6.417-0.006,11.672,5.434,11.679,12.089L62.822,98.194z"/>
		</g>
		<g>
			<path fill="#6FD86B" d="M62.943,97.125c0.006,6.34-4.991,11.531-11.104,11.537s-11.12-5.176-11.126-11.516l-0.034-36.233
				c-0.006-6.339,4.991-11.531,11.104-11.537c6.113-0.006,11.12,5.176,11.126,11.516L62.943,97.125z"/>
		</g>
	</g>
</g>
<g id="Eyes">
	<ellipse transform="matrix(1 0.0055 -0.0055 1 0.333 -0.137)" fill="#63B55E" cx="25.076" cy="60.45" rx="10.295" ry="10.122"/>
	<ellipse transform="matrix(1 0.0055 -0.0055 1 0.3391 -0.2841)" fill="#63B55E" cx="51.37" cy="60.977" rx="10.296" ry="10.087"/>
	<circle fill="#FFFFFF" cx="25.356" cy="59.657" r="9.739"/>
	<circle fill="#FFFFFF" cx="51.649" cy="60.219" r="9.739"/>
	<g id="Pupils_1_">
		<circle fill="#666666" cx="25.364" cy="53.415" r="1.463"/>
		<circle fill="#666666" cx="51.658" cy="53.977" r="1.463"/>
	</g>
</g>
<g id="Twitter">
	<g opacity="0.4">
		<path fill="#519ECE" d="M37.109,49.376l1.405-0.474c-0.833-2.402-3.854-4.399-5.12-4.952l0.005-0.009
			c-0.04-0.02-0.066-0.033-0.081-0.041l-0.009,0.014c-0.071-0.029-0.134-0.051-0.191-0.07c-0.139-0.23-0.235-0.372-0.254-0.401
			l-0.617,0.406l-0.146-0.712c-4.888,0.979-5.134,1.378-5.298,1.642l1.269,0.75c-0.071,0.115-0.153,0.165-0.154,0.166
			c0.335-0.2,2.224-0.665,3.968-1.028c0.535,0.902,1.717,3.142,1.655,5.211c0.438-0.112,0.96,0.036,1.468,0.198
			c0.073-1.36-0.284-2.741-0.732-3.889C35.377,46.969,36.673,48.118,37.109,49.376z"/>
		<path fill="#519ECE" d="M41.225,42.418l-0.102-0.214l-0.544,0.079c-4.493,0.649-4.928,1.392-5.07,1.636l1.286,0.721
			c-0.03,0.052-0.059,0.076-0.059,0.077c0.288-0.241,1.826-0.635,3.502-0.909c0.635,1.443,1.684,4.233,1.398,5.547l1.451,0.297
			c0.305-1.402-0.369-3.604-0.967-5.165c1.071,0.651,2.374,1.748,2.997,3.456l1.397-0.495C45.329,44.2,42.234,42.798,41.225,42.418z
			"/>
	</g>
	<path fill="#55ACEE" d="M41.431,32.903c0.173,0.011,0.659,0.079,0.659,0.079c14.53,1.627,19.691-17.018,19.691-17.018
		c1.374-2.645,9.895-6.007,9.895-6.007l-7.89,0.406c-6.15-7.482-15.931,3.141-15.931,3.141C38.053,19.599,12.367,0,12.367,0
		l0.374,3.723c0.688,3.017,2.319,3.914,2.319,3.914l13.023,10.649c0.223,6.582,3.126,10.212,6.232,12.219l-2.053,11.504
		c-4.572,0.949-4.815,1.351-4.978,1.62l1.314,0.794c-0.074,0.121-0.158,0.173-0.16,0.174c0.347-0.21,2.3-0.697,4.104-1.078
		c0.558,0.958,1.795,3.343,1.721,5.536c0.503,0.091,1.04,0.317,1.508,0.426c0.133-1.514-0.259-3.07-0.752-4.353
		c1.14,0.826,2.483,2.042,2.937,3.37l1.453-0.497c-0.867-2.538-3.997-4.65-5.307-5.235l0.004-0.009
		c-0.041-0.021-0.068-0.035-0.083-0.043l-0.009,0.015c-0.074-0.031-0.139-0.055-0.198-0.074c-0.032-0.054-0.062-0.104-0.089-0.148
		l1.78-11.49c1.708,0.85,3.577,1.56,4.773,1.766l0.007,0.271l0.294,7.968c-4.014,0.65-4.428,1.368-4.568,1.612l1.332,0.763
		c-0.031,0.055-0.061,0.08-0.061,0.08c0.297-0.253,1.888-0.666,3.622-0.952c0.661,1.524,1.751,4.47,1.459,5.856l1.501,0.317
		c0.312-1.479-0.389-3.804-1.011-5.452c1.109,0.69,2.459,1.85,3.107,3.652l1.445-0.519c-1.163-3.236-4.327-4.71-5.531-5.208
		 M57.434,13.514c-1.02,0.102-1.926-0.614-2.025-1.6c-0.099-0.986,0.647-1.868,1.667-1.97c1.02-0.102,1.926,0.614,2.024,1.6
		C59.198,12.529,58.453,13.412,57.434,13.514z"/>
</g>
</svg>
