<?xml version="1.0" encoding="utf-8"?>
<!-- Generator: Adobe Illustrator 16.0.0, SVG Export Plug-In . SVG Version: 6.00 Build 0)  -->
<!DOCTYPE svg PUBLIC "-//W3C//DTD SVG 1.1//EN" "http://www.w3.org/Graphics/SVG/1.1/DTD/svg11.dtd">
<svg version="1.1" xmlns="http://www.w3.org/2000/svg" xmlns:xlink="http://www.w3.org/1999/xlink" x="0px" y="0px"
	 width="305.955px" height="243.245px" viewBox="0 0 305.955 243.245" enable-background="new 0 0 305.955 243.245"
	 xml:space="preserve">
<g id="Title">
	<g>
		<path fill="#444444" d="M8.388,99.182l-1.92-0.295c-0.453,0-0.916,0.236-1.388,0.709c-0.906,0-1.477-0.158-1.713-0.473H3.219
			c-1.851,0-2.924-0.344-3.219-1.034c0-0.453,0.462-0.679,1.388-0.679l1.329,0.059c0.807,0,1.22-0.581,1.24-1.743
			c0.02-1.162-0.034-2.579-0.163-4.253c-0.128-1.673-0.207-3.337-0.236-4.992c-0.029-1.654-0.144-4.873-0.34-9.657
			c-0.197-4.785-0.325-8.221-0.384-10.308l0.059-7.089c0-1.949-0.059-3.12-0.177-3.514L0.65,56.357c-0.433,0-0.65-0.281-0.65-0.842
			s0.886-1.023,2.658-1.388c1.772-0.364,2.973-0.546,3.604-0.546c1.063,0,1.595,0.33,1.595,0.989c0,0.66-0.247,0.99-0.739,0.99
			L5.671,55.5c-0.69,0-1.103,0.325-1.241,0.975c-0.138,0.532-0.207,2.097-0.207,4.696c0,2.599,0.251,7.748,0.753,15.446
			c0.502,7.699,0.753,13.488,0.753,17.366l-0.059,3.131l2.186-0.177c1.043,0,1.565,0.502,1.565,1.506L8.388,99.182z"/>
		<path fill="#444444" d="M31.986,62.589l-0.119-1.506c0-0.846,0.285-1.27,0.856-1.27c0.394,0,0.713,0.188,0.96,0.561
			c0.246,0.374,0.369,0.768,0.369,1.182v4.046l-0.325,0.502c0,3.15-0.217,9.25-0.65,18.296c-0.433,9.048-0.856,13.995-1.27,14.841
			c-0.099,0.02-0.389,0.094-0.871,0.222c-0.483,0.127-0.823,0.192-1.019,0.192c-0.197,0-0.374-0.133-0.532-0.399
			c-0.158-0.266-0.28-0.615-0.369-1.048c-0.089-0.433-0.173-0.719-0.251-0.857l0.059-0.177c-0.256-1.673-0.782-3.588-1.58-5.745
			c-0.797-2.156-1.314-3.607-1.55-4.356c-0.138-0.177-0.679-1.683-1.625-4.519c-3.623-11.243-5.907-17.317-6.852-18.223
			c-0.315,1.24-0.473,2.658-0.473,4.253l0.118,4.755l-0.118,2.924c0,0.453,0.079,1.861,0.236,4.223h-0.177
			c0,6.715,0.138,10.426,0.414,11.135v5.435c0.158,0.276,0.236,0.63,0.236,1.063c0,0.945-0.375,1.418-1.123,1.418
			c-0.847,0-1.27-1.083-1.27-3.249l0.236-3.958l-0.384-17.396l0.384-10.721V63.15c0-0.532,0.015-0.886,0.044-1.063
			c0.029-0.177,0.059-0.389,0.088-0.635c0.03-0.246,0.074-0.438,0.133-0.576c0.059-0.138,0.128-0.295,0.207-0.473
			c0.157-0.354,0.364-0.64,0.621-0.856l0.177,0.207l0.591-0.147c0.453,0.157,0.728,0.472,0.827,0.945c0,0.04,0.024,0.153,0.073,0.34
			c0.049,0.187,0.074,0.291,0.074,0.31c0.689,2.875,2.136,6.881,4.342,12.021c2.205,5.139,3.544,8.442,4.017,9.909
			c0.473,1.467,0.896,3.018,1.27,4.652c0.827,3.623,1.733,6.271,2.718,7.945l0.118-0.177C31.523,86.748,31.986,75.761,31.986,62.589
			z M30.716,99.478c0.039,0,0.059,0.019,0.059,0.059L30.716,99.478z"/>
		<path fill="#444444" d="M58.212,61.496l-3.278-0.414l-0.295,0.354l0.118,0.236c-0.079,0.158-0.118,1.31-0.118,3.456
			c0,2.146,0.334,7.163,1.004,15.048s1.004,13.797,1.004,17.735c0,0.295-0.118,0.561-0.354,0.797s-0.502,0.354-0.797,0.354
			l-0.68-0.502l-0.118-4.401l0.118-2.126c0-0.551-0.079-1.033-0.236-1.447c0-3.426-0.241-8.417-0.724-14.974
			c-0.483-6.556-0.744-11.4-0.783-14.531c-3.17,0-4.863-0.384-5.08-1.152c0.177-0.453,0.562-0.679,1.152-0.679l8.21,0.561
			l1.093-0.059c0.728,0,1.092,0.256,1.092,0.768c0,0.276-0.147,0.507-0.443,0.694C58.803,61.403,58.508,61.496,58.212,61.496z"/>
		<path fill="#444444" d="M73.246,59.37c0,0,0.108-0.089,0.325-0.266c0.216-0.177,0.394-0.266,0.531-0.266s0.562,0.118,1.27,0.354
			c0,3.151,0.128,7.862,0.384,14.132c0.255,6.272,0.384,11.322,0.384,15.151c0,3.83,0.128,7.478,0.384,10.943l-0.384,0.679
			c-0.04-0.414-0.66-0.62-1.86-0.62c-0.197-8.959-0.295-14.364-0.295-16.215l-0.148-0.236l0.207-0.531
			c0-0.63-0.07-1.378-0.207-2.245l-0.945-0.236c-0.354,0.118-0.758,0.177-1.21,0.177l-3.869-0.62l-0.621,0.236l-0.177,7.62
			l0.177,0.266l0.354,10.101c0,1.044-0.335,1.565-1.004,1.565c-0.886,0-1.329-1.211-1.329-3.633l0.118-11.075
			c0-3.663-0.059-5.631-0.177-5.907c0.196-0.394,0.295-1.732,0.295-4.017l-0.443-14.147c0-0.276,0.104-0.536,0.311-0.783
			c0.207-0.246,0.448-0.37,0.724-0.37c0.807,0,1.211,1.172,1.211,3.515L67.014,77.71c0,0.473,1.614,0.709,4.844,0.709
			c0.768,0,1.324-0.143,1.668-0.428c0.344-0.286,0.517-1.078,0.517-2.378c0-1.299-0.133-3.805-0.399-7.516
			c-0.266-3.711-0.399-6.493-0.399-8.344C73.246,59.498,73.246,59.37,73.246,59.37z M72.331,77.592l0.118,0.118h-0.118V77.592z"/>
		<path fill="#444444" d="M83.051,98.946l0.059-1.536l-0.207-0.236c0.295-0.807,0.443-1.634,0.443-2.481l-0.295-7.975l0.414-18.223
			l-0.236-7.236c0-1.142,0.581-1.713,1.743-1.713c0.453,0,0.777,0.128,0.975,0.384c0.138,0.04,0.719,0.118,1.743,0.236
			c2.481,0.276,3.751,0.778,3.81,1.506c0,0.315-0.384,0.699-1.152,1.152c-2.225-0.729-3.859-1.112-4.902-1.152l-0.295,0.354
			c0.039,0.571,0.059,1.438,0.059,2.6l-0.236,9.392c0,1.123,0.285,1.684,0.856,1.684l2.038-0.118c1.536,0,2.323,0.364,2.363,1.093
			c0,0.414-0.103,0.778-0.31,1.093c-0.207,0.315-0.576,0.472-1.107,0.472s-0.926-0.157-1.181-0.472l-1.979-0.295h-0.266
			l-0.295,0.295v0.177c0.078,1.044,0.118,2.639,0.118,4.785l-0.118,8.595c0,4.017,0.275,6.242,0.827,6.675
			c0.354,0.295,1.004,0.443,1.949,0.443l2.245-0.118c1.181,0,1.772,0.266,1.772,0.797c0,0.728-0.876,1.093-2.629,1.093h-4.991
			C83.514,100.216,83.11,99.792,83.051,98.946z"/>
		<path fill="#2ECC71" d="M160.309,57.193c-1.194,2.278-2.604,5.329-4.231,9.153c-1.627,3.824-3.417,7.851-5.37,12.082
			c1.572-3.145,3.104-6.265,4.597-9.356c1.491-3.092,3.078-6.318,4.759-9.682c-0.543,2.333-1.18,4.515-1.912,6.549
			c-0.733,2.034-1.546,4.001-2.441,5.898c-0.895,1.899-1.831,3.824-2.807,5.777c-0.977,1.953-1.953,4.015-2.93,6.184l-1.383,0.813
			c-0.923,2.225-1.885,4.462-2.888,6.712c-1.004,2.251-2.196,4.381-3.58,6.386c-1.383,2.006-2.998,3.824-4.841,5.452
			c-1.845,1.627-4.015,2.929-6.509,3.905c-0.814-0.488-1.655-1.031-2.522-1.627c-0.869-0.598-1.737-1.085-2.604-1.464
			c0-0.055-0.014-0.109-0.041-0.163c-0.028-0.054-0.041-0.136-0.041-0.244c0-0.435,0.041-1.126,0.122-2.075
			c0.082-0.95,0.176-1.912,0.285-2.888c0.108-0.977,0.204-1.857,0.285-2.645c0.081-0.786,0.122-1.261,0.122-1.424l-0.488,0.488
			c0,0.38-0.041,0.936-0.122,1.668s-0.19,1.505-0.325,2.319c-0.136,0.813-0.244,1.613-0.326,2.4
			c-0.081,0.786-0.122,1.424-0.122,1.912v0.407l6.265,3.824c1.573-0.163,3.24-1.086,5.004-2.766
			c1.762-1.682,3.458-3.661,5.085-5.939c1.627-2.278,3.091-4.583,4.393-6.916c1.139-2.006,2.034-3.661,2.685-4.963
			c-0.76,1.627-1.682,3.499-2.766,5.613c-1.194,2.333-2.536,4.584-4.027,6.753c-1.492,2.169-3.105,4.054-4.841,5.655
			c-1.737,1.599-3.553,2.562-5.451,2.888l-6.427-3.742c-0.109-0.217-0.163-0.461-0.163-0.732c0-0.868,0.135-2.062,0.407-3.58
			c0.271-1.518,0.407-2.793,0.407-3.824v-0.651c-0.272,0.272-0.679,0.787-1.22,1.546c-0.543,0.76-1.153,1.533-1.831,2.318
			c-0.679,0.786-1.356,1.477-2.034,2.075c-0.679,0.596-1.235,0.895-1.668,0.895c-0.923-0.597-1.79-1.234-2.604-1.912
			c-0.813-0.679-1.655-1.343-2.522-1.994c-0.38-1.681-0.936-3.362-1.668-5.044c-0.732-1.68-1.505-3.348-2.319-5.003
			c-0.813-1.654-1.574-3.322-2.278-5.003c-0.706-1.681-1.194-3.417-1.465-5.207c-0.435-2.604-1.098-5.207-1.993-7.811
			s-1.667-5.207-2.318-7.811l0.325,0.163c0.271-0.108,0.529-0.271,0.773-0.488c0.244-0.216,0.474-0.325,0.691-0.325
			c0.325,0,0.623,0.284,0.895,0.854c0.271,0.57,0.501,1.221,0.691,1.953c0.189,0.732,0.352,1.438,0.488,2.115
			c0.135,0.679,0.23,1.126,0.285,1.342l0.977-0.244c-0.109-1.192-0.217-2.373-0.325-3.54c-0.109-1.166-0.163-2.345-0.163-3.539
			v-0.814c0-0.378,0.041-0.785,0.122-1.22c0.081-0.433,0.189-0.813,0.326-1.139c0.135-0.325,0.338-0.488,0.61-0.488
			c0.651,0,1.383,0.895,2.197,2.685c0.814,1.79,1.654,3.974,2.522,6.549c0.867,2.577,1.721,5.275,2.563,8.095
			c0.84,2.821,1.613,5.289,2.318,7.404c0.163,0.542,0.394,1.18,0.692,1.912c0.297,0.732,0.582,1.452,0.854,2.156
			c0.271,0.706,0.529,1.343,0.773,1.912c0.245,0.57,0.393,0.964,0.448,1.18c0.163-0.814,0.434-1.939,0.813-3.376
			c0.379-1.437,0.773-2.956,1.18-4.557c0.407-1.599,0.813-3.118,1.22-4.556c0.407-1.437,0.746-2.535,1.017-3.295
			c0.434-0.053,0.84-0.095,1.221-0.122c0.379-0.027,0.732-0.041,1.057-0.041c1.084,0,2.061,0.123,2.929,0.366
			c0.867,0.244,1.979,0.638,3.336,1.18c0.379,0.813,0.678,1.844,0.895,3.091c0.216,1.249,0.393,2.577,0.529,3.987
			c0.135,1.411,0.216,2.847,0.244,4.312c0.026,1.465,0.041,2.821,0.041,4.068v3.254c2.223-3.254,4.162-6.576,5.817-9.966
			c1.654-3.389,3.295-6.847,4.922-10.373c0.163-0.379,0.434-1.03,0.813-1.953c0.379-0.922,0.827-1.953,1.342-3.092
			c0.515-1.139,1.058-2.346,1.627-3.621c0.57-1.273,1.125-2.427,1.668-3.458c0.542-1.03,1.043-1.884,1.505-2.563
			c0.46-0.677,0.826-1.017,1.098-1.017l0.488,0.244c-0.869,2.007-1.723,3.933-2.563,5.776c-0.841,1.845-1.682,3.662-2.522,5.451
			c-0.841,1.79-1.667,3.621-2.481,5.492c-0.814,1.872-1.627,3.811-2.441,5.817l10.251-22.048l0.814,0.732l0.407-0.244
			c0.108-0.378,0.311-0.921,0.61-1.627c0.298-0.704,0.651-1.41,1.058-2.115c0.407-0.705,0.84-1.329,1.302-1.872
			c0.46-0.542,0.936-0.814,1.424-0.814c0.216,0,0.406,0.109,0.569,0.326c0.163,0.217,0.285,0.488,0.366,0.813
			c0.082,0.326,0.149,0.638,0.204,0.936c0.054,0.299,0.082,0.529,0.082,0.691L160.309,57.193z M118.165,94.537
			c-0.163,0-0.366,0.15-0.61,0.447c-0.245,0.299-0.502,0.625-0.773,0.977c-0.272,0.354-0.517,0.706-0.732,1.058
			c-0.217,0.353-0.354,0.583-0.407,0.691l0.081,0.082c0.108-0.054,0.298-0.23,0.57-0.529c0.271-0.297,0.542-0.623,0.813-0.976
			c0.271-0.352,0.515-0.691,0.732-1.017c0.216-0.325,0.379-0.542,0.488-0.651L118.165,94.537z M121.175,90.306
			c0.271-0.867,0.582-1.857,0.936-2.97c0.352-1.111,0.732-2.291,1.139-3.539c0.407-1.248,0.786-2.427,1.139-3.54
			c0.353-1.111,0.637-2.034,0.854-2.766c0.216-0.732,0.326-1.152,0.326-1.261V76.15l-0.895,0.651h-0.325
			c-0.272,1.139-0.598,2.346-0.977,3.62c-0.38,1.275-0.76,2.563-1.139,3.865c-0.38,1.302-0.719,2.591-1.017,3.865
			c-0.299,1.275-0.475,2.455-0.528,3.539C120.74,91.527,120.903,91.066,121.175,90.306z M130.613,106.008
			c1.518-0.217,3.078-1.058,4.678-2.522c1.6-1.464,3.104-3.132,4.516-5.003c1.41-1.872,2.671-3.77,3.783-5.695
			c1.111-1.925,1.965-3.511,2.563-4.76l1.383-3.01c-1.139,2.278-2.306,4.475-3.499,6.59c-1.302,2.278-2.631,4.34-3.986,6.184
			c-1.356,1.843-2.739,3.417-4.149,4.718c-1.411,1.302-2.794,2.169-4.149,2.604l-1.464,0.65l-3.335-2.278
			c0-0.325,0.041-0.828,0.122-1.505c0.082-0.679,0.163-1.397,0.244-2.156s0.163-1.491,0.244-2.197
			c0.082-0.704,0.122-1.302,0.122-1.79c-0.055,0.435-0.136,1.017-0.244,1.749c-0.109,0.732-0.231,1.464-0.366,2.196
			c-0.136,0.732-0.244,1.424-0.325,2.075s-0.122,1.139-0.122,1.465c0,0.271,0.148,0.542,0.447,0.813
			c0.298,0.271,0.651,0.529,1.058,0.773c0.406,0.244,0.84,0.474,1.302,0.692c0.46,0.216,0.826,0.406,1.098,0.569L130.613,106.008z
			 M127.439,92.91v0.732c0-0.108,0-0.19,0-0.244c0.054-0.163,0.082-0.325,0.082-0.488H127.439z M127.521,94.375
			c0-0.108-0.028-0.19-0.082-0.245C127.439,94.185,127.466,94.266,127.521,94.375z M129.636,99.825l0.57-4.394l-1.383,4.231
			L129.636,99.825z M134.355,100.72c-0.813-0.488-1.736-0.732-2.766-0.732l-1.139,0.082c0.596,0.108,1.192,0.244,1.79,0.407
			c0.596,0.163,1.192,0.244,1.79,0.244H134.355z M143.305,80.38c-1.357,2.766-2.74,5.506-4.149,8.217
			c-1.411,2.713-3.146,5.207-5.207,7.485v0.244c2.061-2.278,3.824-4.812,5.289-7.607C140.701,85.927,142.056,83.146,143.305,80.38z
			 M148.756,86.32c-0.109,0.217-0.217,0.435-0.326,0.651C148.539,86.754,148.646,86.537,148.756,86.32z"/>
		<path fill="#2ECC71" d="M167.549,95.188c0.216-1.518,0.419-3.295,0.61-5.329c0.189-2.034,0.366-4.081,0.529-6.143
			c0.163-2.061,0.326-4.081,0.489-6.062c0.162-1.979,0.325-3.702,0.488-5.167c-0.272,1.464-0.516,3.146-0.732,5.044
			c-0.217,1.899-0.435,3.852-0.651,5.858c-0.217,2.007-0.435,4-0.651,5.98c-0.217,1.98-0.407,3.756-0.569,5.329
			c-0.813-0.542-1.22-1.274-1.22-2.197c0-1.084,0.026-1.994,0.081-2.726c0.054-0.732,0.135-1.586,0.244-2.563l0.895-0.813
			c-0.055-0.271-0.082-0.515-0.082-0.732v-0.814c0-1.247,0.135-2.67,0.407-4.271c0.271-1.599,0.583-3.227,0.936-4.882
			c0.352-1.654,0.664-3.254,0.936-4.8c0.271-1.546,0.407-2.888,0.407-4.027l-0.977-0.245c-0.109,1.302-0.272,2.781-0.488,4.435
			c-0.218,1.655-0.448,3.363-0.692,5.125c-0.244,1.763-0.475,3.512-0.691,5.248c-0.109,0.923-0.217,1.79-0.325,2.604
			c0.108-1.518,0.244-3.145,0.407-4.882c0.271-2.494,0.556-4.975,0.854-7.444c0.298-2.468,0.583-4.895,0.854-7.282
			c0.271-2.386,0.542-4.583,0.814-6.59c0-0.813,0.203-1.694,0.609-2.644c0.407-0.948,0.692-1.938,0.854-2.97
			c0.325,0.109,0.597,0.163,0.814,0.163h0.569c0.542,0,0.895,0.122,1.058,0.366c0.163,0.244,0.244,0.583,0.244,1.017v0.407
			l0.732,0.244c0.434-0.813,0.949-1.464,1.546-1.953c0.596-0.488,1.192-0.732,1.79-0.732c1.302,0,1.953,1.383,1.953,4.149
			c0,1.464-0.15,3.024-0.447,4.678c-0.299,1.655-0.448,3.269-0.448,4.841v1.058c0,1.736-0.19,3.62-0.569,5.654
			c-0.38,2.034-0.801,4.096-1.261,6.183c-0.462,2.089-0.882,4.109-1.262,6.062c-0.38,1.953-0.569,3.742-0.569,5.37
			c0,0.38,0.027,0.787,0.081,1.22c0.054,0.435,0.082,0.842,0.082,1.22c0,0.814-0.15,1.316-0.448,1.505
			c-0.299,0.19-0.665,0.285-1.098,0.285c0-0.704-0.028-1.572-0.082-2.604c-0.055-1.029-0.082-1.953-0.082-2.766
			c-0.109,0.597-0.163,1.411-0.163,2.441c0,1.031-0.055,2.007-0.163,2.929h-1.22v0.977c-0.489,0.868-1.139,1.302-1.953,1.302
			c-0.381,0-0.813-0.108-1.302-0.326C168.2,95.704,167.82,95.46,167.549,95.188z M166.328,85.994
			c0.054-0.596,0.108-1.192,0.163-1.79C166.437,84.855,166.382,85.453,166.328,85.994z M184.309,32.704
			c-0.923,0.543-1.763,1.249-2.522,2.116c-0.76,0.868-1.546,1.708-2.359,2.522c0.488-0.325,0.921-0.677,1.302-1.058
			c0.379-0.379,0.772-0.759,1.18-1.139c0.407-0.379,0.84-0.759,1.301-1.14c0.46-0.378,0.989-0.732,1.587-1.057
			c0.163,0.217,0.312,0.407,0.448,0.569c0.135,0.163,0.203,0.326,0.203,0.488l-1.871,1.872c0-0.108-0.096-0.216-0.285-0.326
			c-0.191-0.108-0.339-0.163-0.448-0.163c-0.163,0.543-0.435,0.977-0.813,1.302c-0.38,0.326-0.76,0.625-1.139,0.895
			c-0.38,0.272-0.76,0.569-1.139,0.895c-0.38,0.325-0.651,0.76-0.813,1.302v0.163c0,0.055,0.082,0.081,0.244,0.081l4.068-3.824
			l-1.546,1.546c-0.76,0.76-1.56,1.533-2.4,2.318c-0.842,0.787-1.627,1.479-2.359,2.075c-0.732,0.597-1.18,0.895-1.343,0.895
			l-0.081-0.082c-0.38-0.108-0.773-0.163-1.18-0.163c-0.407,0-0.828-0.026-1.261-0.082c0-0.433-0.069-0.895-0.204-1.383
			c-0.136-0.488-0.203-0.867-0.203-1.139c0-0.271,0.135-0.407,0.407-0.407c0-0.163-0.095-0.419-0.285-0.773
			c-0.191-0.352-0.394-0.759-0.61-1.22c-0.217-0.46-0.421-0.949-0.61-1.465c-0.19-0.515-0.285-1.043-0.285-1.586
			c0-0.542,0.23-1.07,0.691-1.586c0.46-0.515,1.003-0.962,1.627-1.343c0.623-0.378,1.233-0.704,1.831-0.976
			c0.596-0.271,1.03-0.46,1.302-0.569c0.216,0,0.297-0.122,0.244-0.366c-0.054-0.244,0.026-0.366,0.244-0.366l1.464,0.489
			c-0.109,0.271-0.447,0.719-1.017,1.342c-0.569,0.625-0.99,1.072-1.261,1.342c0.379-0.271,0.826-0.677,1.342-1.22
			c0.515-0.542,0.907-0.948,1.18-1.22c0.271,0.109,0.515,0.217,0.732,0.326c0.216,0.109,0.378,0.162,0.488,0.162l0.244-0.244
			c0.379,0,0.8,0.082,1.261,0.244c0.46,0.163,0.881,0.354,1.261,0.57c0.378,0.218,0.704,0.461,0.976,0.732
			C184.173,32.325,184.309,32.542,184.309,32.704z"/>
		<path fill="#2ECC71" d="M191.955,81.601c0-0.379,0.013-0.867,0.041-1.465c0.027-0.596,0.067-1.192,0.122-1.79l0.163-1.871
			c0.053-0.651,0.107-1.221,0.163-1.708c-0.055,0.813-0.096,1.831-0.123,3.051c-0.028,1.22-0.04,2.129-0.04,2.725v3.255
			c0,0.435,0.012,0.895,0.04,1.383c0.027,0.488,0.067,0.949,0.123,1.383c-0.218-0.867-0.354-1.721-0.407-2.562
			C191.982,83.161,191.955,82.361,191.955,81.601z M192.444,74.685c0-0.108,0-0.189,0-0.244c0.053-0.053,0.081-0.108,0.081-0.163
			C192.525,74.496,192.497,74.632,192.444,74.685z M213.516,92.503c-0.326,0-0.652,0.163-0.977,0.488
			c-1.139,0.435-2.319,0.8-3.539,1.098c-1.221,0.299-2.481,0.447-3.783,0.447c-3.689,0-6.456-1.07-8.299-3.213
			c-1.845-2.142-2.766-5.248-2.766-9.316c0-1.953,0.082-3.905,0.244-5.857c0.163-1.898,0.271-3.662,0.325-5.289
			c-0.162,1.682-0.353,3.364-0.569,5.044c-0.272,1.791-0.407,3.662-0.407,5.614c0,0.976,0.094,2.225,0.285,3.742
			c0.189,1.52,0.664,2.998,1.423,4.434c0.759,1.438,1.925,2.685,3.499,3.743c1.573,1.058,3.743,1.586,6.509,1.586
			c1.302,0,2.563-0.149,3.783-0.447c1.221-0.298,2.4-0.664,3.54-1.099c-0.76,0.923-1.778,1.656-3.052,2.197
			c-1.274,0.543-2.78,0.813-4.515,0.813c-2.225,0-4.381-0.46-6.469-1.383c-2.088-0.921-3.675-2.467-4.759-4.637l0.488-0.895
			c-0.977-1.735-1.52-3.295-1.627-4.678c-0.109-1.383-0.218-2.752-0.326-4.109l1.383-14.238c0.271-2.441,0.46-4.881,0.569-7.322
			l-0.244-0.163c-0.435,2.55-0.787,4.991-1.058,7.322c-0.272,2.278-0.488,4.529-0.651,6.753v-2.116
			c0.326-2.494,0.623-4.949,0.895-7.363c0.271-2.413,0.623-4.868,1.058-7.363c0.434-2.495,0.989-5.098,1.668-7.811
			c0.677-2.712,1.586-5.614,2.725-8.706c1.519-2.061,2.413-4.095,2.685-6.102c0.163,0,0.325,0.028,0.488,0.082
			c0.163,0.055,0.488,0.082,0.977,0.082c0.325,0,0.61,0.068,0.854,0.203c0.244,0.136,0.366,0.421,0.366,0.854
			c0,0.488-0.162,1.221-0.487,2.197c0.108,0,0.271,0.041,0.487,0.123c0.216,0.081,0.379,0.122,0.488,0.122
			c0.759-1.302,1.451-2.413,2.075-3.336c0.623-0.921,1.233-1.383,1.83-1.383c0.379,0,0.719,0.231,1.018,0.691
			c0.297,0.461,0.447,1.208,0.447,2.237c-0.109,1.953-0.42,3.797-0.935,5.533c-0.517,1.736-1.071,3.417-1.668,5.044
			c-0.597,1.627-1.179,3.283-1.749,4.963c-0.57,1.682-0.991,3.445-1.261,5.288c-0.325,2.115-0.651,4.271-0.977,6.468
			s-0.624,4.38-0.895,6.549c-0.272,2.17-0.529,4.259-0.773,6.265c-0.245,2.007-0.421,3.879-0.529,5.614
			c0,1.574,0.244,3.201,0.732,4.881c0.271,0.435,0.515,0.746,0.732,0.936c0.216,0.19,0.597,0.285,1.139,0.285
			c0.651,0,1.37-0.082,2.156-0.244c0.786-0.163,1.477-0.244,2.075-0.244c0.379,0,0.651,0.055,0.813,0.163
			c0.163,0.109,0.298,0.299,0.407,0.57c-0.76,0.435-1.573,0.76-2.44,0.976c-0.869,0.218-1.682,0.326-2.441,0.326h-1.139
			c-0.218,0-0.407,0-0.57,0c0.597,0.109,1.355,0.163,2.278,0.163c1.411,0,2.848-0.326,4.312-0.977c0,0.488,0.163,0.895,0.488,1.22
			c0.163-0.053,0.542-0.244,1.139-0.569c0.596-0.326,1.111-0.488,1.545-0.488c1.302,0,1.953,0.543,1.953,1.627
			c0,0.163-0.054,0.407-0.162,0.732C214.22,90.957,213.949,91.582,213.516,92.503z M199.928,81.275c0-1.247,0.082-2.468,0.244-3.661
			c0.163-1.192,0.298-2.413,0.407-3.662c-0.272,1.249-0.476,2.469-0.61,3.662c-0.136,1.193-0.258,2.414-0.366,3.661v1.139
			c0,0.38,0.026,0.787,0.082,1.22v-0.57c0-0.271,0.026-0.569,0.081-0.895C199.819,81.845,199.874,81.547,199.928,81.275z"/>
		<path fill="#2ECC71" d="M263.144,40.026c0.107,1.574,0.189,3.106,0.244,4.597c0.053,1.492,0.082,3.024,0.082,4.597
			c0,3.254-0.096,6.523-0.285,9.804c-0.191,3.282-0.42,6.604-0.691,9.966c-0.272,3.364-0.542,6.807-0.814,10.333
			c-0.272,3.526-0.516,7.188-0.732,10.983c0,0.598-0.014,1.208-0.041,1.831c-0.027,0.624-0.095,1.315-0.203,2.075v0.976
			c0,0.163-0.055,0.38-0.164,0.651c-0.109,0.272-0.217,0.461-0.325,0.569c-0.705,0.813-1.343,1.423-1.912,1.831
			c-0.57,0.407-1.098,0.706-1.586,0.895c-0.488,0.191-0.95,0.298-1.384,0.326c-0.434,0.027-0.867,0.068-1.301,0.122h0.488
			c0.162,0,0.474-0.028,0.935-0.081c0.46-0.055,0.977-0.149,1.545-0.285c0.57-0.135,1.112-0.325,1.627-0.569
			c0.515-0.244,0.881-0.582,1.098-1.017l0.732-1.464c0.326-0.596,0.529-1.233,0.61-1.912c0.082-0.678,0.135-1.355,0.163-2.034
			c0.027-0.678,0.041-1.343,0.041-1.993c0-0.651,0.054-1.274,0.163-1.872c0.162-3.417,0.393-6.834,0.691-10.251
			c0.298-3.417,0.583-6.86,0.854-10.332c0.271-3.471,0.515-6.983,0.732-10.537c0.216-3.551,0.325-7.172,0.325-10.861
			c0-1.14-0.015-2.238-0.041-3.295c-0.027-1.058-0.068-2.075-0.122-3.051c0.163,0.218,0.338,0.557,0.528,1.018
			c0.19,0.461,0.339,1.18,0.448,2.156c0.271,0.598,0.434,1.249,0.488,1.953c0.053,0.706,0.135,1.438,0.244,2.197
			c0,3.689-0.136,7.255-0.407,10.699c-0.272,3.445-0.542,6.875-0.813,10.292l-0.732,0.244l-0.732,13.913
			c0,3.905-0.177,7.119-0.528,9.641c-0.354,2.522-0.666,4.19-0.936,5.003v0.244c-0.813,0.814-1.505,1.424-2.075,1.831
			c-0.569,0.407-1.098,0.718-1.587,0.936c-0.487,0.216-0.935,0.338-1.342,0.366c-0.407,0.027-0.828,0.041-1.261,0.041h-5.207
			c-1.464-0.162-3.038-0.231-4.719-0.203c-1.681,0.027-3.445-0.15-5.288-0.529c-1.845-0.38-3.73-1.166-5.655-2.359
			c-1.926-1.192-3.864-3.091-5.817-5.695c0,0.109-0.027,0.191-0.082,0.244c-0.054,0.055-0.109,0.136-0.162,0.244
			c1.79,2.441,3.946,4.448,6.468,6.021c2.522,1.573,5.248,2.494,8.176,2.766h6.834c0.651,0.108,1.315,0.175,1.994,0.204
			c0.677,0.027,1.423,0.041,2.237,0.041c0.814,0,1.885-0.109,3.214-0.325c1.329-0.218,2.589-0.923,3.783-2.115
			c0.216-0.271,0.366-0.475,0.447-0.61c0.082-0.135,0.176-0.338,0.285-0.61l0.245-0.488c0.271-0.488,0.474-0.989,0.61-1.505
			c0.135-0.515,0.257-1.017,0.366-1.505c0,0.598-0.041,1.113-0.123,1.546c-0.081,0.435-0.284,1.086-0.61,1.953l-0.244,0.244
			l-0.977,1.464c-0.488,0.488-1.031,0.867-1.627,1.139c-0.597,0.271-1.167,0.474-1.708,0.61c-0.543,0.134-1.044,0.23-1.505,0.285
			c-0.462,0.053-0.801,0.108-1.018,0.163h-2.685c-0.706,0-1.289-0.014-1.75-0.041c-0.461-0.028-0.813-0.055-1.058-0.082
			c-0.244-0.028-0.448-0.069-0.61-0.122h-2.441c-0.488,0-0.977,0.013-1.464,0.041c-0.488,0.027-1.004,0.041-1.546,0.041
			c-2.551,0-5.032-0.61-7.444-1.831c-2.414-1.22-4.637-2.942-6.671-5.166c-2.034-2.224-3.837-4.854-5.411-7.893
			c-1.574-3.037-2.766-6.399-3.58-10.088c0-0.596-0.041-1.166-0.122-1.708c-0.082-0.542-0.122-1.111-0.122-1.708
			c0-2.006,0.312-4.054,0.936-6.143c0.623-2.087,1.749-3.973,3.376-5.655c1.627-1.68,3.825-3.051,6.59-4.108
			c2.766-1.058,6.264-1.587,10.496-1.587c1.953,0,3.851,0.041,5.695,0.122c1.844,0.082,3.715,0.177,5.614,0.285
			c-0.218,0.163-0.325,0.354-0.325,0.569c0,0.272,0.053,0.503,0.162,0.692c0.108,0.19,0.163,0.394,0.163,0.61
			c0,0.272-0.204,0.502-0.61,0.691c-0.407,0.19-1.261,0.285-2.563,0.285c-0.435,0-0.936-0.013-1.505-0.041
			c-0.57-0.027-1.208-0.067-1.912-0.122v0.732c2.603,0.38,4.705,0.882,6.304,1.505c1.6,0.625,2.59,1.18,2.97,1.668l0.163,0.163
			l0.326-3.58c0.163-1.464,0.244-3.119,0.244-4.963c0-1.898-0.055-3.769-0.164-5.613c-0.109-1.844-0.162-3.281-0.162-4.312
			c0-1.301,0.082-2.168,0.244-2.603c0.163-0.434,0.379-0.651,0.651-0.651c0.215,0,0.393,0.461,0.528,1.383
			c0.135,0.923,0.245,1.967,0.325,3.132c0.082,1.167,0.123,2.319,0.123,3.458v2.359c0,1.574-0.028,3.16-0.082,4.759
			c-0.054,1.601-0.135,3.187-0.243,4.76c0.162-2.061,0.297-4.081,0.407-6.062c0.108-1.979,0.162-3.999,0.162-6.061
			c0-1.247-0.027-2.481-0.081-3.702c-0.055-1.221-0.136-2.454-0.245-3.702c0.325,0.326,0.57,0.488,0.732,0.488
			c0.216,0,0.379-0.163,0.488-0.488c-0.055-0.433-0.109-0.895-0.162-1.383c-0.055-0.434-0.082-0.867-0.082-1.302v-1.22
			c0.271-0.651,0.622-1.152,1.058-1.505c0.433-0.352,0.813-0.529,1.139-0.529c0.922,0,1.735,1.004,2.441,3.01L263.144,40.026z
			 M249.963,64.434c-1.79,0.109-3.812,0.217-6.061,0.325c-2.251,0.109-4.381,0.394-6.387,0.854
			c-2.007,0.461-3.729,1.153-5.166,2.074c-1.438,0.923-2.237,2.197-2.4,3.824c0,1.79,0.379,3.797,1.139,6.021
			c0.759,2.225,1.762,4.326,3.011,6.305c1.247,1.981,2.67,3.675,4.271,5.085c1.6,1.411,3.267,2.197,5.003,2.359h4.638
			c0.271,0,0.474,0.014,0.61,0.041c0.135,0.028,0.338,0.095,0.61,0.204h1.952c0.814,0.163,1.627,0.244,2.441,0.244
			c0-4.556,0.203-9.234,0.61-14.034s0.854-9.505,1.343-14.116C254.872,64.164,253,64.434,249.963,64.434z M255.089,92.177
			c0.053-0.488,0.108-0.989,0.163-1.505c0.053-0.515,0.081-1.044,0.081-1.586v-0.244l-0.325,3.173L255.089,92.177z M255.333,88.272
			c0.054-0.216,0.082-0.434,0.082-0.651c0-0.216,0.053-0.46,0.163-0.732v-0.895c-0.055,0.109-0.082,0.204-0.082,0.285
			c0,0.082-0.028,0.15-0.081,0.203l-0.082,0.163V88.272z M255.821,81.275c0,0.597-0.041,1.208-0.121,1.831
			c-0.082,0.624-0.123,1.315-0.123,2.075c0.597-3.037,0.948-6.237,1.058-9.601c0.108-3.362,0.245-6.59,0.407-9.682
			c-0.272,2.604-0.475,5.167-0.61,7.688C256.295,76.109,256.092,78.672,255.821,81.275z M262.899,90.062
			c0-0.596,0.026-1.207,0.082-1.831c0.053-0.623,0.135-1.288,0.244-1.993c-0.054,1.627-0.081,3.16-0.081,4.597
			c0,1.438-0.082,2.455-0.245,3.051c0-0.271,0.012-0.529,0.041-0.773c0.027-0.244,0.041-0.5,0.041-0.773
			c0-0.433-0.014-0.84-0.041-1.22C262.912,90.741,262.899,90.387,262.899,90.062z M263.388,83.228c0,0.488-0.014,0.976-0.041,1.464
			c-0.028,0.488-0.069,0.95-0.122,1.383c0-1.084,0.027-2.183,0.082-3.295c0.053-1.111,0.135-2.128,0.244-3.051L263.388,83.228z
			 M264.12,76.882c-0.109,0.272-0.19,0.584-0.244,0.936c-0.055,0.353-0.136,0.719-0.245,1.098l0.325-4.963L264.12,76.882z"/>
	</g>
	<g>
		<path fill="#CBD0D3" d="M15.212,114.714v11.319c0,0.547-0.05,1.156-0.151,1.825c-0.101,0.67-0.264,1.354-0.491,2.052
			c-0.227,0.698-0.529,1.382-0.907,2.051c-0.377,0.67-0.844,1.265-1.397,1.783c-0.555,0.519-1.206,0.934-1.953,1.245
			c-0.748,0.311-1.608,0.467-2.582,0.467H7.706c-1.008,0-1.939-0.188-2.796-0.566c-0.856-0.377-1.604-0.934-2.242-1.67
			c-0.604-0.679-1.07-1.41-1.398-2.193c-0.328-0.783-0.567-1.528-0.718-2.235c-0.151-0.708-0.244-1.32-0.277-1.839
			s-0.05-0.835-0.05-0.948v-11.291h3.854v11.319c0,0.151,0.008,0.377,0.025,0.679c0.017,0.302,0.067,0.642,0.151,1.019
			c0.084,0.377,0.202,0.764,0.353,1.16c0.151,0.396,0.365,0.764,0.642,1.104c0.277,0.339,0.617,0.613,1.02,0.82
			c0.403,0.208,0.89,0.312,1.461,0.312c0.856,0,1.524-0.226,2.002-0.679c0.479-0.453,0.84-0.972,1.083-1.557
			c0.243-0.584,0.394-1.16,0.453-1.726s0.088-0.952,0.088-1.16v-11.291H15.212z"/>
		<path fill="#CBD0D3" d="M25.741,135.684c-0.941,0-1.822-0.17-2.645-0.509c-0.823-0.34-1.549-0.792-2.179-1.358
			s-1.125-1.231-1.486-1.995c-0.361-0.764-0.542-1.57-0.542-2.42h3.829c0,0.17,0.071,0.369,0.214,0.595
			c0.142,0.226,0.344,0.443,0.604,0.65c0.261,0.208,0.576,0.382,0.945,0.523c0.37,0.142,0.79,0.213,1.26,0.213
			c0.756,0,1.351-0.099,1.788-0.297c0.437-0.198,0.764-0.415,0.982-0.651c0.219-0.236,0.387-0.552,0.504-0.948
			c0-0.227-0.012-0.453-0.038-0.679c-0.025-0.227-0.105-0.434-0.239-0.623c-0.235-0.32-0.639-0.57-1.209-0.75
			s-1.276-0.269-2.116-0.269c-0.639,0-1.213-0.066-1.726-0.198s-0.961-0.297-1.347-0.496c-0.387-0.198-0.723-0.419-1.008-0.665
			c-0.286-0.245-0.521-0.49-0.706-0.736c-0.369-0.453-0.655-0.929-0.856-1.429c-0.202-0.5-0.344-0.971-0.429-1.415
			c-0.084-0.443-0.13-0.83-0.138-1.16c-0.009-0.33-0.013-0.57-0.013-0.722c0-0.132,0.016-0.344,0.05-0.637
			c0.034-0.292,0.105-0.617,0.214-0.976c0.109-0.358,0.26-0.74,0.453-1.146c0.193-0.405,0.457-0.797,0.793-1.174
			c1.226-1.376,2.93-2.066,5.114-2.066c2.149,0,3.829,0.708,5.038,2.123c0.42,0.491,0.747,1,0.982,1.528
			c0.235,0.528,0.403,1.019,0.504,1.471c0.101,0.453,0.16,0.84,0.176,1.16c0.017,0.321,0.025,0.52,0.025,0.595l-3.829-0.142v0.056
			c0-0.226-0.034-0.485-0.101-0.778c-0.067-0.292-0.201-0.566-0.403-0.821c-0.202-0.254-0.496-0.467-0.882-0.637
			s-0.89-0.254-1.511-0.254c-0.605,0-1.088,0.066-1.448,0.198c-0.362,0.132-0.639,0.293-0.832,0.481
			c-0.193,0.189-0.323,0.387-0.39,0.595c-0.067,0.208-0.101,0.377-0.101,0.509v0.198l-0.025,0.028c0,0.189,0.016,0.378,0.05,0.566
			c0.033,0.151,0.075,0.316,0.125,0.495c0.051,0.18,0.143,0.344,0.277,0.495c0.386,0.434,1.033,0.651,1.939,0.651
			c2.385,0,4.223,0.58,5.517,1.74c1.293,1.16,1.939,2.797,1.939,4.91c0,0.604-0.13,1.265-0.39,1.981
			c-0.261,0.717-0.672,1.387-1.234,2.009c-0.563,0.623-1.297,1.142-2.204,1.557C28.134,135.476,27.034,135.684,25.741,135.684z"/>
		<path fill="#CBD0D3" d="M40.955,119.016v4.216h8.313v4.33h-8.313v3.566h8.64v4.33H37.126v-20.743h12.469v4.301H40.955z"/>
		<path fill="#CBD0D3" d="M67.303,128.1c0.487,0.49,0.907,1.042,1.26,1.656c0.353,0.613,0.643,1.245,0.869,1.896
			s0.39,1.307,0.491,1.967c0.101,0.661,0.151,1.283,0.151,1.868h-1.889h-1.915c0-0.131-0.013-0.354-0.038-0.665
			c-0.025-0.311-0.08-0.655-0.164-1.033s-0.21-0.764-0.378-1.161c-0.168-0.396-0.398-0.764-0.692-1.104
			c-0.294-0.339-0.659-0.613-1.096-0.821c-0.437-0.207-0.966-0.311-1.587-0.311h-4.559v5.094h-3.779v-20.799h8.338
			c0.067,0,0.252,0.014,0.554,0.042c0.302,0.028,0.667,0.113,1.096,0.254c0.428,0.142,0.895,0.354,1.398,0.637
			c0.504,0.283,0.991,0.689,1.461,1.217c1.394,1.566,2.091,3.717,2.091,6.452c0,1.076-0.147,2.009-0.44,2.801
			C68.181,126.883,67.791,127.552,67.303,128.1z M62.316,126.119c0.202,0,0.462-0.033,0.781-0.099
			c0.319-0.066,0.63-0.198,0.932-0.396s0.558-0.481,0.769-0.85c0.209-0.367,0.314-0.863,0.314-1.485c0-0.98-0.113-1.759-0.34-2.334
			c-0.227-0.576-0.496-1.009-0.806-1.302c-0.311-0.292-0.626-0.481-0.945-0.566c-0.319-0.085-0.562-0.127-0.73-0.127h-4.534v7.16
			H62.316z"/>
		<path fill="#CBD0D3" d="M86.8,114.742v20.743h-3.829v-20.743H86.8z"/>
		<path fill="#CBD0D3" d="M103.702,114.714h3.93v20.771h-4.333l-7.959-13.47v13.47h-3.93v-20.799h4.333l7.96,13.47V114.714z"/>
		<path fill="#CBD0D3" d="M124.03,119.016h-4.283v16.47h-3.854v-16.47h-4.282v-4.301h12.418V119.016z"/>
		<path fill="#CBD0D3" d="M131.435,119.016v4.216h8.312v4.33h-8.312v3.566h8.64v4.33h-12.469v-20.743h12.469v4.301H131.435z"/>
		<path fill="#CBD0D3" d="M157.783,128.1c0.487,0.49,0.907,1.042,1.26,1.656c0.352,0.613,0.642,1.245,0.869,1.896
			c0.227,0.651,0.39,1.307,0.491,1.967c0.101,0.661,0.151,1.283,0.151,1.868h-1.889h-1.915c0-0.131-0.013-0.354-0.038-0.665
			c-0.025-0.311-0.08-0.655-0.164-1.033s-0.209-0.764-0.378-1.161c-0.168-0.396-0.398-0.764-0.692-1.104
			c-0.294-0.339-0.659-0.613-1.096-0.821c-0.437-0.207-0.966-0.311-1.587-0.311h-4.56v5.094h-3.778v-20.799h8.338
			c0.067,0,0.252,0.014,0.554,0.042c0.302,0.028,0.667,0.113,1.096,0.254c0.428,0.142,0.894,0.354,1.398,0.637
			c0.504,0.283,0.991,0.689,1.461,1.217c1.394,1.566,2.09,3.717,2.09,6.452c0,1.076-0.146,2.009-0.44,2.801
			C158.66,126.883,158.27,127.552,157.783,128.1z M152.795,126.119c0.202,0,0.462-0.033,0.781-0.099
			c0.319-0.066,0.63-0.198,0.932-0.396s0.558-0.481,0.769-0.85c0.21-0.367,0.314-0.863,0.314-1.485c0-0.98-0.113-1.759-0.34-2.334
			s-0.496-1.009-0.806-1.302c-0.311-0.292-0.625-0.481-0.945-0.566c-0.319-0.085-0.562-0.127-0.73-0.127h-4.535v7.16H152.795z"/>
		<path fill="#CBD0D3" d="M174.458,135.485l-0.958-3.056h-7.456l-0.957,3.056h-4.182l6.6-20.771h4.534l6.6,20.771H174.458z
			 M167.405,128.156h4.736l-2.368-7.443L167.405,128.156z"/>
		<path fill="#CBD0D3" d="M196.625,130.533c-0.403,0.736-0.881,1.406-1.436,2.01s-1.167,1.123-1.839,1.556
			c-0.672,0.435-1.394,0.769-2.167,1.004c-0.772,0.236-1.57,0.354-2.393,0.354c-1.276,0-2.473-0.273-3.59-0.821
			c-1.117-0.547-2.091-1.292-2.922-2.235c-0.832-0.943-1.49-2.042-1.978-3.297c-0.487-1.254-0.73-2.599-0.73-4.033
			c0-1.434,0.243-2.777,0.73-4.032c0.487-1.254,1.146-2.354,1.978-3.297c0.831-0.942,1.805-1.688,2.922-2.235
			s2.313-0.821,3.59-0.821c0.822,0,1.621,0.118,2.393,0.354c0.772,0.236,1.495,0.571,2.167,1.005
			c0.671,0.434,1.285,0.958,1.839,1.57c0.554,0.613,1.033,1.288,1.436,2.023l-2.821,3.169c-0.202-0.565-0.466-1.084-0.793-1.556
			c-0.328-0.471-0.71-0.877-1.146-1.217s-0.916-0.603-1.436-0.792c-0.521-0.188-1.066-0.283-1.637-0.283
			c-0.74,0-1.44,0.161-2.104,0.481c-0.664,0.321-1.239,0.759-1.726,1.315c-0.487,0.557-0.873,1.203-1.159,1.938
			s-0.428,1.528-0.428,2.377c0,0.849,0.143,1.642,0.428,2.377c0.286,0.735,0.672,1.382,1.159,1.938
			c0.487,0.557,1.062,0.996,1.726,1.316c0.663,0.321,1.364,0.481,2.104,0.481c0.57,0,1.116-0.094,1.637-0.283
			c0.521-0.189,1-0.453,1.436-0.792s0.819-0.741,1.146-1.203c0.327-0.462,0.592-0.976,0.793-1.542L196.625,130.533z"/>
		<path fill="#CBD0D3" d="M211.638,119.016h-4.282v16.47h-3.854v-16.47h-4.282v-4.301h12.418V119.016z"/>
		<path fill="#CBD0D3" d="M218.691,114.742v20.743h-3.829v-20.743H218.691z"/>
		<path fill="#CBD0D3" d="M231.36,135.457c-1.276,0-2.473-0.273-3.59-0.821c-1.117-0.547-2.091-1.292-2.922-2.235
			c-0.831-0.943-1.49-2.042-1.978-3.297c-0.487-1.254-0.73-2.599-0.73-4.033c0-1.434,0.244-2.777,0.73-4.032
			c0.487-1.254,1.147-2.354,1.978-3.297c0.831-0.942,1.805-1.688,2.922-2.235c1.117-0.547,2.313-0.821,3.59-0.821
			c1.276,0,2.472,0.273,3.589,0.821c1.117,0.547,2.091,1.292,2.922,2.235c0.831,0.944,1.49,2.043,1.977,3.297
			c0.487,1.255,0.73,2.599,0.73,4.032c0,1.434-0.244,2.778-0.73,4.033c-0.487,1.255-1.146,2.354-1.977,3.297
			c-0.832,0.943-1.806,1.688-2.922,2.235C233.833,135.184,232.636,135.457,231.36,135.457z M231.36,118.959
			c-0.756,0-1.461,0.161-2.116,0.481c-0.655,0.321-1.227,0.759-1.713,1.315c-0.487,0.557-0.874,1.203-1.158,1.938
			c-0.286,0.736-0.428,1.528-0.428,2.377c0,0.849,0.143,1.642,0.428,2.377c0.285,0.735,0.671,1.382,1.158,1.938
			c0.487,0.557,1.058,0.996,1.713,1.316c0.654,0.321,1.36,0.481,2.116,0.481c0.739,0,1.436-0.16,2.09-0.481
			c0.655-0.32,1.23-0.759,1.726-1.316c0.496-0.556,0.886-1.203,1.171-1.938c0.285-0.736,0.428-1.528,0.428-2.377
			c0-0.849-0.143-1.641-0.428-2.377c-0.286-0.736-0.676-1.382-1.171-1.938c-0.496-0.556-1.07-0.995-1.726-1.315
			C232.796,119.12,232.099,118.959,231.36,118.959z"/>
		<path fill="#CBD0D3" d="M256.046,114.714h3.93v20.771h-4.333l-7.96-13.47v13.47h-3.929v-20.799h4.333l7.96,13.47V114.714z"/>
	</g>
	<g>
		<path fill="#999999" d="M134.337,5.212c-0.232-0.653-0.631-1.255-1.198-1.805c-0.567-0.551-1.272-0.929-2.118-1.134
			c-0.884-0.237-1.714-0.29-2.492-0.157c-0.779,0.133-1.482,0.41-2.113,0.831s-1.166,0.974-1.607,1.659
			c-0.442,0.684-0.768,1.461-0.978,2.328c-0.21,0.867-0.276,1.706-0.197,2.517c0.078,0.811,0.301,1.548,0.668,2.211
			c0.367,0.663,0.866,1.232,1.497,1.706c0.631,0.475,1.394,0.809,2.288,1.002c0.845,0.205,1.646,0.193,2.401-0.037
			c0.755-0.23,1.386-0.582,1.892-1.056l1.433,1.759c-0.975,0.705-1.99,1.152-3.047,1.344c-1.056,0.191-2.107,0.171-3.153-0.059
			c-1.241-0.279-2.312-0.74-3.211-1.382c-0.901-0.643-1.616-1.408-2.146-2.294c-0.531-0.886-0.861-1.867-0.99-2.943
			c-0.13-1.076-0.055-2.188,0.224-3.337c0.279-1.148,0.723-2.172,1.33-3.068c0.608-0.897,1.351-1.618,2.229-2.162
			c0.878-0.545,1.864-0.896,2.959-1.056c1.094-0.159,2.257-0.077,3.487,0.244c1.035,0.274,1.979,0.738,2.83,1.392
			c0.851,0.654,1.548,1.518,2.092,2.591L134.337,5.212z"/>
		<path fill="#999999" d="M153.325,14.089c-0.279,1.149-0.737,2.163-1.375,3.041c-0.638,0.878-1.401,1.588-2.291,2.13
			c-0.889,0.542-1.875,0.894-2.958,1.055c-1.084,0.162-2.222,0.098-3.414-0.191c-1.171-0.284-2.2-0.746-3.09-1.386
			c-0.889-0.641-1.604-1.405-2.146-2.294c-0.542-0.889-0.895-1.87-1.059-2.942s-0.107-2.184,0.172-3.333
			c0.278-1.149,0.736-2.163,1.375-3.041c0.638-0.878,1.401-1.588,2.291-2.13c0.889-0.542,1.875-0.893,2.958-1.055
			c1.084-0.162,2.211-0.101,3.382,0.184c1.192,0.289,2.232,0.754,3.122,1.395c0.888,0.64,1.604,1.405,2.146,2.293
			c0.542,0.889,0.895,1.87,1.059,2.943C153.66,11.829,153.603,12.94,153.325,14.089z M150.983,13.521
			c0.205-0.845,0.262-1.669,0.17-2.472c-0.092-0.803-0.322-1.536-0.689-2.199c-0.367-0.663-0.865-1.237-1.493-1.722
			c-0.628-0.485-1.387-0.836-2.275-1.052c-0.89-0.216-1.725-0.251-2.505-0.108c-0.78,0.144-1.48,0.427-2.1,0.851
			c-0.619,0.424-1.153,0.972-1.603,1.643c-0.451,0.671-0.777,1.43-0.983,2.275c-0.205,0.846-0.262,1.67-0.169,2.473
			c0.092,0.803,0.316,1.534,0.672,2.194c0.356,0.66,0.849,1.233,1.477,1.718c0.628,0.485,1.387,0.836,2.276,1.052
			c0.889,0.215,1.724,0.252,2.505,0.108c0.78-0.143,1.485-0.425,2.116-0.846c0.629-0.421,1.17-0.967,1.62-1.638
			C150.451,15.125,150.778,14.366,150.983,13.521z"/>
		<path fill="#999999" d="M158.251,10.809c0.137-0.563,0.257-1.131,0.361-1.703c0.104-0.571,0.203-1.144,0.296-1.718l2.309,0.56
			l-0.56,2.309l0.065,0.016c0.735-0.762,1.619-1.259,2.651-1.491c1.032-0.231,2.003-0.237,2.913-0.016
			c0.412,0.1,0.841,0.25,1.286,0.449c0.445,0.2,0.856,0.466,1.235,0.799c0.379,0.333,0.708,0.751,0.987,1.255
			c0.279,0.503,0.47,1.112,0.573,1.826c0.67-0.87,1.545-1.472,2.625-1.808c1.079-0.334,2.128-0.378,3.147-0.131
			c1.951,0.473,3.268,1.338,3.95,2.594c0.682,1.255,0.792,2.837,0.33,4.745l-2.343,9.657l-2.146-0.521l2.154-8.877
			c0.374-1.54,0.389-2.786,0.047-3.742c-0.342-0.956-1.25-1.612-2.724-1.97c-0.802-0.194-1.513-0.2-2.13-0.017
			c-0.618,0.183-1.159,0.493-1.621,0.932c-0.463,0.439-0.85,0.971-1.162,1.595c-0.313,0.625-0.555,1.294-0.729,2.009l-1.965,8.097
			l-2.146-0.521l2.154-8.877c0.374-1.539,0.389-2.786,0.047-3.742c-0.342-0.955-1.251-1.611-2.725-1.969
			c-0.13-0.031-0.439-0.061-0.926-0.087c-0.487-0.027-1.027,0.095-1.62,0.364c-0.594,0.269-1.186,0.745-1.775,1.428
			c-0.591,0.683-1.055,1.719-1.391,3.106l-1.894,7.804l-2.146-0.521L158.251,10.809z"/>
		<path fill="#999999" d="M185.718,30.005l-2.146-0.521l3.692-15.218l2.146,0.521L185.718,30.005z M191.318,9.053
			c-0.11,0.455-0.364,0.789-0.76,1.003c-0.396,0.213-0.79,0.273-1.179,0.178c-0.391-0.095-0.713-0.328-0.967-0.699
			c-0.254-0.371-0.326-0.785-0.215-1.24c0.11-0.456,0.363-0.79,0.76-1.004c0.396-0.213,0.789-0.273,1.18-0.178
			c0.39,0.094,0.712,0.327,0.966,0.699C191.357,8.184,191.429,8.598,191.318,9.053z"/>
		<path fill="#999999" d="M196.629,16.539c-0.057,0.422-0.128,0.835-0.215,1.239s-0.18,0.812-0.279,1.223l0.064,0.016
			c0.338-0.354,0.734-0.66,1.187-0.917s0.937-0.456,1.453-0.594c0.516-0.139,1.045-0.217,1.589-0.234
			c0.543-0.018,1.064,0.035,1.563,0.156c1.951,0.473,3.267,1.338,3.95,2.593c0.682,1.256,0.792,2.838,0.33,4.746l-2.344,9.657
			l-2.146-0.521l2.043-8.422c0.41-1.69,0.432-3.057,0.065-4.099c-0.367-1.041-1.342-1.754-2.924-2.138
			c-0.108-0.027-0.422-0.057-0.942-0.091c-0.52-0.035-1.103,0.077-1.75,0.333c-0.647,0.256-1.283,0.722-1.906,1.397
			c-0.623,0.675-1.103,1.707-1.439,3.094l-1.894,7.804l-2.146-0.521l2.879-11.869c0.1-0.412,0.21-0.936,0.33-1.572
			c0.12-0.637,0.227-1.242,0.32-1.816L196.629,16.539z"/>
		<path fill="#999999" d="M209.396,38.987c0.423,0.998,1.078,1.874,1.962,2.628s1.945,1.281,3.18,1.581
			c1.084,0.263,2.043,0.329,2.878,0.199c0.835-0.13,1.551-0.411,2.149-0.839c0.597-0.429,1.087-0.981,1.469-1.658
			c0.382-0.676,0.673-1.427,0.873-2.25l0.663-2.731l-0.065-0.016c-0.946,0.872-1.971,1.404-3.073,1.596
			c-1.102,0.192-2.206,0.153-3.312-0.115c-1.105-0.268-2.093-0.714-2.963-1.339c-0.871-0.624-1.58-1.364-2.13-2.221
			s-0.916-1.812-1.095-2.865c-0.181-1.054-0.137-2.133,0.132-3.239c0.269-1.106,0.713-2.088,1.335-2.947
			c0.621-0.859,1.36-1.564,2.218-2.114c0.855-0.55,1.804-0.91,2.844-1.083c1.041-0.171,2.124-0.121,3.251,0.152
			c0.456,0.11,0.927,0.271,1.416,0.481c0.488,0.21,0.96,0.486,1.417,0.826s0.889,0.761,1.295,1.261
			c0.407,0.5,0.755,1.095,1.047,1.786l0.065,0.016l0.616-2.537l2.146,0.521l-3.661,15.088c-0.2,0.824-0.516,1.677-0.947,2.559
			c-0.433,0.882-1.042,1.641-1.827,2.277c-0.787,0.636-1.773,1.085-2.961,1.348c-1.188,0.262-2.639,0.186-4.352-0.229
			c-1.518-0.369-2.812-0.946-3.882-1.734c-1.072-0.789-1.969-1.821-2.692-3.098L209.396,38.987z M212.422,28.222
			c-0.195,0.802-0.231,1.591-0.109,2.366s0.372,1.49,0.754,2.146c0.379,0.655,0.874,1.222,1.48,1.702
			c0.606,0.48,1.311,0.817,2.113,1.012c0.78,0.189,1.557,0.229,2.33,0.118c0.772-0.111,1.492-0.355,2.158-0.733
			c0.665-0.378,1.231-0.889,1.698-1.534c0.466-0.645,0.795-1.414,0.99-2.308c0.194-0.802,0.247-1.587,0.158-2.354
			c-0.088-0.768-0.318-1.478-0.688-2.13c-0.37-0.652-0.874-1.222-1.513-1.709c-0.639-0.488-1.403-0.84-2.292-1.056
			c-0.803-0.195-1.583-0.217-2.342-0.069s-1.458,0.426-2.096,0.834c-0.638,0.408-1.189,0.929-1.653,1.562
			C212.946,26.702,212.616,27.419,212.422,28.222z"/>
		<path fill="#999999" d="M248.755,33.008c-0.172-0.707-0.486-1.311-0.938-1.811c-0.453-0.5-1.069-0.845-1.85-1.034
			c-0.369-0.09-0.753-0.137-1.153-0.143c-0.4-0.005-0.775,0.048-1.123,0.158c-0.349,0.11-0.649,0.285-0.901,0.521
			c-0.253,0.238-0.43,0.562-0.529,0.974c-0.173,0.715-0.051,1.296,0.37,1.743c0.419,0.446,1.099,0.909,2.039,1.39l2.052,1.049
			c1.004,0.496,1.771,1.193,2.299,2.09c0.528,0.898,0.661,1.888,0.397,2.972c-0.2,0.824-0.54,1.493-1.021,2.008
			c-0.48,0.515-1.043,0.895-1.688,1.14c-0.645,0.245-1.347,0.367-2.104,0.367c-0.757,0-1.504-0.089-2.242-0.269
			c-1.17-0.284-2.206-0.771-3.106-1.459c-0.9-0.689-1.576-1.662-2.029-2.92l2.161-0.818c0.266,0.799,0.679,1.484,1.241,2.057
			c0.561,0.572,1.297,0.969,2.207,1.189c0.433,0.105,0.878,0.162,1.336,0.17c0.457,0.007,0.878-0.051,1.265-0.175
			c0.386-0.125,0.721-0.325,1.006-0.6c0.285-0.275,0.48-0.629,0.585-1.063c0.184-0.758,0.035-1.374-0.447-1.847
			c-0.482-0.472-1.101-0.904-1.855-1.294l-1.963-0.992c-0.244-0.128-0.571-0.322-0.978-0.582c-0.408-0.259-0.786-0.592-1.135-0.999
			c-0.349-0.406-0.617-0.89-0.802-1.451c-0.186-0.562-0.19-1.2-0.017-1.915c0.189-0.781,0.512-1.425,0.968-1.935
			c0.456-0.509,0.995-0.883,1.615-1.123c0.621-0.239,1.29-0.37,2.007-0.391c0.716-0.021,1.433,0.055,2.148,0.229
			c1.062,0.257,1.999,0.703,2.81,1.335c0.811,0.633,1.343,1.508,1.601,2.626L248.755,33.008z"/>
		<path fill="#999999" d="M268.954,42.145c-0.279,1.149-0.737,2.163-1.375,3.041c-0.638,0.878-1.401,1.588-2.29,2.13
			c-0.889,0.542-1.876,0.894-2.959,1.056c-1.084,0.162-2.223,0.098-3.414-0.191c-1.172-0.284-2.201-0.747-3.09-1.387
			c-0.89-0.64-1.605-1.405-2.146-2.294c-0.542-0.889-0.895-1.87-1.06-2.943s-0.107-2.183,0.171-3.333
			c0.279-1.148,0.737-2.162,1.375-3.041c0.638-0.878,1.401-1.588,2.29-2.13c0.889-0.542,1.875-0.894,2.958-1.056
			c1.084-0.162,2.211-0.1,3.382,0.184c1.192,0.29,2.232,0.754,3.122,1.395c0.889,0.641,1.604,1.405,2.147,2.294
			c0.542,0.889,0.894,1.87,1.059,2.943C269.29,39.884,269.232,40.996,268.954,42.145z M266.612,41.577
			c0.206-0.846,0.262-1.67,0.17-2.473c-0.093-0.802-0.323-1.536-0.689-2.199c-0.367-0.663-0.865-1.236-1.493-1.722
			c-0.628-0.485-1.387-0.835-2.275-1.051c-0.889-0.216-1.725-0.252-2.505-0.108s-1.48,0.427-2.1,0.85
			c-0.619,0.424-1.153,0.972-1.603,1.643c-0.45,0.671-0.777,1.43-0.982,2.275c-0.205,0.845-0.263,1.669-0.169,2.472
			c0.092,0.803,0.315,1.535,0.672,2.195c0.356,0.66,0.849,1.233,1.477,1.718c0.627,0.485,1.387,0.835,2.276,1.051
			c0.889,0.216,1.723,0.252,2.504,0.108c0.781-0.143,1.486-0.425,2.116-0.847c0.63-0.42,1.17-0.967,1.62-1.638
			C266.08,43.181,266.407,42.422,266.612,41.577z"/>
		<path fill="#999999" d="M288.236,46.823c-0.279,1.149-0.737,2.162-1.374,3.041c-0.638,0.878-1.401,1.588-2.291,2.129
			c-0.889,0.542-1.875,0.894-2.958,1.056c-1.083,0.162-2.222,0.098-3.414-0.191c-1.17-0.284-2.2-0.747-3.09-1.387
			s-1.604-1.405-2.146-2.294c-0.542-0.889-0.895-1.87-1.059-2.943c-0.165-1.073-0.107-2.184,0.171-3.333
			c0.278-1.149,0.737-2.163,1.375-3.041c0.637-0.878,1.401-1.588,2.29-2.13c0.889-0.542,1.875-0.894,2.958-1.055
			s2.211-0.101,3.382,0.184c1.191,0.289,2.232,0.754,3.122,1.394c0.888,0.641,1.604,1.405,2.146,2.294
			c0.542,0.889,0.895,1.869,1.06,2.942C288.571,44.563,288.515,45.674,288.236,46.823z M285.895,46.255
			c0.205-0.846,0.262-1.67,0.17-2.473c-0.092-0.802-0.322-1.536-0.689-2.198s-0.865-1.237-1.493-1.722
			c-0.629-0.485-1.387-0.836-2.275-1.052c-0.89-0.216-1.725-0.251-2.505-0.108c-0.78,0.144-1.48,0.427-2.1,0.851
			c-0.619,0.423-1.153,0.971-1.603,1.642c-0.45,0.671-0.777,1.43-0.983,2.275c-0.205,0.845-0.262,1.669-0.169,2.473
			c0.092,0.803,0.316,1.535,0.672,2.195c0.357,0.66,0.849,1.233,1.477,1.718c0.627,0.485,1.387,0.835,2.276,1.052
			c0.888,0.215,1.723,0.251,2.504,0.108c0.78-0.143,1.485-0.425,2.116-0.847c0.629-0.42,1.17-0.967,1.62-1.639
			C285.362,47.859,285.689,47.101,285.895,46.255z"/>
		<path fill="#999999" d="M296.032,40.658c-0.057,0.422-0.128,0.835-0.214,1.239c-0.086,0.404-0.18,0.812-0.28,1.223l0.065,0.016
			c0.338-0.354,0.733-0.66,1.187-0.917c0.452-0.257,0.937-0.456,1.453-0.594s1.045-0.217,1.589-0.235
			c0.543-0.017,1.063,0.035,1.563,0.156c1.951,0.473,3.268,1.338,3.95,2.593c0.682,1.256,0.792,2.838,0.329,4.746l-2.343,9.657
			l-2.146-0.521l2.043-8.422c0.411-1.691,0.433-3.057,0.065-4.099c-0.366-1.042-1.342-1.754-2.924-2.138
			c-0.108-0.027-0.422-0.057-0.942-0.091c-0.52-0.034-1.103,0.077-1.75,0.333c-0.647,0.256-1.283,0.722-1.906,1.396
			c-0.623,0.675-1.103,1.707-1.439,3.094l-1.894,7.804l-2.146-0.521l2.879-11.869c0.1-0.412,0.209-0.936,0.33-1.572
			c0.12-0.637,0.227-1.242,0.32-1.816L296.032,40.658z"/>
	</g>
</g>
<g id="Limbs">
	<ellipse fill="#DBDCDD" cx="153.26" cy="240.205" rx="40.112" ry="3.04"/>
	<g>
		<path fill="#66CC66" d="M180.506,193.948c0,0,16.197-5.643,21.234-14.869l3.416-6.588"/>
		<g>
			<g>
				<path fill="#79D279" d="M190.054,194.864c-0.082-0.167-0.272-0.275-0.147-0.438c0.435-0.429,1.146-0.097,1.582-0.534
					l-0.107-0.283c0.453-0.102,0.962-0.216,1.449-0.326c0.763-0.47,1.484-1.042,2.192-1.591c-0.079-0.08-0.143-0.158-0.089-0.239
					c0.271-0.262,0.753-0.48,1.218-0.757l0.166-0.178c0.013-0.088-0.034-0.183-0.063-0.241c0.206-0.129,0.399-0.229,0.583-0.316
					c1.794-2.046,3.441-4.348,4.764-7.055c0.173-0.659,0.347-1.277,0.541-1.868c0.188-0.402,0.469-0.811,0.767-1.213
					c0.267-0.393,0.509-0.763,0.71-1.104c-0.99-0.39-0.569-2.325-1.691-2.485c0.26-0.452,0.651-1.129,0.404-1.304
					c-0.739-0.524-1.471-1.361-1.316-2.833c0.136-0.537,0.852-1.098,0.778-1.35c-0.118-0.398-0.883,0.329-1-0.069
					c-1.065,1.701-1.954,3.451-2.81,5.223c-0.461,1.024-0.777,1.453-1.103,2.075c-0.467,0.595-0.858,1.235-1.479,1.81
					c-0.175,0.569-1.708,2.263-3.739,3.785c-2.013,1.527-4.413,2.864-5.46,3.271l-0.173,0.107c-1.106,0.516-2.413,1.218-3.201,2.015
					c-0.338,0.416-0.666,0.894-1.005,1.352c0.278,0.077,0.54,0.148,0.777,0.234c-0.47,0.184-0.944,0.346-1.05,0.598
					c-0.824,0.819-0.074,1.093,0.592,1.597c0.402,0.175,0.199,0.782,0.77,0.895c-0.33,0.118-0.496,0.177-0.828,0.295
					c0.077,0.298,0.943-0.551,0.904-0.003c-0.357,0.023-0.639,0.339-0.976,0.451c0.266,0.339,1.194-0.316,1.295,0.073
					c-0.144,0.16-1.125-0.126-1.008,0.359c0.024,0.098,0.364-0.018,0.53-0.08c-0.959,0.548-1.38,1.215-0.227,1.352
					c-0.344,0.12-0.87,0.093-1.248,0.3l0.005,0.007c0.218-0.058,0.548-0.073,0.72-0.13l-0.64,0.208
					c0.059,0.053,0.123,0.104,0.189,0.153c0.185-0.002,0.349-0.011,0.515-0.065l-0.417,0.136c0.158,0.115,0.331,0.218,0.513,0.307
					c0.602,0.117,1.234,0.375,1.5,0.28C185.916,196.657,188.031,195.87,190.054,194.864z"/>
			</g>
		</g>
	</g>
	<g>
		<path fill="#66CC66" d="M136.057,186.123c0,0-17.197-17.038-17.974-29.818"/>
		<g>
			<g>
				<path fill="#79D279" d="M134.292,176.604c-0.156,0.125-0.238,0.339-0.419,0.262c-0.494-0.307-0.254-1.071-0.747-1.375
					l-0.276,0.171c-0.166-0.413-0.291-0.875-0.445-1.323c-0.538-0.626-1.118-1.222-1.672-1.823c-0.082,0.087-0.164,0.16-0.246,0.119
					c-0.269-0.224-0.455-0.672-0.714-1.086l-0.171-0.142c-0.09-0.004-0.19,0.049-0.252,0.082c-0.124-0.184-0.206-0.365-0.278-0.534
					c-1.87-1.607-3.805-3.259-5.688-5.272c-0.545-0.353-1.014-0.745-1.379-1.18c-0.227-0.341-0.402-0.768-0.558-1.199
					c-0.133-0.437-0.222-0.883-0.344-1.252c-1.014,0.535-2.241-1.149-3.197-0.436c-0.125-0.562-0.309-1.402-0.633-1.367
					c-0.485,0.055-1.026,0.041-1.571-0.181c-0.272-0.111-0.546-0.274-0.814-0.507c-0.258-0.239-0.473-0.576-0.683-0.995
					c-0.233-0.683,0.037-1.788-0.186-2.014c-0.353-0.366-0.57,0.956-0.923,0.598c0.086,1.35,0.196,2.745,0.559,3.932
					c0.159,0.614,0.32,1.233,0.504,1.832l0.663,1.689c0.899,2.251,2.047,4.249,3.17,6.284c0.595,0.581,2.305,3.067,4.15,5.552
					c1.854,2.476,3.852,4.962,4.6,6.039l0.161,0.175c0.861,1.135,2.06,2.39,3.185,2.992c0.561,0.235,1.188,0.422,1.79,0.618
					c-0.036-0.316-0.059-0.619-0.061-0.895c0.362,0.429,0.719,0.86,1.02,0.875c1.176,0.534,1.118-0.355,1.375-1.21
					c0.026-0.467,0.702-0.504,0.613-1.108c0.235,0.274,0.353,0.411,0.59,0.687c0.262-0.191-0.885-0.697-0.327-0.875
					c0.146,0.338,0.559,0.483,0.792,0.756c0.231-0.393-0.736-1.016-0.381-1.271c0.2,0.076,0.264,1.133,0.699,0.815
					c0.087-0.064-0.146-0.335-0.263-0.47c0.877,0.691,1.652,0.746,1.393-0.363c0.218,0.252,0.407,0.773,0.686,0.949l0.004-0.008
					c-0.099-0.124-0.234-0.422-0.345-0.547l0.394,0.443l0.089-0.228c-0.047-0.14-0.123-0.296-0.224-0.411l0.264,0.298
					c0.06-0.187,0.096-0.394,0.123-0.592c-0.082-0.577-0.029-1.266-0.197-1.46C136.868,179.948,135.608,178.233,134.292,176.604z"/>
			</g>
		</g>
	</g>
	<g>
		<line fill="#66CC66" x1="139.606" y1="214.581" x2="136.909" y2="230.124"/>
		<g>
			<g>
				<path fill="#79D279" d="M134.654,217.549c0.169,0.031,0.348,0.009,0.412,0.103c0.117,0.28-0.487,0.384-0.369,0.665l0.271,0.066
					c-0.152,0.162-0.337,0.36-0.503,0.537c-0.026,0.389-0.028,0.781-0.001,1.176c0.102,0.008,0.195,0.019,0.225,0.063
					c0.046,0.17-0.088,0.372-0.156,0.593l0.03,0.108c0.055,0.036,0.149,0.059,0.208,0.074c-0.027,0.101-0.068,0.187-0.113,0.266
					c0.347,1.204,0.785,2.441,1.2,3.771c0.208,0.302,0.416,0.604,0.488,0.874c0.041,0.387-0.22,0.827-0.313,1.181
					c0.978,0.113,1.299,1.072,2.308,1.066c-0.062,0.236-0.157,0.59,0.114,0.656c0.812,0.198,1.726,0.547,2.11,1.27
					c0.072,0.269-0.34,0.592-0.189,0.708c0.24,0.184,0.635-0.223,0.875-0.039c0.618-1.8,0.571-3.645,0.903-5.508
					c-0.319-0.709,0.235-5.022,0.616-6.089l0.005-0.102c0.157-0.591,0.21-1.332-0.07-1.903c-0.188-0.272-0.423-0.557-0.65-0.839
					c-0.178,0.082-0.355,0.156-0.528,0.216c0.062-0.236,0.125-0.472-0.034-0.595c-0.325-0.583-0.86-0.377-1.553-0.295
					c-0.313,0.091-0.722-0.176-1.055-0.006c0.042-0.157,0.062-0.236,0.104-0.394c-0.271-0.065,0.055,0.517-0.375,0.328
					c0.132-0.136-0.006-0.337,0.036-0.494c-0.381-0.009-0.236,0.529-0.597,0.441c-0.07-0.101,0.576-0.362,0.125-0.473
					c-0.091-0.022-0.132,0.136-0.153,0.214c-0.054-0.516-0.442-0.827-1.019-0.464c0.041-0.154,0.272-0.48,0.239-0.48h-0.008
					c-0.029,0-0.148,0.169-0.168,0.244l0.073-0.294l-0.199,0.007c-0.068,0.06-0.126,0.118-0.146,0.189l0.049-0.186
					c-0.157,0.021-0.31,0.048-0.454,0.083c-0.333,0.17-0.802,0.307-0.833,0.425C135.174,215.643,134.853,216.587,134.654,217.549z"
					/>
			</g>
		</g>
	</g>
	<g>
		<path fill="#66CC66" d="M164.923,218.481c0,0-4.602,17.234,0,18.174"/>
		<g>
			<g>
				<path fill="#79D279" d="M158.508,221.876c0.212,0.044,0.438,0.02,0.516,0.143c0.136,0.361-0.625,0.487-0.485,0.853l0.34,0.087
					c-0.196,0.212-0.43,0.467-0.643,0.698c-0.037,0.51-0.04,1.022,0.002,1.543c0.128,0.006,0.246,0.018,0.284,0.075
					c0.061,0.221-0.105,0.49-0.181,0.788l0.042,0.141c0.07,0.044,0.191,0.07,0.265,0.085c-0.03,0.134-0.081,0.25-0.132,0.357
					c0.5,1.575,1.152,3.172,1.95,4.853c0.322,0.355,0.65,0.696,0.818,1.027c0.152,0.486-0.007,1.157,0.045,1.691
					c0.6-0.145,1.103,0.062,1.613,0.188c0.5,0.139,1.003,0.171,1.576-0.091c0.023,0.107,0.051,0.245,0.112,0.341
					c0.073,0.077,0.173,0.11,0.333,0.039c0.24-0.105,0.489-0.214,0.737-0.323l0.365-0.166l0.177-0.084
					c0.055-0.024,0.144-0.084,0.075-0.046c-0.128,0.062-0.292,0.152-0.483,0.307l-0.146,0.125c-0.032,0.02-0.065,0.043-0.099,0.07
					c-0.068,0.055-0.14,0.125-0.21,0.22c-0.057,0.08-0.049,0.049-0.078,0.094c-0.011,0.005-0.063,0.119-0.033,0.06
					c0.031-0.067,0.028-0.105,0.028-0.116l0.515-2.52l0,0l0-0.001l0.001-0.002l0.002-0.003l0.005-0.007l0.009-0.014l0.016-0.03
					c0.009-0.02,0.017-0.041,0.021-0.062c0.01-0.043,0.011-0.088,0.007-0.135l0.148-0.036c-0.191,0.935-0.423,1.872-0.423,2.811
					v0.001v0.007l-0.153,0.019c-0.003,0.028-0.093,0.066-0.083,0.036c-0.004,0.019-0.062,0.064-0.066,0.068
					c0.014-0.033,0.011-0.061,0.028-0.083l0.049-0.068c0.05-0.069,0.1-0.131,0.157-0.184c0.061-0.058,0.108-0.087,0.184-0.145
					c0.099-0.091,0.2-0.171,0.306-0.242c0.106-0.071,0.215-0.132,0.327-0.183c0.122-0.064,0.296-0.179,0.446-0.251
					c0.157-0.08,0.315-0.15,0.476-0.21l0.243-0.083l0.306-0.131c0.354-0.152,1.034-0.35,0.838-0.275
					c-0.008-0.062-0.048-0.068-0.076-0.208c-0.142-0.445-0.293-1.303-0.242-2.22c-0.26-0.321-0.385-1.613-0.28-3.065
					c0.091-1.441,0.379-2.977,0.622-3.576l0.007-0.117c0.199-0.668,0.284-1.512-0.043-2.194c-0.224-0.33-0.506-0.68-0.775-1.03
					c-0.229,0.079-0.454,0.15-0.674,0.207c0.09-0.273,0.184-0.543-0.009-0.702c-0.37-0.715-1.052-0.534-1.928-0.497
					c-0.399,0.083-0.894-0.279-1.323-0.1c0.064-0.188,0.096-0.283,0.161-0.473c-0.335-0.105,0.029,0.637-0.496,0.369
					c0.174-0.155,0.018-0.415,0.083-0.605c-0.479-0.047-0.339,0.631-0.785,0.493c-0.081-0.132,0.751-0.398,0.195-0.575
					c-0.112-0.036-0.177,0.156-0.209,0.252c-0.027-0.644-0.477-1.356-1.236-0.946c0.066-0.195,0.373,0.118,0.357-0.882h-0.01
					c-0.052,1-0.212,0.49-0.246,0.586l0.125-0.244l-0.253,0.064c-0.094,0.074-0.173,0.179-0.205,0.27l0.082-0.221
					c-0.2,0.015-0.396,0.045-0.582,0.078c-0.438,0.193-1.04,0.335-1.09,0.486C159.258,219.432,158.794,220.633,158.508,221.876z"/>
			</g>
		</g>
	</g>
</g>
<g id="Body">
	<g>
		<path fill="#CBD0D3" d="M179.98,222.219c-0.45,2.299-2.7,3.812-4.999,3.361l-47.333-9.274c-2.299-0.45-3.812-2.7-3.361-4.999
			l12.091-61.723c0.45-2.299,2.7-3.812,4.999-3.361l47.335,9.273c2.299,0.45,3.812,2.7,3.361,4.999L179.98,222.219z"/>
	</g>
</g>
<g id="Slider">
	<g>
		<g>
			<path fill="#539E4F" d="M153.23,202.707c-1.285,6.765-7.674,11.286-14.197,10.047c-6.523-1.239-10.81-7.788-9.524-14.553
				l7.092-37.337c1.285-6.765,7.674-11.286,14.197-10.047c6.523,1.239,10.81,7.788,9.524,14.553L153.23,202.707z"/>
		</g>
		<g>
			<path fill="#6FD86B" d="M153.561,201.644c-1.224,6.445-7.311,10.752-13.525,9.571c-6.215-1.181-10.298-7.42-9.074-13.864
				l6.997-36.833c1.224-6.444,7.31-10.751,13.525-9.571c6.214,1.18,10.297,7.419,9.073,13.864L153.561,201.644z"/>
		</g>
	</g>
	<g>
		<g>
			<path fill="#539E4F" d="M179.479,208.303c-1.285,6.765-7.674,11.286-14.197,10.047s-10.81-7.788-9.524-14.553l7.092-37.337
				c1.285-6.765,7.674-11.286,14.197-10.047c6.523,1.239,10.81,7.789,9.524,14.553L179.479,208.303z"/>
		</g>
		<g>
			<path fill="#6FD86B" d="M179.81,207.24c-1.224,6.444-7.31,10.751-13.525,9.571c-6.214-1.18-10.297-7.419-9.073-13.863
				l6.996-36.834c1.224-6.444,7.31-10.751,13.524-9.57c6.215,1.181,10.298,7.419,9.074,13.864L179.81,207.24z"/>
		</g>
	</g>
</g>
<g id="Eyes_1_">
	<g id="Eyeballs_1_">
		<g id="Eyes-Shadow_1_">
			
				<ellipse transform="matrix(0.9812 0.1929 -0.1929 0.9812 34.0891 -25.6877)" fill="#539E4F" cx="148.946" cy="162.197" rx="10.653" ry="10.474"/>
			
				<ellipse transform="matrix(0.9812 0.1929 -0.1929 0.9812 35.6797 -30.7195)" fill="#539E4F" cx="175.568" cy="167.836" rx="10.654" ry="10.437"/>
		</g>
		<circle fill="#FFFFFF" cx="149.304" cy="161.864" r="10.077"/>
		<circle fill="#FFFFFF" cx="175.919" cy="167.538" r="10.077"/>
	</g>
	<g id="Pupils_1_">
		<circle fill="#666666" cx="148.899" cy="161.797" r="1.514"/>
		<circle fill="#666666" cx="175.515" cy="167.471" r="1.514"/>
	</g>
</g>
</svg>
